<svg width="90" height="41" viewBox="0 0 90 41" fill="none" xmlns="http://www.w3.org/2000/svg">
<path d="M0.171875 32.0469C0.171875 30.1719 0.296875 28.3125 0.546875 26.4688C0.796875 24.625 1.01562 22.7812 1.20312 20.9375C1.20312 20.8438 1.21875 20.6406 1.25 20.3281C1.28125 19.9844 1.3125 19.625 1.34375 19.25C1.40625 18.875 1.45312 18.5312 1.48438 18.2188C1.54688 17.875 1.57812 17.6562 1.57812 17.5625V17.375L3.54688 2.75C3.48438 2.125 3.57812 1.57812 3.82812 1.10938C4.10938 0.609375 4.60938 0.359375 5.32812 0.359375C6.10938 0.265625 6.75 0.375 7.25 0.6875C7.78125 0.96875 8.21875 1.34375 8.5625 1.8125C8.90625 2.28125 9.1875 2.79688 9.40625 3.35938C9.625 3.92188 9.85938 4.4375 10.1094 4.90625C10.2656 5.34375 10.4531 5.85938 10.6719 6.45312C10.9219 7.04688 11.2031 7.79688 11.5156 8.70312C11.8594 9.60938 12.25 10.7188 12.6875 12.0312C13.1562 13.3438 13.6875 14.9375 14.2812 16.8125L14.4688 17C14.6875 16.875 15.0938 16.6719 15.6875 16.3906C16.3125 16.1094 16.9531 15.8125 17.6094 15.5C18.2969 15.1875 18.9375 14.8906 19.5312 14.6094C20.125 14.3281 20.5469 14.1406 20.7969 14.0469C20.8281 13.9844 20.9062 13.9375 21.0312 13.9062C21.1875 13.8438 21.2969 13.7969 21.3594 13.7656H21.4531C21.7656 13.7656 22 13.8906 22.1562 14.1406C22.3125 14.3594 22.3906 14.5781 22.3906 14.7969C22.3906 15.1406 22.3125 15.4375 22.1562 15.6875C22 15.9375 21.8125 16.1719 21.5938 16.3906C21.4062 16.5781 21.1875 16.7656 20.9375 16.9531C20.7188 17.1406 20.5469 17.3438 20.4219 17.5625L15.7812 19.9062C15.6562 20.0625 15.5938 20.1875 15.5938 20.2812C15.5938 20.5312 15.7188 20.9219 15.9688 21.4531C16.25 21.9844 16.4688 22.4062 16.625 22.7188C16.7188 22.9062 16.875 23.25 17.0938 23.75C17.3125 24.25 17.5469 24.7656 17.7969 25.2969C18.0469 25.8281 18.2812 26.3438 18.5 26.8438C18.75 27.3125 18.9219 27.6406 19.0156 27.8281V27.9688C19.0156 29.0938 18.4531 29.6562 17.3281 29.6562C16.9844 29.6562 16.625 29.625 16.25 29.5625C15.875 29.4688 15.5938 29.2344 15.4062 28.8594L12.2656 22.1562H11.8438C10.6562 23.0625 9.39062 23.9531 8.04688 24.8281C6.70312 25.7031 5.32812 26.4531 3.92188 27.0781C3.70312 28.2031 3.5625 29.3438 3.5 30.5C3.46875 31.6562 3.48438 32.8125 3.54688 33.9688C3.29688 34.3125 3.04688 34.5781 2.79688 34.7656C2.54688 34.9219 2.20312 35 1.76562 35C1.32812 35 1 34.9062 0.78125 34.7188C0.5625 34.5 0.40625 34.25 0.3125 33.9688C0.21875 33.6562 0.171875 33.3281 0.171875 32.9844C0.171875 32.6406 0.171875 32.3281 0.171875 32.0469ZM4.34375 22.9531C5.28125 22.5781 6.1875 22.0781 7.0625 21.4531C7.96875 20.8281 8.82812 20.25 9.64062 19.7188C9.73438 19.6562 9.84375 19.5938 9.96875 19.5312C10.125 19.4688 10.2656 19.3906 10.3906 19.2969C10.5156 19.2031 10.6719 19.0938 10.8594 18.9688V18.5938L6.54688 6.3125L6.35938 6.125C6.26562 6.3125 6.14062 6.84375 5.98438 7.71875C5.85938 8.59375 5.70312 9.73438 5.51562 11.1406C5.35938 12.5156 5.17188 14.1094 4.95312 15.9219C4.76562 17.7344 4.5625 19.6719 4.34375 21.7344V22.9531ZM34.25 18.9688L34.0625 18.7812C33.875 19.5312 33.7656 20.2812 33.7344 21.0312C33.7031 21.7812 33.6719 22.5469 33.6406 23.3281C33.6406 23.5781 33.625 24 33.5938 24.5938C33.5938 25.1875 33.5781 25.8281 33.5469 26.5156C33.5156 27.1719 33.4844 27.8125 33.4531 28.4375C33.4531 29.0312 33.4531 29.4375 33.4531 29.6562C33.3594 30.0312 33.1562 30.3594 32.8438 30.6406C32.5312 30.9219 32.1719 31.0625 31.7656 31.0625C31.6094 31.0625 31.4062 31.0469 31.1562 31.0156C30.9375 30.9531 30.7031 30.8906 30.4531 30.8281C30.2344 30.7344 30.0156 30.625 29.7969 30.5C29.6094 30.375 29.5 30.2344 29.4688 30.0781L26.5156 19.7188L24.3594 11.2344C24.3281 11.2031 24.2656 11.0938 24.1719 10.9062C24.0781 10.7188 23.9844 10.5156 23.8906 10.2969C23.7969 10.0469 23.7031 9.8125 23.6094 9.59375C23.5469 9.375 23.5156 9.20312 23.5156 9.07812C23.5156 8.64062 23.7188 8.29688 24.125 8.04688C24.5625 7.76562 24.9531 7.625 25.2969 7.625C26.4531 7.625 27.1875 8.10938 27.5 9.07812L30.0781 18.4062C30.2344 18.3438 30.3281 18.1719 30.3594 17.8906C30.4219 17.6094 30.4531 17.4375 30.4531 17.375C30.4531 17.3438 30.4688 17.1875 30.5 16.9062C30.5625 16.625 30.6562 16.1406 30.7812 15.4531C30.9062 14.7344 31.0781 13.7656 31.2969 12.5469C31.5469 11.3281 31.875 9.76562 32.2812 7.85938C32.5312 7.54688 32.8281 7.34375 33.1719 7.25C33.5156 7.125 33.9062 7.0625 34.3438 7.0625C34.75 7.0625 35.0625 7.125 35.2812 7.25C35.5312 7.375 35.7031 7.65625 35.7969 8.09375L38.9844 21.5C39.0469 21.6562 39.1094 21.8281 39.1719 22.0156C39.2344 22.2031 39.2969 22.375 39.3594 22.5312C39.4844 21.5 39.5938 20.5938 39.6875 19.8125C39.7812 19 39.875 18.2188 39.9688 17.4688C40.0625 16.6875 40.1562 15.875 40.25 15.0312C40.3438 14.1562 40.4688 13.1562 40.625 12.0312C40.7812 10.9062 40.9688 9.57812 41.1875 8.04688C41.4062 6.51562 41.6719 4.6875 41.9844 2.5625C42.0781 1.9375 42.3438 1.54688 42.7812 1.39062C43.25 1.23437 43.7656 1.15625 44.3281 1.15625C44.3594 1.15625 44.4219 1.1875 44.5156 1.25C44.6406 1.28125 44.7188 1.3125 44.75 1.34375C44.8125 1.375 44.9375 1.40625 45.125 1.4375C45.3125 1.46875 45.4375 1.5 45.5 1.53125C45.625 1.8125 45.7344 2.0625 45.8281 2.28125C45.9219 2.46875 45.9688 2.6875 45.9688 2.9375C45.9062 2.625 45.7969 2.76563 45.6406 3.35938C45.4844 3.95312 45.2812 4.92188 45.0312 6.26562C44.8125 7.60938 44.5625 9.28125 44.2812 11.2812C44.0312 13.25 43.7812 15.4844 43.5312 17.9844C43.2812 20.4531 43.0469 23.1406 42.8281 26.0469C42.6406 28.9219 42.4844 31.9062 42.3594 35C42.2656 35 42.1094 34.9844 41.8906 34.9531C41.6719 34.9219 41.4375 34.875 41.1875 34.8125C40.9688 34.75 40.7656 34.6719 40.5781 34.5781C40.3906 34.4844 40.2656 34.3594 40.2031 34.2031L34.25 18.9688ZM64.625 39.0781C64.1562 37.2031 63.8125 35.2188 63.5938 33.125C63.4062 31 63.2812 29.0156 63.2188 27.1719C62.9375 27.3281 62.7031 27.5781 62.5156 27.9219C62.3281 28.2344 62.1562 28.5781 62 28.9531C61.875 29.2969 61.7344 29.6562 61.5781 30.0312C61.4219 30.375 61.2344 30.6719 61.0156 30.9219C60.2969 31.7344 59.5156 32.4844 58.6719 33.1719C57.8281 33.8281 56.8281 34.1562 55.6719 34.1562C54.7344 34.1562 53.7969 33.9531 52.8594 33.5469C51.9531 33.1406 51.125 32.6094 50.375 31.9531C49.6562 31.2656 49.0625 30.4844 48.5938 29.6094C48.1562 28.7344 47.9375 27.8125 47.9375 26.8438C47.9375 25.5 48.1562 24.1406 48.5938 22.7656C49.0312 21.3594 49.5625 20.0625 50.1875 18.875C50.3125 18.6562 50.5 18.3438 50.75 17.9375C51.0312 17.5 51.3125 17.0625 51.5938 16.625C51.9062 16.1875 52.1875 15.7969 52.4375 15.4531C52.6875 15.0781 52.8594 14.8438 52.9531 14.75L58.0625 9.35938C58.75 8.64062 59.6094 8.125 60.6406 7.8125C61.7031 7.46875 62.6875 7.26562 63.5938 7.20312C64.0625 7.14062 64.4531 7.21875 64.7656 7.4375C65.0781 7.625 65.2344 7.95312 65.2344 8.42188C65.2344 8.79688 65.0781 9.09375 64.7656 9.3125C64.4844 9.5 64.1406 9.65625 63.7344 9.78125C63.3281 9.90625 62.9062 10.0312 62.4688 10.1562C62.0312 10.25 61.6875 10.375 61.4375 10.5312C59.7812 11.875 58.2812 13.3906 56.9375 15.0781C55.5938 16.7344 54.3906 18.4688 53.3281 20.2812C52.9844 21.375 52.625 22.4219 52.25 23.4219C51.875 24.4219 51.6875 25.5156 51.6875 26.7031C51.6875 26.7969 51.6875 27.0156 51.6875 27.3594C51.7188 27.6719 51.7344 27.875 51.7344 27.9688C52.0469 28.7188 52.5156 29.4062 53.1406 30.0312C53.7969 30.6562 54.5625 30.9688 55.4375 30.9688C55.875 30.9688 56.3281 30.8281 56.7969 30.5469C57.2656 30.2656 57.625 29.9219 57.875 29.5156C58 29.3594 58.2188 29.0469 58.5312 28.5781C58.8438 28.1094 59.1562 27.6094 59.4688 27.0781C59.8125 26.5469 60.125 26.0469 60.4062 25.5781C60.7188 25.1094 60.9219 24.7812 61.0156 24.5938C61.1094 24.4062 61.2344 24.1719 61.3906 23.8906C61.5781 23.5781 61.7344 23.2812 61.8594 23C62.0156 22.7188 62.1406 22.4688 62.2344 22.25C62.3594 22 62.4219 21.8594 62.4219 21.8281V21.6406C61.9844 21.7656 61.5469 21.875 61.1094 21.9688C60.6719 22.0312 60.2188 22.0625 59.75 22.0625C59.4688 22.0625 59.1562 22.0469 58.8125 22.0156C58.5 21.9531 58.1875 21.8594 57.875 21.7344C57.5938 21.6094 57.3438 21.4375 57.125 21.2188C56.9375 21 56.8438 20.7031 56.8438 20.3281C56.8438 20.1719 56.8594 19.9844 56.8906 19.7656C56.9219 19.5469 56.9844 19.375 57.0781 19.25C57.3281 19.0312 57.6562 18.875 58.0625 18.7812C58.5 18.6562 58.9531 18.5781 59.4219 18.5469C59.9219 18.4844 60.4062 18.4375 60.875 18.4062C61.375 18.3438 61.8281 18.2344 62.2344 18.0781C62.5781 17.9531 62.9844 17.7969 63.4531 17.6094C63.9219 17.3906 64.4062 17.1875 64.9062 17C65.4375 16.7812 65.9688 16.5938 66.5 16.4375C67.0312 16.2812 67.5156 16.1719 67.9531 16.1094C68.0469 16.1094 68.1719 16.1406 68.3281 16.2031C68.5156 16.2656 68.7031 16.3438 68.8906 16.4375C69.0781 16.5312 69.2344 16.6406 69.3594 16.7656C69.4844 16.8594 69.5469 16.9531 69.5469 17.0469C69.5469 17.7344 69.3594 18.2188 68.9844 18.5C68.6094 18.75 68.125 19.0625 67.5312 19.4375C67.625 20.6875 67.5781 21.9375 67.3906 23.1875C67.2344 24.4375 67.1562 25.6875 67.1562 26.9375C67.1562 28.4375 67.1875 29.9688 67.25 31.5312C67.3125 33.0938 67.4688 34.6094 67.7188 36.0781C67.75 36.1406 67.7969 36.2969 67.8594 36.5469C67.9219 36.8281 67.9844 37.1094 68.0469 37.3906C68.1406 37.6719 68.2188 37.9375 68.2812 38.1875C68.3438 38.4375 68.375 38.5938 68.375 38.6562V38.75C68.375 39.1875 68.2031 39.6094 67.8594 40.0156C67.5469 40.4531 67.1719 40.6719 66.7344 40.6719C66.2656 40.6719 65.8125 40.5156 65.375 40.2031C64.9688 39.8906 64.7188 39.5156 64.625 39.0781ZM74.2344 33.9688C73.9219 32.7188 73.6875 31.5469 73.5312 30.4531C73.375 29.3281 73.2656 28.1406 73.2031 26.8906C73.1719 26.1719 73.1719 25.5625 73.2031 25.0625C73.2344 24.5312 73.1719 23.9531 73.0156 23.3281C72.9844 23.2031 72.9062 23.1094 72.7812 23.0469C72.6875 22.9844 72.5781 22.9062 72.4531 22.8125C72.3594 22.7188 72.2656 22.6094 72.1719 22.4844C72.0781 22.3281 72.0312 22.0938 72.0312 21.7812C72.0312 21.5312 72.0781 21.3125 72.1719 21.125C72.2969 20.9375 72.4062 20.7656 72.5 20.6094C72.625 20.4219 72.7344 20.2344 72.8281 20.0469C72.9531 19.8281 73.0156 19.5781 73.0156 19.2969V18.5938C73.0156 18.2812 72.9844 17.75 72.9219 17C72.8594 16.25 72.7969 15.4531 72.7344 14.6094C72.6719 13.7656 72.6094 12.9688 72.5469 12.2188C72.5156 11.4688 72.4844 10.9531 72.4531 10.6719C72.4219 10.1406 72.2812 9.67188 72.0312 9.26562C71.7812 8.85938 71.6562 8.39062 71.6562 7.85938C71.6562 6.85938 71.8594 6.15625 72.2656 5.75C72.6719 5.34375 73.3906 5.14062 74.4219 5.14062C74.6406 5.14062 74.8125 5.23438 74.9375 5.42188C75.0938 5.60938 75.2656 5.70312 75.4531 5.70312H75.6406C75.7344 5.67188 75.875 5.64062 76.0625 5.60938C76.25 5.54688 76.375 5.51562 76.4375 5.51562C79.0625 4.39062 81.1094 3.51563 82.5781 2.89062C84.0469 2.26562 85.1562 1.8125 85.9062 1.53125C86.6562 1.25 87.1562 1.09375 87.4062 1.0625C87.6875 1.03125 87.9219 1.0625 88.1094 1.15625C88.4844 1.21875 88.7344 1.34375 88.8594 1.53125C89.0156 1.6875 89.0938 1.9375 89.0938 2.28125C89.0938 2.59375 89.0469 2.90625 88.9531 3.21875C88.8594 3.53125 88.6406 3.76562 88.2969 3.92188L82.1562 6.875L81.9688 7.0625L76.8125 9.26562C76.625 9.32812 76.5156 9.48438 76.4844 9.73438C76.4531 9.98438 76.4375 10.1875 76.4375 10.3438C76.4375 10.5938 76.4688 11.0469 76.5312 11.7031C76.5938 12.3594 76.6562 13.0469 76.7188 13.7656C76.7812 14.4531 76.8438 15.0781 76.9062 15.6406C77 16.1719 77.0625 16.4375 77.0938 16.4375H77.1406C77.1406 16.4375 77.1562 16.4219 77.1875 16.3906C77.5312 16.1406 78.0781 15.7188 78.8281 15.125C79.5781 14.5 80.3438 13.875 81.125 13.25C81.9062 12.625 82.5938 12.0781 83.1875 11.6094C83.7812 11.1094 84.0938 10.8594 84.125 10.8594C84.4688 10.8594 84.7812 11.0312 85.0625 11.375C85.3438 11.7188 85.4844 12.0781 85.4844 12.4531C85.4844 12.8281 85.4062 13.25 85.25 13.7188C85.0938 14.1875 84.8438 14.5469 84.5 14.7969L77.1875 21.3125C77.1875 21.3125 77.1875 21.3906 77.1875 21.5469C77.1875 21.7031 77.1719 21.875 77.1406 22.0625C77.1406 22.25 77.1406 22.4531 77.1406 22.6719C77.1406 22.8594 77.1406 23.0156 77.1406 23.1406C77.1406 24.2656 77.2188 25.3906 77.375 26.5156C77.5312 27.6094 77.6094 28.7188 77.6094 29.8438H77.7969C77.8281 29.8438 77.9688 29.7188 78.2188 29.4688C78.4688 29.2188 78.6562 29.0156 78.7812 28.8594C78.8438 28.7656 78.9844 28.5625 79.2031 28.25C79.4531 27.9375 79.8594 27.4219 80.4219 26.7031C80.9844 25.9844 81.7344 25.0312 82.6719 23.8438C83.6094 22.6562 84.8125 21.1562 86.2812 19.3438C86.4062 19.2188 86.5781 19.0312 86.7969 18.7812C87.0469 18.5312 87.2031 18.4062 87.2656 18.4062C87.3594 18.3125 87.5469 18.2812 87.8281 18.3125C88.1406 18.3125 88.3594 18.3438 88.4844 18.4062C88.6406 18.4688 88.8438 18.6406 89.0938 18.9219C89.3438 19.2031 89.4688 19.4688 89.4688 19.7188C89.4688 20.0938 89.2656 20.5938 88.8594 21.2188C88.4844 21.8125 88.0312 22.4375 87.5 23.0938C86.9688 23.75 86.4375 24.3906 85.9062 25.0156C85.375 25.6094 84.9688 26.0938 84.6875 26.4688C84.25 27.1562 83.7188 28 83.0938 29C82.5 29.9688 81.8438 30.9062 81.125 31.8125C80.4062 32.6875 79.6094 33.4531 78.7344 34.1094C77.8906 34.7344 76.9844 35.0469 76.0156 35.0469C75.5469 35.0469 75.2031 34.9688 74.9844 34.8125C74.7969 34.6562 74.5469 34.375 74.2344 33.9688Z" fill="white"/>
</svg>
