<svg width="135" height="54" viewBox="0 0 135 54" fill="none" xmlns="http://www.w3.org/2000/svg">
<path d="M8.15625 53.3125L8.46875 41C7.80208 40.875 7.125 40.7292 6.4375 40.5625C5.75 40.375 5.07292 40.1875 4.40625 40C3.76042 39.7917 3.13542 39.5833 2.53125 39.375C1.92708 39.1667 1.38542 38.9583 0.90625 38.75L1.96875 31.0625C3.28125 31.7292 4.75 32.2292 6.375 32.5625C8 32.8958 9.61458 33.0625 11.2188 33.0625C11.5104 33.0625 11.8646 33.0521 12.2812 33.0312C12.7188 33.0104 13.1354 32.9583 13.5312 32.875C13.9271 32.7708 14.2604 32.6146 14.5312 32.4062C14.8229 32.1979 14.9688 31.9167 14.9688 31.5625C14.9688 31.1875 14.7604 30.9062 14.3438 30.7188C13.9479 30.5104 13.4688 30.3646 12.9062 30.2812C12.3646 30.1771 11.8125 30.1146 11.25 30.0938C10.6875 30.0729 10.2604 30.0625 9.96875 30.0625C8.61458 30.0625 7.38542 29.8854 6.28125 29.5312C5.17708 29.1771 4.21875 28.6771 3.40625 28.0312C2.61458 27.3646 2 26.5729 1.5625 25.6562C1.125 24.7396 0.90625 23.7083 0.90625 22.5625C0.90625 21.5 1.08333 20.5104 1.4375 19.5938C1.8125 18.6771 2.32292 17.8438 2.96875 17.0938C3.63542 16.3438 4.41667 15.6875 5.3125 15.125C6.22917 14.5417 7.21875 14.0625 8.28125 13.6875L7.78125 0.5L11.1562 0.8125V12.9375C11.4479 12.875 11.7292 12.8333 12 12.8125C12.2708 12.7708 12.5521 12.7292 12.8438 12.6875L12.7812 0.5L16.1562 0.5625L15.7188 12.6875C17.0938 12.7292 18.4792 12.8646 19.875 13.0938C21.2708 13.3021 22.5521 13.6458 23.7188 14.125L22.9062 22.0625C21.8021 21.7708 20.6667 21.5208 19.5 21.3125C18.3333 21.1042 17.2188 21 16.1562 21C15.8229 21 15.375 21.0104 14.8125 21.0312C14.2708 21.0521 13.7292 21.1146 13.1875 21.2188C12.6667 21.3229 12.2083 21.4792 11.8125 21.6875C11.4375 21.8958 11.2604 22.1875 11.2812 22.5625C11.3021 22.875 11.4375 23.1146 11.6875 23.2812C11.9375 23.4271 12.25 23.5417 12.625 23.625C13.0208 23.6875 13.4583 23.7188 13.9375 23.7188C14.4167 23.7188 14.875 23.7083 15.3125 23.6875C15.7708 23.6667 16.1979 23.6458 16.5938 23.625C16.9896 23.6042 17.3021 23.6042 17.5312 23.625C18.7812 23.6875 19.9062 23.9062 20.9062 24.2812C21.9062 24.6562 22.7604 25.1667 23.4688 25.8125C24.1771 26.4375 24.7188 27.1875 25.0938 28.0625C25.4688 28.9375 25.6562 29.8958 25.6562 30.9375C25.6562 32.3958 25.4062 33.6875 24.9062 34.8125C24.4271 35.9375 23.75 36.9167 22.875 37.75C22 38.5625 20.9479 39.2396 19.7188 39.7812C18.5104 40.3021 17.1771 40.6875 15.7188 40.9375L16.2188 53.25L13.1562 53.5625L13.0312 41.25C12.7396 41.2917 12.4479 41.3125 12.1562 41.3125C11.8646 41.3125 11.5729 41.3125 11.2812 41.3125H11.1562L11.2188 53.5L8.15625 53.3125ZM64.9062 37.875C64.9062 39.6042 64.5833 41.0938 63.9375 42.3438C63.3125 43.5938 62.4688 44.6562 61.4062 45.5312C60.3438 46.4062 59.1146 47.125 57.7188 47.6875C56.3438 48.2292 54.9062 48.6562 53.4062 48.9688C51.9062 49.2812 50.3958 49.4896 48.875 49.5938C47.375 49.6979 45.9688 49.75 44.6562 49.75C43.3646 49.75 42.0208 49.6979 40.625 49.5938C39.25 49.5104 37.875 49.3542 36.5 49.125C35.125 48.8958 33.7708 48.5938 32.4375 48.2188C31.1042 47.8229 29.8438 47.3333 28.6562 46.75L28.5938 6.5C29.7604 6.02083 31 5.59375 32.3125 5.21875C33.625 4.82292 34.9583 4.5 36.3125 4.25C37.6875 3.97917 39.0521 3.78125 40.4062 3.65625C41.7604 3.51042 43.0729 3.4375 44.3438 3.4375C45.8229 3.4375 47.3125 3.53125 48.8125 3.71875C50.3333 3.90625 51.7917 4.21875 53.1875 4.65625C54.5833 5.09375 55.8854 5.66667 57.0938 6.375C58.3021 7.0625 59.3542 7.91667 60.25 8.9375C61.1667 9.95833 61.875 11.1458 62.375 12.5C62.8958 13.8542 63.1562 15.4167 63.1562 17.1875C63.1562 18.3542 62.9896 19.4479 62.6562 20.4688C62.3229 21.4896 61.8438 22.4062 61.2188 23.2188C60.5938 24.0312 59.8333 24.7292 58.9375 25.3125C58.0417 25.875 57.0312 26.2917 55.9062 26.5625C57.2604 26.9167 58.4896 27.4375 59.5938 28.125C60.7188 28.8125 61.6667 29.6458 62.4375 30.625C63.2292 31.6042 63.8333 32.7083 64.25 33.9375C64.6875 35.1667 64.9062 36.4792 64.9062 37.875ZM49.0312 20.0625C49.0312 19.4583 48.9062 18.9479 48.6562 18.5312C48.4062 18.0938 48.0938 17.7396 47.7188 17.4688C47.3646 17.1979 46.9688 17 46.5312 16.875C46.1146 16.75 45.7396 16.6875 45.4062 16.6875C44.9896 16.6875 44.5833 16.75 44.1875 16.875C43.7917 17 43.4062 17.1458 43.0312 17.3125L42.8438 24.25C43.3229 24.25 43.9167 24.2083 44.625 24.125C45.3333 24.0417 46.0104 23.8646 46.6562 23.5938C47.3229 23.3021 47.8854 22.8854 48.3438 22.3438C48.8021 21.7812 49.0312 21.0208 49.0312 20.0625ZM44.5938 30.25C43.9896 30.25 43.4062 30.3125 42.8438 30.4375L42.7188 37.5625C43.0312 37.625 43.3333 37.6875 43.625 37.75C43.9375 37.7917 44.2396 37.8125 44.5312 37.8125C44.9688 37.8125 45.4479 37.7708 45.9688 37.6875C46.4896 37.5833 46.9792 37.3958 47.4375 37.125C47.8958 36.8333 48.2708 36.4479 48.5625 35.9688C48.875 35.4896 49.0312 34.8542 49.0312 34.0625C49.0312 33.2708 48.875 32.625 48.5625 32.125C48.2708 31.625 47.9062 31.2396 47.4688 30.9688C47.0312 30.6771 46.5521 30.4896 46.0312 30.4062C45.5104 30.3021 45.0312 30.25 44.5938 30.25ZM102.969 37.875C102.969 39.6042 102.646 41.0938 102 42.3438C101.375 43.5938 100.531 44.6562 99.4688 45.5312C98.4062 46.4062 97.1771 47.125 95.7812 47.6875C94.4062 48.2292 92.9688 48.6562 91.4688 48.9688C89.9688 49.2812 88.4583 49.4896 86.9375 49.5938C85.4375 49.6979 84.0312 49.75 82.7188 49.75C81.4271 49.75 80.0833 49.6979 78.6875 49.5938C77.3125 49.5104 75.9375 49.3542 74.5625 49.125C73.1875 48.8958 71.8333 48.5938 70.5 48.2188C69.1667 47.8229 67.9062 47.3333 66.7188 46.75L66.6562 6.5C67.8229 6.02083 69.0625 5.59375 70.375 5.21875C71.6875 4.82292 73.0208 4.5 74.375 4.25C75.75 3.97917 77.1146 3.78125 78.4688 3.65625C79.8229 3.51042 81.1354 3.4375 82.4062 3.4375C83.8854 3.4375 85.375 3.53125 86.875 3.71875C88.3958 3.90625 89.8542 4.21875 91.25 4.65625C92.6458 5.09375 93.9479 5.66667 95.1562 6.375C96.3646 7.0625 97.4167 7.91667 98.3125 8.9375C99.2292 9.95833 99.9375 11.1458 100.438 12.5C100.958 13.8542 101.219 15.4167 101.219 17.1875C101.219 18.3542 101.052 19.4479 100.719 20.4688C100.385 21.4896 99.9062 22.4062 99.2812 23.2188C98.6562 24.0312 97.8958 24.7292 97 25.3125C96.1042 25.875 95.0938 26.2917 93.9688 26.5625C95.3229 26.9167 96.5521 27.4375 97.6562 28.125C98.7812 28.8125 99.7292 29.6458 100.5 30.625C101.292 31.6042 101.896 32.7083 102.312 33.9375C102.75 35.1667 102.969 36.4792 102.969 37.875ZM87.0938 20.0625C87.0938 19.4583 86.9688 18.9479 86.7188 18.5312C86.4688 18.0938 86.1562 17.7396 85.7812 17.4688C85.4271 17.1979 85.0312 17 84.5938 16.875C84.1771 16.75 83.8021 16.6875 83.4688 16.6875C83.0521 16.6875 82.6458 16.75 82.25 16.875C81.8542 17 81.4688 17.1458 81.0938 17.3125L80.9062 24.25C81.3854 24.25 81.9792 24.2083 82.6875 24.125C83.3958 24.0417 84.0729 23.8646 84.7188 23.5938C85.3854 23.3021 85.9479 22.8854 86.4062 22.3438C86.8646 21.7812 87.0938 21.0208 87.0938 20.0625ZM82.6562 30.25C82.0521 30.25 81.4688 30.3125 80.9062 30.4375L80.7812 37.5625C81.0938 37.625 81.3958 37.6875 81.6875 37.75C82 37.7917 82.3021 37.8125 82.5938 37.8125C83.0312 37.8125 83.5104 37.7708 84.0312 37.6875C84.5521 37.5833 85.0417 37.3958 85.5 37.125C85.9583 36.8333 86.3333 36.4479 86.625 35.9688C86.9375 35.4896 87.0938 34.8542 87.0938 34.0625C87.0938 33.2708 86.9375 32.625 86.625 32.125C86.3333 31.625 85.9688 31.2396 85.5312 30.9688C85.0938 30.6771 84.6146 30.4896 84.0938 30.4062C83.5729 30.3021 83.0938 30.25 82.6562 30.25ZM133.906 6.3125L132.781 19.5C132.177 19.3333 131.583 19.2188 131 19.1562C130.417 19.0938 129.823 19.0625 129.219 19.0625C127.74 19.0625 126.323 19.25 124.969 19.625C123.635 20 122.448 20.5729 121.406 21.3438C120.385 22.1146 119.562 23.0938 118.938 24.2812C118.333 25.4479 118.031 26.8333 118.031 28.4375C118.031 29.6042 118.198 30.625 118.531 31.5C118.885 32.3542 119.375 33.0729 120 33.6562C120.646 34.2188 121.417 34.6458 122.312 34.9375C123.229 35.2292 124.24 35.375 125.344 35.375C126.115 35.375 126.906 35.3021 127.719 35.1562C128.531 34.9896 129.344 34.7708 130.156 34.5C130.969 34.2292 131.75 33.9167 132.5 33.5625C133.25 33.2083 133.948 32.8333 134.594 32.4375L134.094 47.125C133.281 47.5417 132.406 47.9167 131.469 48.25C130.531 48.5625 129.562 48.8333 128.562 49.0625C127.583 49.3125 126.594 49.5 125.594 49.625C124.615 49.75 123.677 49.8125 122.781 49.8125C119.823 49.8125 117.125 49.2604 114.688 48.1562C112.271 47.0521 110.188 45.5521 108.438 43.6562C106.708 41.7396 105.365 39.5208 104.406 37C103.448 34.4792 102.969 31.7917 102.969 28.9375C102.969 25.5208 103.448 22.3333 104.406 19.375C105.385 16.4167 106.812 13.8542 108.688 11.6875C110.583 9.5 112.917 7.79167 115.688 6.5625C118.479 5.3125 121.677 4.6875 125.281 4.6875C126.719 4.6875 128.177 4.80208 129.656 5.03125C131.135 5.26042 132.552 5.6875 133.906 6.3125Z" fill="white"/>
</svg>
