<svg width="91" height="33" viewBox="0 0 91 33" fill="none" xmlns="http://www.w3.org/2000/svg">
<path d="M13.8008 30.7676C13.0977 30.7676 12.7051 31.3945 12.623 32.6484L12.3242 32.5957C12.3477 32.4082 12.3594 32.168 12.3594 31.875C12.3594 31.582 12.3125 31.3359 12.2188 31.1367C12.125 30.9375 12.0195 30.8379 11.9023 30.8379L10.8828 32.7188C11.0938 32.2617 11.2051 31.8398 11.2168 31.4531C11.2402 31.0547 11.082 30.7441 10.7422 30.5215H10.6016C10.4609 30.5684 10.3672 30.627 10.3203 30.6973L10.0566 31.0488C9.86914 31.2949 9.77539 31.5645 9.77539 31.8574C9.77539 32.1504 9.81055 32.5195 9.88086 32.9648L9.59961 33C9.45898 32.0508 9.23047 31.4531 8.91406 31.207C7.32031 29.8594 6.14258 29.1855 5.38086 29.1855C5.01758 29.1855 4.60742 29.4727 4.15039 30.0469L3.76367 29.6953C4.17383 29.1914 4.37891 28.8281 4.37891 28.6055C4.37891 28.3711 4.28516 28.084 4.09766 27.7441C3.91016 27.3926 3.81055 27.1465 3.79883 27.0059C3.79883 26.8652 3.60547 26.6074 3.21875 26.2324C2.83203 25.8574 2.59766 25.5938 2.51562 25.4414C2.43359 25.2773 2.27539 25.1953 2.04102 25.1953C1.81836 25.1953 1.47852 25.2539 1.02148 25.3711L0.951172 25.1074C1.74805 24.8965 2.16406 24.7441 2.19922 24.6504C2.23438 24.5566 2.25195 24.3516 2.25195 24.0352C2.25195 23.7188 1.99414 23.0801 1.47852 22.1191C0.962891 21.1582 0.705078 20.3555 0.705078 19.7109V14.5605C0.705078 13.752 0.921875 12.5625 1.35547 10.9922C1.78906 9.42188 2.00586 8.23828 2.00586 7.44141C2.00586 7.26562 1.92969 7.11328 1.77734 6.98438C1.625 6.84375 1.30273 6.66211 0.810547 6.43945L0.951172 6.10547C1.47852 6.32812 1.85938 6.43945 2.09375 6.43945C2.33984 6.43945 2.67969 6.15234 3.11328 5.57812C3.55859 5.00391 3.93945 4.44141 4.25586 3.89062C4.57227 3.33984 4.73047 3.04688 4.73047 3.01172C4.73047 2.74219 4.58984 2.32031 4.30859 1.74609L4.625 1.57031C4.89453 2.12109 5.10547 2.47266 5.25781 2.625C5.42188 2.76562 5.62109 2.83594 5.85547 2.83594H6.75195C6.93945 2.83594 7.09766 2.75977 7.22656 2.60742C7.36719 2.45508 7.4375 2.26172 7.4375 2.02734C7.4375 1.78125 7.37891 1.45898 7.26172 1.06055L7.61328 0.955078C7.78906 1.54102 7.93555 1.9043 8.05273 2.04492C8.18164 2.18555 8.36914 2.25586 8.61523 2.25586H11.1465C11.3926 2.25586 11.5684 2.23828 11.6738 2.20312C11.9316 2.09766 12.125 1.66992 12.2539 0.919922L12.8691 1.02539C12.8223 1.24805 12.7988 1.5 12.7988 1.78125C12.7988 2.46094 13.291 2.80078 14.2754 2.80078C14.416 2.80078 14.5391 2.72461 14.6445 2.57227C14.75 2.41992 14.8906 2.09766 15.0664 1.60547L15.3477 1.67578C15.1602 2.19141 15.0664 2.55469 15.0664 2.76562C15.0664 2.96484 15.1602 3.12305 15.3477 3.24023C15.5352 3.35742 15.7871 3.48047 16.1035 3.60938C16.4316 3.72656 16.7773 3.87305 17.1406 4.04883C18.043 4.49414 18.7578 5.17969 19.2852 6.10547C19.4023 6.26953 19.543 6.35156 19.707 6.35156H21.7637C21.9863 6.35156 22.168 6.28125 22.3086 6.14062C22.4609 6 22.6602 5.6543 22.9062 5.10352L23.2402 5.24414C22.9707 5.83008 22.8359 6.22266 22.8359 6.42188C22.8359 6.60938 22.9238 6.79688 23.0996 6.98438C23.2754 7.17188 23.4746 7.26562 23.6973 7.26562C23.9199 7.26562 24.2832 7.16602 24.7871 6.9668L24.9277 7.30078C24.2012 7.58203 23.7969 7.79297 23.7148 7.93359C23.6445 8.07422 23.6035 8.2207 23.5918 8.37305L23.4863 12.2578C23.4863 12.6328 23.8145 13.1367 24.4707 13.7695L24.2422 13.998C23.8203 13.5527 23.5039 13.2656 23.293 13.1367C23.082 13.0078 22.8594 12.9434 22.625 12.9434H22.5547C22.5312 12.9902 22.5195 13.1133 22.5195 13.3125C22.5195 13.5 22.7949 13.8105 23.3457 14.2441L23.0293 14.6836C22.5254 14.2734 22.1504 14.0684 21.9043 14.0684C21.6348 14.8418 21.3125 15.3223 20.9375 15.5098L20.4629 14.8945L20.1641 14.2617C19.9062 13.7227 19.7773 13.3125 19.7773 13.0312C19.7773 12.7383 19.7598 12.4512 19.7246 12.1699C19.6895 11.877 19.5898 11.5254 19.4258 11.1152C19.2617 10.6934 19.0449 10.3945 18.7754 10.2188C18.7285 10.1602 18.6289 10.0488 18.4766 9.88477C18.125 9.5332 17.8789 9.22266 17.7383 8.95312C17.4453 9.02344 17.0586 9.05859 16.5781 9.05859C16.1094 9.05859 15.6523 9.03516 15.207 8.98828H16.0332C16.1973 8.98828 16.332 8.94141 16.4375 8.84766C16.5547 8.75391 16.6133 8.5957 16.6133 8.37305C16.6133 8.15039 16.373 7.82812 15.8926 7.40625C15.4121 6.97266 15.0664 6.75586 14.8555 6.75586L12.1484 6.54492C11.3398 6.54492 10.6367 6.78516 10.0391 7.26562C9.41797 7.75781 8.9668 8.0332 8.68555 8.0918C8.4043 8.15039 8.22266 8.26758 8.14062 8.44336C8.07031 8.60742 7.87109 9.05273 7.54297 9.7793C6.76953 11.5371 6.38281 12.4395 6.38281 12.4863V19.7109C6.38281 20.8945 6.76367 22.0195 7.52539 23.0859C8.55664 24.5391 9.19531 25.541 9.44141 26.0918C9.51172 26.2324 9.88672 26.373 10.5664 26.5137C11.2461 26.6426 11.7207 26.707 11.9902 26.707C12.2715 26.707 12.4883 26.6309 12.6406 26.4785C12.793 26.3145 13.0039 26.0039 13.2734 25.5469L13.625 25.7578C13.2852 26.3555 13.1152 26.7656 13.1152 26.9883C13.1152 27.1992 13.2617 27.4512 13.5547 27.7441L13.3438 28.1484C13.8945 27.5859 14.5156 26.5547 15.207 25.0547C15.9102 23.543 16.2617 22.2773 16.2617 21.2578C16.2617 20.8242 15.7578 20.6074 14.75 20.6074C14.4219 20.6074 13.9004 20.9004 13.1855 21.4863L13.0098 21.293C13.4902 20.8945 13.7949 20.6016 13.9238 20.4141C14.0645 20.2148 14.1465 20.0156 14.1699 19.8164V19.7812C14.1699 18.6211 14.0996 17.666 13.959 16.916C13.8184 16.1543 13.4668 15.2402 12.9043 14.1738L13.0098 14.1035C13.6895 15.3691 14.416 16.1836 15.1895 16.5469C15.5293 16.6992 15.8633 16.8223 16.1914 16.916C17.0586 17.1738 17.7031 17.5312 18.125 17.9883C18.3125 17.918 18.6465 17.8828 19.127 17.8828C22.0098 17.8828 23.4512 18.4922 23.4512 19.7109C23.4512 20.8477 23.6094 21.5039 23.9258 21.6797C24.0898 21.7617 24.4707 21.8027 25.0684 21.8027V22.1719C24.4707 22.1719 24.0898 22.207 23.9258 22.2773C23.7617 22.3359 23.6504 22.4648 23.5918 22.6641V22.8398C23.5918 23.1211 23.8438 23.5781 24.3477 24.2109L24.1367 24.4043C23.7734 23.9121 23.498 23.6016 23.3105 23.4727C23.1348 23.3438 22.9414 23.2793 22.7305 23.2793H21.1484C20.8086 23.2793 20.627 23.4492 20.6035 23.7891C20.5098 24.832 20.1934 26.0859 19.6543 27.5508C19.1152 29.0156 18.5703 30.0996 18.0195 30.8027L17.9844 30.6621C17.9844 30.9316 18.0312 31.1836 18.125 31.418C18.2188 31.6406 18.459 32.0332 18.8457 32.5957L18.7051 32.7188C18.0254 31.6875 17.3281 31.084 16.6133 30.9082C16.332 30.8379 15.9863 30.8027 15.5762 30.8027H14.5215L13.8008 30.7676ZM10.8828 32.7188L10.7773 32.8945L10.8828 32.7188ZM29.7969 23.6836C30.6055 23.3086 31.0273 22.9922 31.0625 22.7344C31.0391 22.6523 30.9512 22.5352 30.7988 22.3828C30.1543 21.8906 29.8086 21.0469 29.7617 19.8516C29.7617 19.7344 29.7266 19.6406 29.6562 19.5703C29.0586 19.1133 28.666 18.6328 28.4785 18.1289C28.3027 17.625 28.1855 17.1621 28.127 16.7402C28.0449 16.1543 28.0039 15.457 28.0039 14.6484C28.0039 12 27.3887 10.2832 26.1582 9.49805L27.6699 7.19531C28.0566 7.5 28.6484 7.65234 29.4453 7.65234C30.2539 7.65234 30.9453 7.54688 31.5195 7.33594C31.543 6.52734 31.9121 5.95312 32.627 5.61328C32.9668 5.46094 33.3125 5.33789 33.6641 5.24414C34.8008 4.93945 35.6738 4.64648 36.2832 4.36523C36.9043 4.08398 37.4199 3.94336 37.8301 3.94336C38.9785 3.94336 40.168 4.3418 41.3984 5.13867C42.6289 5.92383 43.502 6.87305 44.0176 7.98633C44.3223 8.56055 44.9668 9.17578 45.9512 9.83203C46.7949 10.3828 47.2168 11.1094 47.2168 12.0117C47.2168 12.3516 47.3105 12.6973 47.498 13.0488C47.6855 13.3887 47.9316 13.5586 48.2363 13.5586C48.5527 13.5586 48.8984 13.4883 49.2734 13.3477L49.4141 13.7695C48.8867 13.9453 48.541 14.1035 48.377 14.2441C48.2246 14.373 48.1484 14.543 48.1484 14.7539L48.4824 18.4629C48.4824 19.2246 48.2188 20.25 47.6914 21.5391C47.0703 23.0977 46.7598 24.0352 46.7598 24.3516C46.7598 24.6562 46.8359 24.8848 46.9883 25.0371C47.1406 25.1777 47.4453 25.3594 47.9023 25.582L47.7266 25.9512C47.1875 25.7051 46.8066 25.582 46.584 25.582C46.373 25.582 46.2148 25.6406 46.1094 25.7578C46.0156 25.875 45.8105 26.1035 45.4941 26.4434C45.1895 26.7832 44.9961 27 44.9141 27.0938C44.832 27.1758 44.6562 27.3574 44.3867 27.6387C44.1172 27.9199 43.9121 28.1309 43.7715 28.2715C43.6426 28.4004 43.4668 28.582 43.2441 28.8164C42.9512 29.1094 42.6289 29.4082 42.2773 29.7129C41.9258 30.0176 41.75 30.2812 41.75 30.5039C41.75 30.7148 41.8438 31.0781 42.0312 31.5938L41.6797 31.7344C41.4688 31.1719 41.293 30.8203 41.1523 30.6797C41.0234 30.5273 40.8359 30.4512 40.5898 30.4512H40.4844C40.1562 30.4512 39.8926 30.5332 39.6934 30.6973C39.5059 30.8496 39.3125 31.207 39.1133 31.7695L38.5859 31.5586C38.75 31.0781 38.832 30.6914 38.832 30.3984C38.832 30.1055 38.6973 29.8828 38.4277 29.7305C38.1582 29.5781 37.8535 29.4902 37.5137 29.4668C36.5645 29.3965 35.9258 29.0391 35.5977 28.3945C35.5742 28.3359 35.5156 28.2188 35.4219 28.043C35.2227 27.7266 35.0879 27.4102 35.0176 27.0938C34.6074 27.0352 33.9277 26.8242 32.9785 26.4609C32.0293 26.0977 31.3496 25.8398 30.9395 25.6875L31.625 25.916C31.7656 25.9629 31.9062 25.9863 32.0469 25.9863C32.1992 25.9863 32.3457 25.916 32.4863 25.7754C32.6387 25.6348 32.7148 25.4531 32.7148 25.2305C32.7148 24.9961 32.5039 24.668 32.082 24.2461C31.6719 23.8125 31.3613 23.5957 31.1504 23.5957C30.9512 23.5957 30.5469 23.7188 29.9375 23.9648L29.7969 23.6836ZM33.2598 12.8027C33.0371 12.8027 32.9258 12.9492 32.9258 13.2422V14.8242C32.9258 15.2344 33.1367 15.9551 33.5586 16.9863C34.8242 20.1387 35.4805 22.2129 35.5273 23.209C35.5273 23.2793 35.5508 23.3613 35.5977 23.4551L35.9844 23.9648C36.1719 24.2227 36.377 24.3516 36.5996 24.3516C36.8223 24.3516 37.1562 24.2227 37.6016 23.9648L37.9355 24.4395C37.3145 24.8027 37.0039 25.125 37.0039 25.4062C37.0039 25.5586 37.0273 25.6816 37.0742 25.7754C37.1328 25.8574 37.1738 25.9336 37.1973 26.0039C37.2207 26.0742 37.2324 26.127 37.2324 26.1621C37.2441 26.1855 37.2617 26.2207 37.2852 26.2676C37.3203 26.3145 37.3555 26.3438 37.3906 26.3555C37.4961 26.4141 37.6016 26.4434 37.707 26.4434H37.9355C38.1934 26.4434 38.4102 26.5195 38.5859 26.6719C38.7617 26.8125 38.8672 26.8828 38.9023 26.8828H39.8691C39.9746 26.8828 40.0391 26.8711 40.0625 26.8477L40.625 26.5488C40.6484 26.5371 40.7422 26.3672 40.9062 26.0391C41.4688 24.9023 41.832 24.2402 41.9961 24.0527C42.1602 23.8652 42.2539 23.5957 42.2773 23.2441C42.3125 22.8926 42.3887 22.6758 42.5059 22.5938C42.5879 22.4297 42.6582 22.125 42.7168 21.6797C42.7871 21.2344 42.875 20.9355 42.9805 20.7832C43.0977 20.6309 43.1562 20.5137 43.1562 20.4316V16.4414C43.1562 14.9766 42.7695 14.2441 41.9961 14.2441C41.7383 14.2441 41.5215 14.2559 41.3457 14.2793L41.2754 13.8398C41.8262 13.7578 42.1777 13.6641 42.3301 13.5586C42.4941 13.4414 42.5879 13.2715 42.6113 13.0488C42.5879 12.9902 42.5059 12.8848 42.3652 12.7324C42.2363 12.5801 42.1719 12.3984 42.1719 12.1875L42.207 11.6953C42.207 11.5898 42.1191 11.4434 41.9434 11.2559C41.7676 11.0566 41.4863 10.5703 41.0996 9.79688C40.7246 9.01172 40.3906 8.45508 40.0977 8.12695C39.8398 8.26758 39.6816 8.66016 39.623 9.30469L38.8672 9.23438C38.8906 9.11719 38.9023 8.92969 38.9023 8.67188C38.9023 7.92188 38.4336 7.54688 37.4961 7.54688C37.3906 7.54688 37.0918 7.64648 36.5996 7.8457C36.1191 8.0332 35.8613 8.14453 35.8262 8.17969C35.8027 8.21484 35.7383 8.32617 35.6328 8.51367L35.3867 8.93555C35.2344 9.2168 35.1582 9.47461 35.1582 9.70898C35.1582 9.94336 35.5039 10.2539 36.1953 10.6406L36.0195 10.9395C35.4336 10.623 35.0527 10.4648 34.877 10.4648C34.7129 10.4648 34.5547 10.5762 34.4023 10.7988C34.2617 11.0098 34.1445 11.25 34.0508 11.5195C33.8164 12.2461 33.5527 12.6738 33.2598 12.8027ZM30.4121 25.4766L30.834 25.6523L30.4121 25.4766ZM30.834 25.6523C30.8809 25.6523 30.916 25.6641 30.9395 25.6875L30.834 25.6523ZM52.209 8.05664L50.627 7.98633C50.334 7.98633 49.8535 8.27344 49.1855 8.84766L49.0098 8.63672C49.4668 8.22656 49.7598 7.92188 49.8887 7.72266C50.0176 7.51172 50.082 7.29492 50.082 7.07227V5.78906C50.082 5.56641 50.0176 5.35547 49.8887 5.15625C49.7598 4.94531 49.4785 4.62891 49.0449 4.20703L49.2207 3.97852C49.9121 4.61133 50.4277 4.92773 50.7676 4.92773C51.6113 4.92773 52.8594 4.81055 54.5117 4.57617C56.1641 4.3418 57.2246 4.16602 57.6934 4.04883C58.1738 3.91992 58.4492 3.80273 58.5195 3.69727C58.5898 3.5918 58.625 3.35156 58.625 2.97656V2.43164L58.9062 2.39648C58.9062 2.5957 58.9121 2.76562 58.9238 2.90625C58.9355 3.03516 58.9414 3.15234 58.9414 3.25781C58.9531 3.36328 58.9766 3.45117 59.0117 3.52148C59.0469 3.58008 59.0703 3.63281 59.082 3.67969C59.0938 3.71484 59.1289 3.74414 59.1875 3.76758C59.2461 3.7793 59.2871 3.78516 59.3105 3.78516C59.4277 3.82031 59.5625 3.83789 59.7148 3.83789C59.8789 3.83789 60.2129 3.49219 60.7168 2.80078L60.8926 2.90625C60.4355 3.53906 60.207 3.96094 60.207 4.17188L60.4883 5.45508V5.75391C60.4883 5.96484 60.8047 6.39258 61.4375 7.03711L61.3145 7.16016C60.7168 6.48047 60.3125 6.14062 60.1016 6.14062L59.6621 6.10547C59.5684 6.10547 59.4512 6.12891 59.3105 6.17578L57.7988 7.47656C57.6699 7.57031 57.6055 7.69922 57.6055 7.86328C57.6055 8.02734 57.6172 8.23242 57.6406 8.47852C57.6641 8.72461 57.7109 9.04688 57.7812 9.44531C57.9219 10.3828 58.25 10.8516 58.7656 10.8516C58.9531 10.8516 59.2051 10.8164 59.5215 10.7461L59.627 11.3613C59.3691 11.4199 59.1582 11.4844 58.9941 11.5547C58.8418 11.625 58.7246 11.6777 58.6426 11.7129C58.5605 11.748 58.502 11.8359 58.4668 11.9766C58.4316 12.1055 58.4141 12.1875 58.4141 12.2227V12.5918C58.4141 12.873 58.502 13.0723 58.6777 13.1895C58.8535 13.2949 59.2578 13.3477 59.8906 13.3477V13.7344C59.293 13.7344 58.9121 13.7754 58.748 13.8574C58.5957 13.9395 58.502 14.1035 58.4668 14.3496C58.4316 14.5957 58.4141 14.9941 58.4141 15.5449L58.6602 22.998V23.7188C58.6602 23.8008 58.7129 23.9414 58.8184 24.1406C58.9238 24.3398 59.082 24.4395 59.293 24.4395C59.5039 24.4395 59.8672 24.3398 60.3828 24.1406L60.5234 24.5449C59.7383 24.8262 59.3457 25.1016 59.3457 25.3711C59.3457 25.4648 59.3574 25.5352 59.3809 25.582L59.5215 26.1973C59.5918 26.4551 59.7734 26.584 60.0664 26.584L61.8594 26.2676C62.082 26.1855 62.2578 26.0566 62.3867 25.8809C62.5156 25.6934 62.6621 25.3066 62.8262 24.7207L63.1602 24.791C63.0195 25.3652 62.9492 25.7637 62.9492 25.9863C62.9492 26.4434 63.125 26.6719 63.4766 26.6719H64.6719C65.0352 26.6719 65.5098 26.1504 66.0957 25.1074C66.6816 24.0527 66.9746 23.4023 66.9746 23.1562C66.9746 22.9102 66.6875 22.5176 66.1133 21.9785L66.3242 21.7676C66.8516 22.2949 67.2266 22.5586 67.4492 22.5586C68.1172 22.5586 68.7969 21.6562 69.4883 19.8516L69.5938 19.9043C69.2656 20.8418 69.1016 21.5098 69.1016 21.9082V25.4062C69.1016 25.9453 68.873 26.6836 68.416 27.6211C67.959 28.5469 67.7305 29.25 67.7305 29.7305C67.7305 30 68.0645 30.3691 68.7324 30.8379L68.5215 31.1367C67.9355 30.7031 67.5605 30.4863 67.3965 30.4863C67.2324 30.4863 67.0215 30.5566 66.7637 30.6973C66.5059 30.873 66.2773 31.4238 66.0781 32.3496L65.9023 32.3145C66.0195 31.7988 66.0781 31.4062 66.0781 31.1367C66.0781 30.8555 65.9785 30.5332 65.7793 30.1699C65.5801 29.7949 65.4629 29.5254 65.4277 29.3613C65.2285 29.4199 65.0879 29.5312 65.0059 29.6953C64.9238 29.8477 64.8828 30.123 64.8828 30.5215V30.7676H64.3027C64.291 30.1699 64.2207 29.7949 64.0918 29.6426C63.9746 29.4785 63.7344 29.3848 63.3711 29.3613C63.0078 29.3379 62.293 29.3262 61.2266 29.3262C60.1602 29.3262 59.334 29.4199 58.748 29.6074C58.1738 29.7832 57.3066 30.2051 56.1465 30.873C55.9941 30.9785 55.8828 31.125 55.8125 31.3125C55.7422 31.5 55.6719 31.8926 55.6016 32.4902L55.3379 32.4551C55.3965 32.1738 55.4258 31.8281 55.4258 31.418C55.4258 30.9961 55.2207 30.6855 54.8105 30.4863C54.6465 30.4863 54.2363 30.6152 53.5801 30.873L53.5098 30.6973C54.0605 30.4629 54.4004 30.2988 54.5293 30.2051C54.6699 30.0996 54.7402 29.9883 54.7402 29.8711V29.3613C54.7402 29.0098 54.7988 28.6406 54.916 28.2539C54.916 28.2305 54.834 28.166 54.6699 28.0605L54.9512 28.1836L55.3379 27.7793C55.4199 27.709 55.4609 27.6152 55.4609 27.498C55.4375 27.3809 55.3027 26.9941 55.0566 26.3379L55.2324 26.2676C55.4199 26.7715 55.6016 27.1582 55.7773 27.4277C55.8945 27.334 55.9531 27.2227 55.9531 27.0938C55.9531 26.9648 55.9121 26.8008 55.8301 26.6016C55.7598 26.3906 55.6953 25.9512 55.6367 25.2832C55.5781 24.6152 55.4785 24.0762 55.3379 23.666C55.1973 23.2441 54.957 23.0332 54.6172 23.0332C54.4531 23.0332 54.1895 23.0684 53.8262 23.1387L53.7207 22.5938C54.2363 22.5 54.5703 22.3945 54.7227 22.2773C54.875 22.1602 54.9512 22.002 54.9512 21.8027V21.5918C54.8809 21.0176 54.623 19.7109 54.1777 17.6719C53.7324 15.6328 53.498 14.1445 53.4746 13.207C53.4746 13.1836 53.3633 12.9492 53.1406 12.5039C52.9297 12.0469 52.8242 11.584 52.8242 11.1152L52.8594 9.7793C52.8594 8.63086 52.6426 8.05664 52.209 8.05664ZM81.9688 12.627C81.8867 12.2871 81.7695 12 81.6172 11.7656C81.4766 11.5312 81.166 11.1328 80.6855 10.5703L80.791 10.4648C81.6582 11.4961 82.3613 12.0703 82.9004 12.1875C83.1816 12.2578 83.5215 12.293 83.9199 12.293C84.3184 12.293 84.8574 11.9824 85.5371 11.3613L85.7129 11.5723C85.2676 12.0059 84.9805 12.3281 84.8516 12.5391C84.7344 12.75 84.6758 12.9727 84.6758 13.207V18.498C84.6758 18.7441 84.5996 19.0957 84.4473 19.5527C84.3066 20.0098 84.2363 20.3438 84.2363 20.5547C84.2363 20.7656 84.5879 21.123 85.291 21.627L85.0977 21.873C84.5352 21.4395 84.1309 21.2227 83.8848 21.2227C83.3574 21.2227 83.0938 21.7793 83.0938 22.8926C83.0938 23.4082 83.5859 23.8242 84.5703 24.1406L84.4648 24.4746C83.9258 24.2754 83.5273 24.1758 83.2695 24.1758C83.0234 24.1758 82.8477 24.2109 82.7422 24.2812C82.4609 24.4453 82.168 25.1074 81.8633 26.2676L81.6875 26.1973C81.875 25.5293 81.9688 25.0312 81.9688 24.7031C81.9688 24.3633 81.8105 23.9473 81.4941 23.4551C81.1777 22.9512 80.873 22.6992 80.5801 22.6992C80.2988 22.6992 79.9238 22.7871 79.4551 22.9629L79.3145 22.5234C79.877 22.3242 80.2285 22.1426 80.3691 21.9785C80.5215 21.8145 80.5977 21.5977 80.5977 21.3281V20.4316C80.5977 20.0801 80.4219 19.9043 80.0703 19.9043H78.0488C77.6855 19.9043 77.5039 20.0801 77.5039 20.4316V26.5137C77.5039 27.2051 77.8555 27.668 78.5586 27.9023C79.4023 28.1953 79.9355 28.4824 80.1582 28.7637C80.3926 29.0449 80.6211 29.25 80.8438 29.3789C81.0664 29.4961 81.4766 29.6602 82.0742 29.8711L82.0039 30.082C81.2422 29.8242 80.7148 29.6953 80.4219 29.6953L79.2441 29.9062C79.1738 29.9062 79.1094 29.8945 79.0508 29.8711L77.5039 29.6953C75.6875 29.6953 74.1758 29.918 72.9688 30.3633C72.2539 30.6328 71.8965 30.9609 71.8965 31.3477C71.8965 31.582 72.0488 31.9863 72.3535 32.5605L72.1426 32.6836C71.791 32.0273 71.5391 31.6641 71.3867 31.5938C70.9297 31.7227 70.7012 31.9863 70.7012 32.3848L70.2441 32.3496C71.4043 30.7559 72.541 29.6309 73.6543 28.9746C73.7012 28.8809 73.7246 28.8047 73.7246 28.7461V24.9668C73.7246 22.5645 73.5723 21.3633 73.2676 21.3633C73.0684 21.3633 72.7637 21.416 72.3535 21.5215L72.248 21.0117C72.7637 20.8828 73.0977 20.7539 73.25 20.625C73.4023 20.4961 73.4785 20.3262 73.4785 20.1152L73.3379 18.3047L73.0391 9.16406C73.0391 8.87109 72.8867 8.70703 72.582 8.67188L71.5977 8.4082C71.5508 8.38477 71.4805 8.37305 71.3867 8.37305C71.1289 8.37305 70.7949 8.71289 70.3848 9.39258L70.0859 9.19922C70.4258 8.68359 70.5957 8.30273 70.5957 8.05664C70.5957 7.5293 70.127 7.26562 69.1895 7.26562C69.0137 7.26562 68.4277 7.45312 67.4316 7.82812L67.3965 7.72266C68.2051 7.42969 68.6387 7.24805 68.6973 7.17773C68.7676 7.0957 68.8027 6.99023 68.8027 6.86133C68.8027 6.73242 68.6328 6.38672 68.293 5.82422L68.6621 5.56055C69.0605 6.19336 69.3828 6.50977 69.6289 6.50977C69.8281 6.50977 70.127 6.36328 70.5254 6.07031C70.9238 5.77734 71.1758 5.53125 71.2812 5.33203C71.3984 5.12109 71.5449 4.72266 71.7207 4.13672L71.9316 4.20703C71.7676 4.85156 71.6855 5.29688 71.6855 5.54297C71.6855 5.78906 71.75 5.99414 71.8789 6.1582C72.0078 6.32227 72.1953 6.43945 72.4414 6.50977C72.6875 6.58008 72.916 6.62695 73.127 6.65039C73.3379 6.67383 73.6074 6.69141 73.9355 6.70312C74.2637 6.70312 74.498 6.70898 74.6387 6.7207L80.1406 6.93164C80.5742 6.93164 81.2129 6.86133 82.0566 6.7207C82.9004 6.56836 83.3633 6.44531 83.4453 6.35156L83.7441 6.07031C83.9316 5.88281 84.0254 5.68359 84.0254 5.47266C84.0254 5.26172 83.8438 4.91016 83.4805 4.41797L83.8848 4.13672C84.248 4.73438 84.5527 5.0332 84.7988 5.0332C85.0449 5.0332 85.2734 4.96875 85.4844 4.83984C85.707 4.69922 85.8477 4.55859 85.9062 4.41797L84.8867 4.66406C85.168 4.58203 85.5195 4.45312 85.9414 4.27734C85.9414 3.94922 85.8535 3.57422 85.6777 3.15234L86.2227 2.97656C86.3867 3.45703 86.5449 3.7793 86.6973 3.94336C87.7051 3.46289 88.4199 2.93555 88.8418 2.36133L89.9668 3.15234C89.6621 3.58594 89.4219 4.14844 89.2461 4.83984C89.082 5.51953 89 6.13477 89 6.68555L89.0703 7.79297V11.4316C89.0703 11.666 89.1289 11.8887 89.2461 12.0996C89.375 12.3105 89.6504 12.6387 90.0723 13.084L89.8965 13.2773C89.4629 12.8438 89.1348 12.5684 88.9121 12.4512C88.7012 12.3223 88.4785 12.2578 88.2441 12.2578H87.2598C87.0137 12.2578 86.8086 12.3281 86.6445 12.4688C86.4805 12.6094 86.2578 12.9492 85.9766 13.4883L85.6426 13.3125C85.9824 12.7148 86.1523 12.3281 86.1523 12.1523C86.1523 11.9766 86.1055 11.7832 86.0117 11.5723L84.2715 8.84766C84.1895 8.76562 84.0957 8.70703 83.9902 8.67188L83.0586 8.47852L78.2246 8.70703C78.084 8.70703 77.9258 8.83594 77.75 9.09375C77.5859 9.33984 77.5039 9.52148 77.5039 9.63867V10.7461C77.5273 11.7773 77.5391 12.7266 77.5391 13.5938C77.5977 13.6641 77.6328 13.9688 77.6445 14.5078C77.7031 15.9844 77.9082 16.7227 78.2598 16.7227H80.5977C81.2305 16.7227 81.5469 16.0664 81.5469 14.7539V14.0332L81.9688 12.627ZM84.8867 4.66406C84.7461 4.71094 84.6523 4.73438 84.6055 4.73438L84.8867 4.66406Z" fill="white"/>
</svg>
