<svg width="128" height="79" viewBox="0 0 128 79" fill="none" xmlns="http://www.w3.org/2000/svg">
<path d="M21.1676 64.9512C23.7504 64.7326 26.2216 63.8016 28.3064 62.2616L32.1824 66.8616C29.2208 69.1362 25.6814 70.5362 21.9652 70.9032C18.2489 71.2702 14.5041 70.5892 11.1549 68.9378C7.80557 67.2862 4.98557 64.73 3.01415 61.5584C1.04271 58.3868 -0.00141157 54.7268 1.43225e-06 50.9924C0.00141443 47.2581 1.0483 43.5988 3.02213 40.4287C4.99597 37.2587 7.81791 34.7046 11.1684 33.0556C14.519 31.4066 18.2642 30.7285 21.9802 31.0983C25.6962 31.468 29.2344 32.8707 32.1944 35.1476L28.3164 39.7476C26.233 38.2057 23.7626 37.2725 21.18 37.0518C18.5976 36.8311 16.0046 37.3316 13.6898 38.4976C11.375 39.6635 9.42935 41.4492 8.06951 43.6557C6.70965 45.8622 5.98903 48.4028 5.98787 50.9947C5.98673 53.5866 6.70509 56.1278 8.06299 58.3356C9.42087 60.5432 11.365 62.3306 13.6787 63.4986C15.9925 64.6668 18.585 65.1696 21.1676 64.9512Z" fill="white"/>
<path d="M33.5586 65.6994L29.6826 61.0994H29.6886C31.054 59.7954 32.141 58.228 32.8836 56.492C33.626 54.756 34.009 52.8876 34.009 50.9994C34.009 49.1112 33.626 47.2427 32.8836 45.5067C32.141 43.7708 31.054 42.2034 29.6886 40.8993L33.5686 36.2993C35.598 38.1729 37.2174 40.4464 38.3248 42.9769C39.432 45.5072 40.0032 48.2395 40.0022 51.0016C40.0014 53.7636 39.4284 56.4956 38.3194 59.0252C37.2104 61.5548 35.5894 63.8272 33.5586 65.6994Z" fill="white"/>
<path d="M109.168 64.9512C111.75 64.7326 114.222 63.8016 116.306 62.2616L120.182 66.8616C117.221 69.1362 113.681 70.5362 109.965 70.9032C106.249 71.2702 102.504 70.5892 99.1549 68.9378C95.8056 67.2862 92.9856 64.73 91.0141 61.5584C89.0427 58.3868 87.9986 54.7268 88 50.9924C88.0014 47.2581 89.0483 43.5988 91.0221 40.4287C92.996 37.2587 95.8179 34.7046 99.1684 33.0556C102.519 31.4066 106.264 30.7285 109.98 31.0983C113.696 31.468 117.234 32.8707 120.194 35.1476L116.316 39.7476C114.233 38.2057 111.763 37.2725 109.18 37.0518C106.598 36.8311 104.005 37.3316 101.69 38.4976C99.375 39.6635 97.4293 41.4492 96.0695 43.6557C94.7096 45.8622 93.989 48.4028 93.9879 50.9947C93.9867 53.5866 94.7051 56.1278 96.063 58.3356C97.4209 60.5432 99.365 62.3306 101.679 63.4986C103.992 64.6668 106.585 65.1696 109.168 64.9512Z" fill="white"/>
<path d="M121.559 65.6994L117.683 61.0994H117.689C119.054 59.7954 120.141 58.228 120.884 56.492C121.626 54.756 122.009 52.8876 122.009 50.9994C122.009 49.1112 121.626 47.2427 120.884 45.5067C120.141 43.7708 119.054 42.2034 117.689 40.8993L121.569 36.2993C123.598 38.1729 125.217 40.4464 126.325 42.9769C127.432 45.5072 128.003 48.2395 128.002 51.0016C128.001 53.7636 127.428 56.4956 126.319 59.0252C125.21 61.5548 123.589 63.8272 121.559 65.6994Z" fill="white"/>
<path d="M95.625 28.0625L82.3125 31.875L61.9375 71.125L42.0625 30.1875L28.0625 28.1875L64.625 19.6875L53.125 27.75L64.8125 54.0625L77 30.75L65.75 23.3125L95.625 28.0625Z" fill="white"/>
</svg>
