<svg width="229" height="74" viewBox="0 0 229 74" fill="none" xmlns="http://www.w3.org/2000/svg">
<path d="M57.5625 16.3125L48.9375 21.1875L48.0625 42.625C47.9375 45.625 47.3958 48.2083 46.4375 50.375C45.5208 52.5417 44.2083 54.3125 42.5 55.6875C40.8333 57.0625 38.8125 58.0625 36.4375 58.6875C34.1042 59.3542 31.4792 59.6875 28.5625 59.6875C25.9792 59.6875 23.5833 59.2917 21.375 58.5C19.2083 57.7083 17.3333 56.5625 15.75 55.0625C14.2083 53.5625 13 51.75 12.125 49.625C11.25 47.5 10.8125 45.1042 10.8125 42.4375C10.8125 39.0625 10.875 35.6667 11 32.25C11.1667 28.7917 11.3125 25.3542 11.4375 21.9375L0.25 16.8125L31.625 19L23 22.625C22.9167 25.875 22.8333 29.1458 22.75 32.4375C22.7083 35.6875 22.6875 38.9375 22.6875 42.1875C22.6875 43.5625 22.875 44.9375 23.25 46.3125C23.625 47.6458 24.1875 48.8542 24.9375 49.9375C25.7292 50.9792 26.7083 51.8333 27.875 52.5C29.0417 53.1667 30.4167 53.5 32 53.5C33.6667 53.5 35.1667 53.2292 36.5 52.6875C37.875 52.1042 39.0208 51.3125 39.9375 50.3125C40.8542 49.3125 41.5417 48.125 42 46.75C42.5 45.3333 42.7292 43.8125 42.6875 42.1875C42.6875 42.1042 42.6875 42.1042 42.6875 42.1875C42.6875 42.2292 42.6875 42.1667 42.6875 42C42.6875 41.7917 42.6667 41.3542 42.625 40.6875C42.5833 40.0208 42.5208 38.9167 42.4375 37.375C42.3958 35.8333 42.3125 33.75 42.1875 31.125C42.1042 28.5 41.9792 25.1458 41.8125 21.0625L32 15.875L57.5625 16.3125ZM81.125 17.625L80.5625 23.5C78.5208 23.3333 76.5 23.1875 74.5 23.0625C72.5 22.8958 70.4792 22.7083 68.4375 22.5C68.1042 26.4583 67.75 30.3958 67.375 34.3125C67 38.2292 66.625 42.1667 66.25 46.125C66.25 46.3333 66.2292 46.5417 66.1875 46.75C66.1458 46.9583 66.125 47.1667 66.125 47.375C66.125 47.9583 66.1875 48.5625 66.3125 49.1875C66.4375 49.7708 66.6458 50.3125 66.9375 50.8125C67.2292 51.2708 67.6042 51.6667 68.0625 52C68.5625 52.2917 69.1667 52.4375 69.875 52.4375C71.25 52.4375 72.4583 52.125 73.5 51.5C74.5417 50.8333 75.4167 50 76.125 49C76.8333 48 77.3958 46.8958 77.8125 45.6875C78.2292 44.4375 78.5 43.2083 78.625 42C79.125 43.9583 79.375 45.8958 79.375 47.8125C79.375 49.6458 79.0833 51.3125 78.5 52.8125C77.9167 54.2708 77.1042 55.5417 76.0625 56.625C75.0208 57.6667 73.7708 58.4792 72.3125 59.0625C70.8542 59.6458 69.25 59.9375 67.5 59.9375C65.6667 59.9375 64.0625 59.625 62.6875 59C61.3125 58.375 60.1667 57.5208 59.25 56.4375C58.375 55.3125 57.7083 54 57.25 52.5C56.8333 51 56.625 49.3958 56.625 47.6875C56.625 47.3542 56.625 47.0417 56.625 46.75C56.625 46.4583 56.6458 46.1458 56.6875 45.8125C57.0208 41.7708 57.3333 37.7917 57.625 33.875C57.9583 29.9167 58.25 25.9167 58.5 21.875C57.375 21.7917 56.25 21.7083 55.125 21.625C54.0417 21.5 52.9375 21.375 51.8125 21.25L52.0625 16.3125C52.9375 16.2708 53.8542 16.125 54.8125 15.875C55.7708 15.625 56.6875 15.2917 57.5625 14.875C58.4792 14.4583 59.3125 13.9583 60.0625 13.375C60.8542 12.7917 61.5 12.125 62 11.375C62.4583 10.625 62.875 9.8125 63.25 8.9375C63.6667 8.0625 64.0208 7.14583 64.3125 6.1875C64.6458 5.22917 64.9167 4.29167 65.125 3.375C65.3333 2.41667 65.4792 1.5 65.5625 0.625L70.6875 0.75L69.0625 16.375L81.125 17.625ZM123.375 42.875C123.375 45.75 122.646 48.1875 121.188 50.1875C119.771 52.1458 117.938 53.75 115.688 55C113.479 56.2083 111.062 57.1042 108.438 57.6875C105.812 58.2292 103.312 58.5 100.938 58.5C98.6042 58.5 96.1667 58.2083 93.625 57.625C91.125 57.0417 88.8125 56.125 86.6875 54.875C84.6042 53.625 82.875 52.0208 81.5 50.0625C80.1667 48.0625 79.5 45.6667 79.5 42.875C79.5 39.8333 80.2292 37.3125 81.6875 35.3125C83.1458 33.3125 84.9792 31.7292 87.1875 30.5625C89.4375 29.3958 91.8958 28.5833 94.5625 28.125C97.2708 27.6667 99.875 27.4375 102.375 27.4375C104.667 27.4375 107.042 27.7292 109.5 28.3125C112 28.8958 114.271 29.8125 116.312 31.0625C118.396 32.2708 120.083 33.8542 121.375 35.8125C122.708 37.7708 123.375 40.125 123.375 42.875ZM113.062 42.75C113.062 41.25 112.771 39.875 112.188 38.625C111.646 37.375 110.875 36.2917 109.875 35.375C108.917 34.4583 107.792 33.75 106.5 33.25C105.208 32.75 103.833 32.5 102.375 32.5C100.875 32.5 99.375 32.7292 97.875 33.1875C96.375 33.6042 95.0208 34.2292 93.8125 35.0625C92.6042 35.8958 91.625 36.9583 90.875 38.25C90.125 39.5 89.75 40.9375 89.75 42.5625C89.75 44.1875 90 45.6667 90.5 47C91.0417 48.3333 91.7917 49.4792 92.75 50.4375C93.75 51.3958 94.9167 52.1458 96.25 52.6875C97.5833 53.1875 99.0625 53.4375 100.688 53.4375C102.438 53.4375 104.062 53.25 105.562 52.875C107.062 52.4583 108.375 51.8125 109.5 50.9375C110.625 50.0625 111.5 48.9583 112.125 47.625C112.75 46.25 113.062 44.625 113.062 42.75ZM167.125 41.8125C167.125 44.1458 166.625 46.2292 165.625 48.0625C164.667 49.8958 163.375 51.4375 161.75 52.6875C160.167 53.9375 158.333 54.8958 156.25 55.5625C154.208 56.2292 152.104 56.5625 149.938 56.5625C148.146 56.5625 146.354 56.4375 144.562 56.1875C142.812 55.8958 141.104 55.4375 139.438 54.8125L139.625 67L152.562 72.25L116.875 73.6875L130.812 67.4375C130.729 65.8958 130.625 64.1667 130.5 62.25C130.417 60.375 130.312 58.4167 130.188 56.375C130.062 54.3333 129.938 52.2708 129.812 50.1875C129.688 48.1042 129.562 46.0833 129.438 44.125C129.146 39.5833 128.854 34.9375 128.562 30.1875L113.75 25.125L139.312 22.3125V28.4375C142.271 27.6042 145.25 27.1875 148.25 27.1875C150.5 27.1875 152.729 27.4583 154.938 28C157.188 28.5417 159.208 29.3958 161 30.5625C162.833 31.7292 164.312 33.25 165.438 35.125C166.562 36.9583 167.125 39.1875 167.125 41.8125ZM157.625 41.3125C157.625 39.6875 157.271 38.3125 156.562 37.1875C155.854 36.0625 154.938 35.1458 153.812 34.4375C152.688 33.6875 151.417 33.1458 150 32.8125C148.625 32.4792 147.25 32.3125 145.875 32.3125C144.75 32.3125 143.625 32.4583 142.5 32.75C141.417 33 140.375 33.3542 139.375 33.8125V49.1875C140.583 49.7708 141.917 50.2083 143.375 50.5C144.833 50.7917 146.229 50.9375 147.562 50.9375C149.021 50.9375 150.354 50.7292 151.562 50.3125C152.812 49.8542 153.875 49.2083 154.75 48.375C155.667 47.5417 156.375 46.5417 156.875 45.375C157.375 44.1667 157.625 42.8125 157.625 41.3125ZM184.438 13.8125C184.438 14.7292 184.25 15.6042 183.875 16.4375C183.542 17.2292 183.062 17.9375 182.438 18.5625C181.854 19.1458 181.146 19.625 180.312 20C179.521 20.3333 178.667 20.5 177.75 20.5C176.833 20.5 175.979 20.3333 175.188 20C174.396 19.625 173.688 19.1458 173.062 18.5625C172.479 17.9375 172 17.2292 171.625 16.4375C171.292 15.6042 171.125 14.7292 171.125 13.8125C171.125 12.8958 171.292 12.0417 171.625 11.25C172 10.4583 172.479 9.77083 173.062 9.1875C173.688 8.5625 174.396 8.08333 175.188 7.75C175.979 7.375 176.833 7.1875 177.75 7.1875C178.667 7.1875 179.521 7.375 180.312 7.75C181.146 8.08333 181.854 8.5625 182.438 9.1875C183.062 9.77083 183.542 10.4583 183.875 11.25C184.25 12.0417 184.438 12.8958 184.438 13.8125ZM191.75 58.125L163.75 57.625L174.125 51.1875L173.25 30.4375L161.312 24.8125H184.25L182.188 51.625L191.75 58.125ZM228.25 58.625L208.438 59.4375L208.875 55.9375C207.542 56.1042 206.208 56.2083 204.875 56.25C203.542 56.25 202.208 56.25 200.875 56.25C199.667 56.25 198.333 56.1042 196.875 55.8125C195.417 55.5208 194.062 55.0625 192.812 54.4375C191.562 53.7708 190.521 52.9167 189.688 51.875C188.854 50.8333 188.438 49.5625 188.438 48.0625C188.438 46.3958 188.833 44.9792 189.625 43.8125C190.417 42.6458 191.417 41.7083 192.625 41C193.875 40.2917 195.25 39.7708 196.75 39.4375C198.25 39.1042 199.708 38.9375 201.125 38.9375C202.875 38.9375 204.583 39.0208 206.25 39.1875C207.917 39.3542 209.604 39.5 211.312 39.625C211.396 39.0833 211.458 38.5417 211.5 38C211.542 37.4167 211.562 36.8333 211.562 36.25C211.562 35.125 211.458 34.0208 211.25 32.9375C211.083 31.8542 210.75 30.8958 210.25 30.0625C209.792 29.1875 209.125 28.5 208.25 28C207.417 27.5 206.333 27.25 205 27.25C203.75 27.25 202.604 27.4583 201.562 27.875C200.562 28.25 199.667 28.9167 198.875 29.875C199.458 30.3333 199.854 30.8542 200.062 31.4375C200.271 31.9792 200.375 32.6042 200.375 33.3125V33.6875C199.75 36.6042 197.917 38.0625 194.875 38.0625C193.5 38.0625 192.375 37.5833 191.5 36.625C190.625 35.625 190.188 34.4583 190.188 33.125C190.188 31.2917 190.708 29.7083 191.75 28.375C192.792 27.0417 194.062 25.9375 195.562 25.0625C197.104 24.1875 198.75 23.5417 200.5 23.125C202.292 22.7083 203.938 22.5 205.438 22.5C210.229 22.5 213.958 23.6042 216.625 25.8125C219.333 28.0208 220.688 31.625 220.688 36.625C220.688 37.1667 220.667 37.7083 220.625 38.25C220.625 38.7917 220.604 39.3333 220.562 39.875L219.062 54.25C220.646 54.9583 222.188 55.6875 223.688 56.4375C225.188 57.1875 226.708 57.9167 228.25 58.625ZM210.625 43.8125C209.542 43.6875 208.458 43.5625 207.375 43.4375C206.292 43.2708 205.208 43.1875 204.125 43.1875C203.417 43.1875 202.708 43.2708 202 43.4375C201.333 43.5625 200.708 43.7917 200.125 44.125C199.583 44.4583 199.146 44.9167 198.812 45.5C198.479 46.0417 198.312 46.7292 198.312 47.5625C198.312 48.1875 198.458 48.75 198.75 49.25C199.042 49.7083 199.417 50.1042 199.875 50.4375C200.375 50.7708 200.896 51.0208 201.438 51.1875C202.021 51.3542 202.583 51.4375 203.125 51.4375C204.208 51.4375 205.292 51.375 206.375 51.25C207.5 51.125 208.583 51 209.625 50.875L210.625 43.8125Z" fill="white"/>
</svg>
