<svg width="134" height="63" viewBox="0 0 134 63" fill="none" xmlns="http://www.w3.org/2000/svg">
<path d="M28.5156 21.6484C28.3073 22.1693 28.0729 22.599 27.8125 22.9375C27.5781 23.276 27.3047 23.6146 26.9922 23.9531C26.6797 24.2656 26.3281 24.6302 25.9375 25.0469C25.5469 25.4375 25.1172 25.9583 24.6484 26.6094L24.5703 26.6484C24.3359 27.1172 24.0365 27.5729 23.6719 28.0156C23.4115 28.3542 23.2552 28.6016 23.2031 28.7578C23.151 28.888 23.099 29.0182 23.0469 29.1484C23.0208 29.2526 22.9427 29.3698 22.8125 29.5C22.7083 29.6302 22.4609 29.8385 22.0703 30.125C21.862 30.3073 21.6536 30.4896 21.4453 30.6719C21.237 30.8542 21.0417 31.0625 20.8594 31.2969C20.8594 31.375 20.8464 31.4922 20.8203 31.6484C20.7943 31.8047 20.7552 31.987 20.7031 32.1953C20.6771 32.3776 20.638 32.5599 20.5859 32.7422C20.5339 32.9245 20.4948 33.0677 20.4688 33.1719C20.3385 33.6667 20.2214 34.1745 20.1172 34.6953C20.0391 35.2161 20.026 35.737 20.0781 36.2578C20.1042 36.3099 20.1302 36.4271 20.1562 36.6094C20.1823 36.7656 20.2083 36.8698 20.2344 36.9219L20.1953 37C19.7526 37.9115 19.401 38.875 19.1406 39.8906C18.9062 40.9323 18.7891 41.974 18.7891 43.0156H18.75C18.4896 43.6146 18.2552 44.2656 18.0469 44.9688C17.8646 45.6719 17.7734 46.362 17.7734 47.0391C17.6953 47.1172 17.6172 47.1953 17.5391 47.2734C17.487 47.3516 17.3958 47.4297 17.2656 47.5078C17.1615 47.5859 17.0443 47.6901 16.9141 47.8203C16.7839 47.9505 16.7839 48.1068 16.9141 48.2891C17.0443 48.6016 17.1484 48.888 17.2266 49.1484C16.9401 49.2526 16.7578 49.3828 16.6797 49.5391C16.6276 49.6953 16.6016 49.8516 16.6016 50.0078C16.6016 50.1901 16.5885 50.3594 16.5625 50.5156C16.5365 50.6979 16.4453 50.8542 16.2891 50.9844V51.0625C16.2891 51.4792 16.2109 51.8177 16.0547 52.0781C15.9245 52.3646 15.7682 52.612 15.5859 52.8203C15.4036 53.0547 15.2344 53.2891 15.0781 53.5234C14.9479 53.7578 14.8828 54.0573 14.8828 54.4219V54.5781L14.9219 54.6562L14.8828 54.7344C14.388 55.6979 13.75 56.6094 12.9688 57.4688C12.6302 57.8333 12.2526 58.276 11.8359 58.7969C11.4453 59.3177 11.224 59.8385 11.1719 60.3594C11.1458 60.3594 11.1198 60.3464 11.0938 60.3203C11.0677 60.3203 11.0286 60.3203 10.9766 60.3203C10.6901 60.3203 10.4036 60.4245 10.1172 60.6328C9.83073 60.8672 9.53125 61.0885 9.21875 61.2969C8.90625 61.5312 8.56771 61.7005 8.20312 61.8047C7.86458 61.9089 7.5 61.8438 7.10938 61.6094L7.07031 61.5703L6.99219 61.6094C6.60156 61.8177 6.19792 61.9089 5.78125 61.8828C5.36458 61.8568 4.96094 61.7656 4.57031 61.6094C4.15365 61.4531 3.76302 61.2448 3.39844 60.9844C3.03385 60.724 2.69531 60.4635 2.38281 60.2031C1.91406 59.8125 1.5625 59.3177 1.32812 58.7188C1.09375 58.1458 0.950521 57.5599 0.898438 56.9609C0.846354 56.7526 0.833333 56.5312 0.859375 56.2969C0.885417 56.0885 0.885417 55.8802 0.859375 55.6719L0.46875 55.5547L0.703125 55.0859H0.664062C0.638021 55.0859 0.611979 55.0729 0.585938 55.0469C0.299479 54.8125 0.169271 54.5391 0.195312 54.2266C0.221354 53.9141 0.299479 53.6016 0.429688 53.2891C0.559896 52.9766 0.677083 52.6641 0.78125 52.3516C0.885417 52.0391 0.859375 51.7526 0.703125 51.4922C0.755208 51.4401 0.78125 51.401 0.78125 51.375C1.04167 51.0104 1.26302 50.6328 1.44531 50.2422C1.6276 49.8516 1.8099 49.4609 1.99219 49.0703C2.07031 48.9141 2.1875 48.6927 2.34375 48.4062C2.47396 48.1198 2.63021 47.8203 2.8125 47.5078C2.96875 47.1953 3.125 46.9089 3.28125 46.6484C3.4375 46.388 3.56771 46.2057 3.67188 46.1016C3.80208 45.9714 3.89323 45.8281 3.94531 45.6719C3.97135 45.5156 4.01042 45.3594 4.0625 45.2031C4.14062 44.8385 4.25781 44.5 4.41406 44.1875C4.54427 43.901 4.81771 43.7318 5.23438 43.6797H5.3125L5.35156 43.6016C5.92448 42.7422 6.5625 41.8958 7.26562 41.0625C7.99479 40.2292 8.77604 39.513 9.60938 38.9141H9.64844V38.875C9.80469 38.5365 10.026 38.1849 10.3125 37.8203C10.625 37.4557 10.9375 37.1042 11.25 36.7656C11.5625 36.401 11.849 36.0755 12.1094 35.7891C12.3698 35.5026 12.5391 35.2552 12.6172 35.0469C12.7995 35.099 12.9557 35.0339 13.0859 34.8516C13.2161 34.6432 13.3464 34.4219 13.4766 34.1875C13.6328 33.9531 13.8021 33.7448 13.9844 33.5625C14.1667 33.3802 14.4141 33.3021 14.7266 33.3281C15.0391 32.7031 15.3646 32.2083 15.7031 31.8438C16.0417 31.4792 16.4714 31.1016 16.9922 30.7109C17.0443 30.6589 17.0703 30.6328 17.0703 30.6328C17.1224 30.3464 17.2266 30.125 17.3828 29.9688C17.5391 29.8125 17.6823 29.6823 17.8125 29.5781C17.9688 29.4479 18.0729 29.3047 18.125 29.1484C18.1771 28.9922 18.125 28.7578 17.9688 28.4453C18.2552 27.9245 18.2031 27.3906 17.8125 26.8438C17.4479 27.1823 17.1094 27.5339 16.7969 27.8984C16.4844 28.263 16.0286 28.4453 15.4297 28.4453C15.2474 28.5755 15.1042 28.7057 15 28.8359C14.9219 28.9661 14.8307 29.0833 14.7266 29.1875C14.6224 29.2917 14.4922 29.3828 14.3359 29.4609C14.1797 29.513 13.9453 29.5391 13.6328 29.5391V29.2266L13.4766 29.1484C13.2943 29.2526 13.0469 29.4089 12.7344 29.6172C12.0573 30.0078 11.4323 30.3464 10.8594 30.6328C10.2865 30.8932 9.58333 31.0234 8.75 31.0234C8.75 30.6068 8.52865 30.3594 8.08594 30.2812C8.03385 30.4635 7.98177 30.6198 7.92969 30.75C7.8776 30.8542 7.78646 30.9714 7.65625 31.1016C7.31771 30.7891 7.01823 30.4635 6.75781 30.125C6.4974 29.7604 6.25 29.3698 6.01562 28.9531C5.96354 28.875 5.8724 28.7318 5.74219 28.5234C5.63802 28.3151 5.50781 28.1068 5.35156 27.8984C5.22135 27.6901 5.09115 27.5078 4.96094 27.3516C4.83073 27.1693 4.71354 27.0651 4.60938 27.0391C4.60938 26.3099 4.60938 25.6328 4.60938 25.0078C4.60938 24.3828 4.63542 23.7708 4.6875 23.1719C4.71354 22.5469 4.77865 21.9349 4.88281 21.3359C4.96094 20.7109 5.10417 20.0339 5.3125 19.3047C5.33854 19.2786 5.32552 19.2266 5.27344 19.1484C5.2474 18.9922 5.2474 18.7969 5.27344 18.5625C5.32552 18.3281 5.3776 18.0938 5.42969 17.8594C5.50781 17.599 5.59896 17.3646 5.70312 17.1562C5.80729 16.9219 5.89844 16.7266 5.97656 16.5703C6.05469 15.9714 6.13281 15.3594 6.21094 14.7344C6.28906 14.1094 6.34115 13.4974 6.36719 12.8984C6.47135 12.9245 6.5625 12.9635 6.64062 13.0156C6.74479 13.0417 6.83594 13.0807 6.91406 13.1328C7.1224 12.1432 7.38281 11.1797 7.69531 10.2422C8.00781 9.30469 8.35938 8.38021 8.75 7.46875C8.95833 6.97396 9.17969 6.47917 9.41406 5.98438C9.64844 5.46354 9.83073 4.94271 9.96094 4.42188V4.38281C10.0391 4.27865 10.1823 4.17448 10.3906 4.07031C10.625 3.96615 10.8073 3.9401 10.9375 3.99219C11.0938 4.04427 11.224 4.14844 11.3281 4.30469C11.4323 4.4349 11.5104 4.59115 11.5625 4.77344C11.6406 4.92969 11.7057 5.08594 11.7578 5.24219C11.8359 5.39844 11.9401 5.5026 12.0703 5.55469L12.5 5.71094C12.4479 5.76302 12.3828 5.80208 12.3047 5.82812C12.2266 5.85417 12.1615 5.89323 12.1094 5.94531C11.7708 6.20573 11.5625 6.60938 11.4844 7.15625C11.4062 7.67708 11.3672 8.14583 11.3672 8.5625L11.3281 8.60156C11.1458 9.35677 10.9115 10.0599 10.625 10.7109C10.3385 11.3359 10.0651 11.9609 9.80469 12.5859C9.54427 13.2109 9.32292 13.862 9.14062 14.5391C8.95833 15.1901 8.89323 15.9323 8.94531 16.7656C8.97135 17.1042 8.94531 17.4297 8.86719 17.7422C8.78906 18.0547 8.69792 18.3802 8.59375 18.7188C8.48958 19.0312 8.38542 19.3568 8.28125 19.6953C8.20312 20.0078 8.16406 20.3333 8.16406 20.6719C8.08594 20.9062 7.99479 21.0755 7.89062 21.1797C7.78646 21.2839 7.76042 21.5573 7.8125 22C7.86458 22.2604 7.90365 22.5729 7.92969 22.9375C7.98177 23.276 7.91667 23.5625 7.73438 23.7969V23.8359H7.69531C7.53906 24.4349 7.48698 25.0729 7.53906 25.75C7.59115 26.4271 7.83854 27 8.28125 27.4688C8.54167 27.7552 8.76302 27.8854 8.94531 27.8594C9.1276 27.8073 9.32292 27.7161 9.53125 27.5859C9.73958 27.4297 9.96094 27.2865 10.1953 27.1562C10.4557 27 10.7682 26.9479 11.1328 27H11.2109L11.25 26.9609C11.6146 26.6745 11.9661 26.4792 12.3047 26.375C12.6693 26.2448 13.0078 26.1146 13.3203 25.9844C13.6589 25.8542 13.9714 25.6849 14.2578 25.4766C14.5703 25.2422 14.8438 24.8906 15.0781 24.4219C15.3906 24.5781 15.638 24.6172 15.8203 24.5391C16.0286 24.4609 16.2109 24.3438 16.3672 24.1875C16.5234 24.0312 16.6927 23.875 16.875 23.7188C17.0833 23.5625 17.3438 23.4844 17.6562 23.4844C17.6302 23.25 17.7214 22.8333 17.9297 22.2344C18.1641 21.6094 18.4245 20.9453 18.7109 20.2422C18.9974 19.5391 19.2839 18.862 19.5703 18.2109C19.8568 17.5599 20.0521 17.0651 20.1562 16.7266L20.2734 16.6875C20.612 16.6094 20.7682 16.401 20.7422 16.0625L20.5469 15.2812C20.5208 15.125 20.5208 15.0078 20.5469 14.9297C20.5729 14.8516 20.625 14.7474 20.7031 14.6172C20.8594 14.2526 20.9766 13.849 21.0547 13.4062C21.1328 12.9635 21.2109 12.5599 21.2891 12.1953C21.3672 11.7005 21.4583 11.2057 21.5625 10.7109C21.6927 10.2161 21.862 9.7474 22.0703 9.30469L22.1484 9.14844L21.7969 8.99219C22.1875 8.60156 22.4609 8.22396 22.6172 7.85938C22.7734 7.49479 22.8776 7.13021 22.9297 6.76562C23.0078 6.40104 23.0729 6.03646 23.125 5.67188C23.2031 5.30729 23.3594 4.94271 23.5938 4.57812C23.6719 4.47396 23.7109 4.39583 23.7109 4.34375L23.8672 4.42188C23.9453 4.10938 24.0495 3.875 24.1797 3.71875C24.3359 3.53646 24.5052 3.39323 24.6875 3.28906C24.8698 3.15885 25.0521 3.05469 25.2344 2.97656C25.4427 2.8724 25.638 2.71615 25.8203 2.50781C26.0286 2.5599 26.224 2.58594 26.4062 2.58594C26.6146 2.58594 26.8099 2.61198 26.9922 2.66406C27.0703 2.82031 27.1094 2.98958 27.1094 3.17188C27.1094 3.35417 27.0964 3.54948 27.0703 3.75781C27.0703 3.9401 27.0703 4.1224 27.0703 4.30469C27.0964 4.46094 27.1484 4.59115 27.2266 4.69531C27.3307 4.7474 27.3958 4.78646 27.4219 4.8125C27.1875 5.04688 27.0052 5.4375 26.875 5.98438C26.7448 6.53125 26.6536 6.97396 26.6016 7.3125C26.5495 7.625 26.4974 7.9375 26.4453 8.25C26.4193 8.5625 26.3542 8.86198 26.25 9.14844C26.1979 9.27865 26.1328 9.38281 26.0547 9.46094C26.0026 9.53906 25.9635 9.64323 25.9375 9.77344C25.651 10.6849 25.3776 11.6224 25.1172 12.5859C24.8568 13.5495 24.401 14.4089 23.75 15.1641V15.2031C23.4635 15.8021 23.1901 16.388 22.9297 16.9609C22.6693 17.5339 22.6042 18.1589 22.7344 18.8359C22.7604 18.9141 22.7734 18.9922 22.7734 19.0703C22.7995 19.1224 22.8125 19.1875 22.8125 19.2656L22.5 19.3047V19.3828L22.4219 19.5391V19.6172L22.3828 19.6953C22.5651 19.8255 22.6432 19.9688 22.6172 20.125C22.5911 20.2552 22.526 20.3854 22.4219 20.5156C22.3438 20.6458 22.2526 20.776 22.1484 20.9062C22.0443 21.0365 21.9922 21.1536 21.9922 21.2578V21.3359L22.0312 21.375C22.0052 21.7396 21.9661 22.1432 21.9141 22.5859C21.862 23.0026 21.7708 23.3932 21.6406 23.7578L21.6016 23.7969C21.7057 24.0312 21.7578 24.2526 21.7578 24.4609C21.7578 24.6693 21.7318 24.8776 21.6797 25.0859C21.6536 25.2682 21.6146 25.4635 21.5625 25.6719C21.5365 25.8802 21.5234 26.1016 21.5234 26.3359L21.9922 26.1016C21.9922 25.7109 22.1094 25.4245 22.3438 25.2422C22.6042 25.0599 22.8906 24.9167 23.2031 24.8125C23.5417 24.6823 23.8542 24.5651 24.1406 24.4609C24.4531 24.3307 24.6615 24.1615 24.7656 23.9531H24.8047C24.8828 23.7969 24.9479 23.6406 25 23.4844C25.0781 23.3021 25.1562 23.1458 25.2344 23.0156C25.4427 23.0156 25.6771 22.9245 25.9375 22.7422C26.1979 22.5339 26.4583 22.2995 26.7188 22.0391C26.9792 21.7526 27.2266 21.4661 27.4609 21.1797C27.6953 20.8932 27.9036 20.6589 28.0859 20.4766L28.125 20.4375C28.3073 20.4115 28.4375 20.4375 28.5156 20.5156C28.5938 20.5938 28.6328 20.6979 28.6328 20.8281C28.6589 20.9583 28.6589 21.1016 28.6328 21.2578C28.6068 21.388 28.5807 21.5052 28.5547 21.6094L28.5156 21.6484ZM16.4844 35.125C16.1198 35.4896 15.8073 35.8411 15.5469 36.1797C15.2865 36.4922 15.013 36.7917 14.7266 37.0781C14.4401 37.3906 14.1276 37.6901 13.7891 37.9766C13.4505 38.263 13.0339 38.5234 12.5391 38.7578L12.4609 38.7969C12.4609 39.0573 12.4089 39.2396 12.3047 39.3438C12.2005 39.474 12.0833 39.5911 11.9531 39.6953C11.8229 39.7995 11.7057 39.9036 11.6016 40.0078C11.4974 40.112 11.4453 40.2682 11.4453 40.4766C11.3932 40.5286 11.3411 40.6068 11.2891 40.7109C11.237 40.8151 11.1719 40.9062 11.0938 40.9844C11.0156 41.0625 10.9245 41.1146 10.8203 41.1406C10.7422 41.1927 10.651 41.1927 10.5469 41.1406C10.3385 41.349 10.1042 41.6224 9.84375 41.9609C9.58333 42.3255 9.34896 42.638 9.14062 42.8984C8.54167 43.5755 7.94271 44.2656 7.34375 44.9688C6.74479 45.6979 6.22396 46.4661 5.78125 47.2734L5.50781 47.1953C5.3776 47.3255 5.28646 47.4297 5.23438 47.5078C5.18229 47.5859 5.03906 47.6771 4.80469 47.7812H4.72656L3.39844 51.375L3.4375 51.4531C3.46354 51.7396 3.4375 51.987 3.35938 52.1953C3.28125 52.4297 3.20312 52.651 3.125 52.8594C3.04688 53.0938 3.00781 53.3281 3.00781 53.5625C2.98177 53.7969 3.04688 54.0703 3.20312 54.3828L3.16406 54.4609C3.03385 54.7474 2.95573 55.0208 2.92969 55.2812C2.90365 55.5417 2.91667 55.763 2.96875 55.9453C2.99479 56.1536 3.03385 56.3229 3.08594 56.4531C3.11198 56.6094 3.125 56.7005 3.125 56.7266C3.22917 56.7526 3.35938 56.8177 3.51562 56.9219C3.48958 57.0781 3.42448 57.2214 3.32031 57.3516C3.32031 57.638 3.39844 57.8464 3.55469 57.9766C3.71094 58.1328 3.89323 58.25 4.10156 58.3281C4.3099 58.4323 4.51823 58.5104 4.72656 58.5625C4.9349 58.6406 5.07812 58.7318 5.15625 58.8359L5.19531 58.7969C5.66406 58.6927 6.14583 58.6276 6.64062 58.6016C7.16146 58.6016 7.60417 58.4193 7.96875 58.0547H8.00781V58.0156C8.13802 57.5729 8.32031 57.2995 8.55469 57.1953C8.8151 57.0911 9.10156 56.9479 9.41406 56.7656C9.38802 56.5573 9.47917 56.3229 9.6875 56.0625C9.92188 55.8021 10.1042 55.6068 10.2344 55.4766C10.4427 55.2943 10.599 55.151 10.7031 55.0469C10.8073 54.9427 10.8984 54.7474 10.9766 54.4609L11.0156 54.3828L11.0547 54.3438C11.2891 54.1094 11.4583 53.862 11.5625 53.6016C11.6667 53.3411 11.7448 53.0417 11.7969 52.7031C11.875 52.3385 11.9531 52.0391 12.0312 51.8047C12.1354 51.5703 12.3568 51.3099 12.6953 51.0234C12.7474 50.9714 12.7734 50.9453 12.7734 50.9453C13.138 49.9818 13.5156 49.0182 13.9062 48.0547C14.3229 47.0911 14.6224 46.1146 14.8047 45.125C14.8568 44.9948 14.8828 44.8646 14.8828 44.7344C14.9089 44.6302 14.9479 44.513 15 44.3828C15.0521 44.2526 15.1042 44.1224 15.1562 43.9922C15.2083 43.862 15.2214 43.7318 15.1953 43.6016C15.1953 43.4974 15.1302 43.4062 15 43.3281C15 43.1458 15.0651 42.8984 15.1953 42.5859C15.3255 42.2734 15.4557 41.9349 15.5859 41.5703C15.7422 41.2057 15.8724 40.8281 15.9766 40.4375C16.0807 40.0729 16.1068 39.7344 16.0547 39.4219C16.0547 39.3698 16.0417 39.2786 16.0156 39.1484C16.0156 39.0443 15.9896 38.9792 15.9375 38.9531L15.9766 38.875C16.1328 38.5365 16.237 38.1719 16.2891 37.7812C16.3411 37.4167 16.3672 37.0521 16.3672 36.6875C16.3672 36.401 16.3802 36.1406 16.4062 35.9062C16.4323 35.6458 16.4583 35.3854 16.4844 35.125ZM57.2266 28.2891C57.2526 28.3672 57.2135 28.4844 57.1094 28.6406C57.0312 28.7969 56.9141 28.9531 56.7578 29.1094C56.6276 29.2656 56.4974 29.4089 56.3672 29.5391C56.237 29.6693 56.1328 29.7474 56.0547 29.7734C55.9245 29.8255 55.8073 29.9036 55.7031 30.0078C55.599 30.0859 55.5208 30.1901 55.4688 30.3203C55.1823 31.1536 54.5964 31.6745 53.7109 31.8828C53.5547 31.9089 53.4375 31.974 53.3594 32.0781C53.2812 32.1823 53.2031 32.2995 53.125 32.4297C53.0469 32.5599 52.9688 32.6901 52.8906 32.8203C52.8125 32.9245 52.7083 33.0156 52.5781 33.0938C52.2135 33.276 51.7969 33.3802 51.3281 33.4062C50.8854 33.4062 50.5078 33.5495 50.1953 33.8359C49.9609 34.0443 49.7786 34.3047 49.6484 34.6172C49.5443 34.9036 49.362 35.125 49.1016 35.2812C48.8411 35.4375 48.5547 35.4896 48.2422 35.4375C47.9297 35.3854 47.6432 35.4505 47.3828 35.6328C47.2786 35.6849 47.1745 35.776 47.0703 35.9062C46.9661 36.0365 46.888 36.1667 46.8359 36.2969C46.7578 36.401 46.6406 36.4922 46.4844 36.5703C46.3542 36.6224 46.224 36.6484 46.0938 36.6484C45.7812 36.6224 45.4818 36.6745 45.1953 36.8047C44.9089 36.9349 44.6224 37.026 44.3359 37.0781L43.8281 37.1562L43.7891 37.2344C43.3724 37.3125 42.9688 37.4297 42.5781 37.5859C42.2135 37.7422 41.8359 37.8594 41.4453 37.9375C41.1068 37.9896 40.7812 38.0417 40.4688 38.0938C40.1562 38.1458 39.8177 38.224 39.4531 38.3281C39.1667 38.4062 38.8802 38.5365 38.5938 38.7188C38.3073 38.901 38.0078 39.0052 37.6953 39.0312C37.4089 39.0573 37.1094 39.0443 36.7969 38.9922C36.5104 38.9401 36.224 38.862 35.9375 38.7578C35.8073 38.7057 35.6771 38.7057 35.5469 38.7578C35.4167 38.8099 35.2865 38.862 35.1562 38.9141C35.026 38.9922 34.8828 39.0573 34.7266 39.1094C34.5964 39.1615 34.4531 39.1615 34.2969 39.1094C34.0625 39.0312 33.8021 38.9271 33.5156 38.7969C33.3854 38.7448 33.2422 38.6927 33.0859 38.6406C32.9297 38.5885 32.7865 38.5625 32.6562 38.5625C32.5521 38.5625 32.3828 38.5234 32.1484 38.4453C31.9401 38.3672 31.7188 38.263 31.4844 38.1328C31.25 38.0286 31.0286 37.9115 30.8203 37.7812C30.638 37.651 30.5208 37.5339 30.4688 37.4297C30.3125 37.1953 30.1302 37 29.9219 36.8438C29.7396 36.6615 29.5833 36.4271 29.4531 36.1406C29.4271 36.0885 29.375 36.0104 29.2969 35.9062C29.1927 35.8021 29.1146 35.75 29.0625 35.75C29.0104 35.75 28.9714 35.6979 28.9453 35.5938C28.9193 35.4896 28.8932 35.3724 28.8672 35.2422C28.8411 35.0859 28.8281 34.9557 28.8281 34.8516C28.8021 34.7214 28.7891 34.6562 28.7891 34.6562C28.737 34.4479 28.6979 34.2266 28.6719 33.9922C28.6198 33.7318 28.5938 33.4974 28.5938 33.2891C28.5938 32.9766 28.5938 32.7161 28.5938 32.5078C28.5938 32.2995 28.5156 32.0651 28.3594 31.8047C28.2812 31.7005 28.2682 31.5833 28.3203 31.4531C28.3724 31.3229 28.4375 31.2057 28.5156 31.1016C28.6458 30.9714 28.737 30.8411 28.7891 30.7109C28.8151 30.5807 28.8411 30.4505 28.8672 30.3203C28.8672 30.1901 28.8802 30.0729 28.9062 29.9688C28.9323 29.8385 29.0234 29.7214 29.1797 29.6172C29.3099 29.513 29.401 29.3828 29.4531 29.2266C29.5052 29.0443 29.5182 28.888 29.4922 28.7578C29.4922 28.4714 29.6354 28.25 29.9219 28.0938C30.2083 27.9115 30.4297 27.7161 30.5859 27.5078C30.7422 27.2995 30.8594 27.0521 30.9375 26.7656C31.0417 26.4792 31.1458 26.2057 31.25 25.9453C31.3281 25.763 31.4714 25.6068 31.6797 25.4766C31.9141 25.3203 32.1484 25.1771 32.3828 25.0469C32.6172 24.8906 32.8385 24.7083 33.0469 24.5C33.2552 24.2917 33.3984 24.0182 33.4766 23.6797C33.5026 23.6276 33.4896 23.5495 33.4375 23.4453C33.3854 23.3151 33.3203 23.224 33.2422 23.1719C33.1641 23.1198 33.0729 23.0677 32.9688 23.0156C32.8646 22.9375 32.7734 22.8854 32.6953 22.8594C32.4609 22.7292 32.2786 22.5599 32.1484 22.3516C32.0443 22.1172 31.888 21.9219 31.6797 21.7656C31.4714 21.6094 31.237 21.4792 30.9766 21.375C30.7161 21.2708 30.5599 21.0755 30.5078 20.7891C30.4557 20.6068 30.3776 20.4115 30.2734 20.2031C30.1693 19.9688 30.1172 19.7865 30.1172 19.6562C30.1172 19.4479 30.1042 19.2656 30.0781 19.1094C30.0521 18.9271 30.0391 18.7448 30.0391 18.5625C29.987 18.224 30.026 17.9115 30.1562 17.625C30.2865 17.3385 30.2865 17.013 30.1562 16.6484C30.2344 16.2578 30.3255 15.776 30.4297 15.2031C30.5599 14.6302 30.7292 14.1745 30.9375 13.8359C30.9896 13.7318 31.0677 13.6146 31.1719 13.4844C31.3021 13.3542 31.4193 13.263 31.5234 13.2109C31.7839 13.0547 31.9792 12.8333 32.1094 12.5469C32.2396 12.3125 32.4089 12.1172 32.6172 11.9609C32.8255 11.8307 32.9948 11.6094 33.125 11.2969C33.2812 10.9583 33.3854 10.6719 33.4375 10.4375C33.5156 10.125 33.6979 9.91667 33.9844 9.8125C34.1406 9.76042 34.2448 9.66927 34.2969 9.53906C34.375 9.40885 34.4401 9.29167 34.4922 9.1875C34.5443 9.05729 34.5964 8.9401 34.6484 8.83594C34.7005 8.73177 34.7656 8.66667 34.8438 8.64062C35 8.58854 35.0651 8.51042 35.0391 8.40625C35.1432 8.32812 35.2995 8.28906 35.5078 8.28906C35.612 8.28906 35.7943 8.22396 36.0547 8.09375C36.3151 7.9375 36.5104 7.82031 36.6406 7.74219L36.9531 7.50781C37.1875 7.32552 37.3568 7.10417 37.4609 6.84375C37.5651 6.58333 37.7474 6.375 38.0078 6.21875C38.2682 6.0625 38.5156 5.91927 38.75 5.78906C38.9844 5.63281 39.2057 5.46354 39.4141 5.28125C39.5443 5.17708 39.6745 5.08594 39.8047 5.00781C39.9349 4.92969 40.0651 4.85156 40.1953 4.77344C40.5859 4.51302 40.9896 4.33073 41.4062 4.22656C41.8229 4.09635 42.2526 3.96615 42.6953 3.83594C42.8776 3.78385 43.0339 3.6276 43.1641 3.36719C43.3203 3.10677 43.5807 2.95052 43.9453 2.89844C44.0755 2.8724 44.1927 2.85938 44.2969 2.85938C44.401 2.85938 44.5182 2.85938 44.6484 2.85938C44.7526 2.85938 44.8438 2.82031 44.9219 2.74219C45 2.63802 45.0521 2.53385 45.0781 2.42969C45.1302 2.29948 45.1693 2.18229 45.1953 2.07812C45.2474 1.94792 45.2995 1.86979 45.3516 1.84375C45.3776 1.81771 45.3906 1.80469 45.3906 1.80469C45.4167 1.80469 45.4427 1.79167 45.4688 1.76562C45.8594 1.6875 46.1719 1.63542 46.4062 1.60938C46.6667 1.55729 46.9792 1.40104 47.3438 1.14062C47.6042 0.984375 47.8646 0.932292 48.125 0.984375C48.3854 1.03646 48.6458 0.932292 48.9062 0.671875C49.1406 0.4375 49.375 0.359375 49.6094 0.4375C49.8177 0.489583 50.1562 0.476562 50.625 0.398438C51.0938 0.320312 51.4453 0.255208 51.6797 0.203125C51.888 0.255208 52.0833 0.28125 52.2656 0.28125C52.474 0.28125 52.6823 0.320312 52.8906 0.398438C53.3333 0.580729 53.7109 0.684896 54.0234 0.710938C54.1536 0.736979 54.2839 0.75 54.4141 0.75C54.5703 0.75 54.7135 0.763021 54.8438 0.789062C55 0.919271 55.1172 1.01042 55.1953 1.0625C55.2995 1.08854 55.3776 1.1276 55.4297 1.17969C55.5078 1.23177 55.5729 1.29688 55.625 1.375C55.7031 1.45312 55.7943 1.58333 55.8984 1.76562C55.9245 1.81771 55.9766 1.89583 56.0547 2C56.1589 2.07812 56.263 2.16927 56.3672 2.27344C56.4714 2.35156 56.5495 2.42969 56.6016 2.50781C56.6536 2.58594 56.6406 2.625 56.5625 2.625C56.5104 2.65104 56.4844 2.74219 56.4844 2.89844C56.5104 3.02865 56.5365 3.1849 56.5625 3.36719C56.5885 3.52344 56.6146 3.67969 56.6406 3.83594C56.6927 3.96615 56.7188 4.05729 56.7188 4.10938C56.7448 4.23958 56.7318 4.39583 56.6797 4.57812C56.6536 4.76042 56.6146 4.90365 56.5625 5.00781C56.4062 5.32031 56.3151 5.64583 56.2891 5.98438C56.2891 6.32292 56.224 6.66146 56.0938 7C56.0417 7.18229 55.9375 7.36458 55.7812 7.54688C55.651 7.72917 55.5469 7.91146 55.4688 8.09375C55.3385 8.30208 55.2474 8.52344 55.1953 8.75781C55.1693 8.99219 55.1172 9.22656 55.0391 9.46094C55.013 9.53906 55.013 9.64323 55.0391 9.77344C55.0651 9.8776 55.0521 9.92969 55 9.92969C54.9219 9.98177 54.8438 10.0208 54.7656 10.0469C54.7135 10.0469 54.6615 10.0729 54.6094 10.125C54.5573 10.1771 54.5443 10.3724 54.5703 10.7109C54.5964 11.0234 54.5833 11.2708 54.5312 11.4531C54.4531 11.6354 54.349 11.8047 54.2188 11.9609C54.0885 12.1172 53.9583 12.2734 53.8281 12.4297C53.724 12.5859 53.6328 12.7552 53.5547 12.9375C53.5026 13.1198 53.5156 13.3151 53.5938 13.5234C53.6198 13.6276 53.5938 13.7188 53.5156 13.7969C53.4375 13.875 53.3333 13.9401 53.2031 13.9922C53.0729 14.0443 52.9427 14.0964 52.8125 14.1484C52.6823 14.1745 52.5781 14.2005 52.5 14.2266C52.3958 14.2786 52.2656 14.3698 52.1094 14.5C51.9792 14.6302 51.8359 14.7865 51.6797 14.9688C51.5495 15.125 51.4193 15.2812 51.2891 15.4375C51.1589 15.5938 51.0547 15.7109 50.9766 15.7891C50.8203 15.9974 50.599 16.1276 50.3125 16.1797C50.0521 16.2318 49.8177 16.3359 49.6094 16.4922C49.401 16.6484 49.1667 16.7526 48.9062 16.8047C48.776 16.8307 48.6328 16.8177 48.4766 16.7656C48.3464 16.7135 48.2161 16.6484 48.0859 16.5703C47.8776 16.4141 47.7214 16.2448 47.6172 16.0625C47.5391 15.9583 47.487 15.8021 47.4609 15.5938C47.4609 15.3854 47.474 15.1641 47.5 14.9297C47.5521 14.6953 47.5911 14.474 47.6172 14.2656C47.6693 14.0573 47.7214 13.888 47.7734 13.7578C47.8255 13.5495 47.8516 13.276 47.8516 12.9375C47.8516 12.599 47.8516 12.3255 47.8516 12.1172C47.8516 11.987 47.8906 11.8698 47.9688 11.7656C48.0469 11.6615 48.138 11.5573 48.2422 11.4531C48.3464 11.3229 48.4505 11.1927 48.5547 11.0625C48.6589 10.9323 48.724 10.763 48.75 10.5547C48.776 10.4245 48.8542 10.3203 48.9844 10.2422C49.1146 10.1641 49.2448 10.112 49.375 10.0859C49.5312 10.0599 49.6875 10.0339 49.8438 10.0078C50 9.95573 50.1432 9.86458 50.2734 9.73438C50.4818 9.52604 50.612 9.29167 50.6641 9.03125C50.7161 8.74479 50.8594 8.4974 51.0938 8.28906C51.3021 8.08073 51.5365 7.95052 51.7969 7.89844C52.0833 7.82031 52.3307 7.67708 52.5391 7.46875C52.8255 7.18229 53.099 6.89583 53.3594 6.60938C53.6198 6.29688 53.737 5.91927 53.7109 5.47656C53.7109 5.34635 53.7109 5.21615 53.7109 5.08594C53.7109 4.95573 53.737 4.82552 53.7891 4.69531C53.7891 4.66927 53.8151 4.59115 53.8672 4.46094C53.9193 4.33073 53.9583 4.20052 53.9844 4.07031C54.0365 3.91406 54.0495 3.78385 54.0234 3.67969C54.0234 3.57552 53.9844 3.52344 53.9062 3.52344C53.6979 3.3151 53.4505 3.17188 53.1641 3.09375C52.9036 2.98958 52.7083 2.84635 52.5781 2.66406C52.526 2.58594 52.4349 2.52083 52.3047 2.46875C52.0964 2.57292 51.9792 2.6901 51.9531 2.82031C51.9531 2.92448 51.888 3.04167 51.7578 3.17188C51.6276 3.30208 51.4844 3.34115 51.3281 3.28906C51.1979 3.23698 50.9635 3.26302 50.625 3.36719C50.3125 3.47135 50.0521 3.54948 49.8438 3.60156C49.6354 3.65365 49.4531 3.67969 49.2969 3.67969C49.1406 3.65365 48.9714 3.64062 48.7891 3.64062C48.6328 3.61458 48.4635 3.61458 48.2812 3.64062C48.099 3.66667 47.9036 3.75781 47.6953 3.91406C47.513 4.07031 47.3438 4.23958 47.1875 4.42188C47.0312 4.63021 46.8359 4.79948 46.6016 4.92969C46.3672 5.03385 46.1589 5.17708 45.9766 5.35938C45.8724 5.46354 45.7552 5.52865 45.625 5.55469C45.4948 5.55469 45.3646 5.55469 45.2344 5.55469C45.1042 5.52865 44.9609 5.52865 44.8047 5.55469C44.6745 5.55469 44.5573 5.61979 44.4531 5.75C44.375 5.82812 44.2448 5.93229 44.0625 6.0625C43.8802 6.19271 43.6849 6.32292 43.4766 6.45312C43.2682 6.55729 43.0599 6.67448 42.8516 6.80469C42.6432 6.90885 42.487 6.97396 42.3828 7C42.0964 7.10417 41.862 7.27344 41.6797 7.50781C41.4974 7.74219 41.3281 7.88542 41.1719 7.9375C41.0156 7.98958 40.9115 8.04167 40.8594 8.09375C40.7812 8.14583 40.599 8.1849 40.3125 8.21094C40.026 8.21094 39.7786 8.28906 39.5703 8.44531C39.4922 8.4974 39.4141 8.58854 39.3359 8.71875C39.2578 8.84896 39.1927 8.95312 39.1406 9.03125C38.9323 9.52604 38.6328 9.98177 38.2422 10.3984C37.8776 10.7891 37.4349 11.0625 36.9141 11.2188C36.7057 11.2708 36.5365 11.375 36.4062 11.5312C36.3021 11.6615 36.2109 11.8307 36.1328 12.0391C36.0547 12.2214 35.9766 12.4167 35.8984 12.625C35.8203 12.8073 35.7161 12.9766 35.5859 13.1328L35.0391 13.6797C34.8307 13.888 34.6745 14.0964 34.5703 14.3047C34.4922 14.513 34.388 14.7474 34.2578 15.0078C34.1276 15.2682 33.9844 15.5026 33.8281 15.7109C33.6979 15.9193 33.5417 16.1406 33.3594 16.375C33.2552 16.4792 33.1641 16.5964 33.0859 16.7266C33.0339 16.8568 32.9818 16.987 32.9297 17.1172C32.8776 17.2474 32.8516 17.3776 32.8516 17.5078C32.8776 17.638 32.8906 17.7812 32.8906 17.9375C32.8906 18.5885 32.9557 19.1224 33.0859 19.5391C33.2161 19.9557 33.6589 20.2292 34.4141 20.3594C34.7005 20.4115 34.9479 20.5417 35.1562 20.75C35.3906 20.9583 35.6641 21.0625 35.9766 21.0625C36.263 21.0625 36.5365 21.1276 36.7969 21.2578C36.901 21.2839 37.0312 21.2839 37.1875 21.2578C37.3438 21.2057 37.4609 21.1276 37.5391 21.0234C37.7214 20.8411 37.9167 20.6849 38.125 20.5547C38.3333 20.4245 38.5417 20.2812 38.75 20.125C38.9323 19.9948 39.1667 19.9427 39.4531 19.9688C39.7396 19.9948 40.013 19.9167 40.2734 19.7344C40.4818 19.5781 40.6901 19.526 40.8984 19.5781C41.263 19.5781 41.6146 19.526 41.9531 19.4219C42.3177 19.3177 42.6172 19.2786 42.8516 19.3047C43.0859 19.3568 43.2292 19.474 43.2812 19.6562C43.3594 19.8125 43.3984 19.9948 43.3984 20.2031C43.3984 20.4115 43.3594 20.6328 43.2812 20.8672C43.2292 21.0755 43.1771 21.2578 43.125 21.4141C43.099 21.4661 43.112 21.5052 43.1641 21.5312C43.2422 21.5573 43.3073 21.5703 43.3594 21.5703C43.3854 21.5703 43.4115 21.5833 43.4375 21.6094C43.4896 21.6354 43.4896 21.6615 43.4375 21.6875C43.4375 21.7396 43.4245 21.7786 43.3984 21.8047C43.3724 21.8047 43.3464 21.8307 43.3203 21.8828C43.112 22.1432 42.9427 22.3255 42.8125 22.4297C42.6823 22.5339 42.5521 22.625 42.4219 22.7031C42.2917 22.7552 42.1484 22.8073 41.9922 22.8594C41.862 22.9115 41.6927 23.0156 41.4844 23.1719C41.3542 23.25 41.224 23.3281 41.0938 23.4062C40.9896 23.4583 40.8724 23.5104 40.7422 23.5625C40.5859 23.6146 40.4297 23.6276 40.2734 23.6016C40.1432 23.5495 40 23.4974 39.8438 23.4453C39.6875 23.3932 39.5312 23.3542 39.375 23.3281C39.2448 23.276 39.1146 23.276 38.9844 23.3281C38.9062 23.3542 38.8021 23.4193 38.6719 23.5234C38.5417 23.6276 38.4505 23.7057 38.3984 23.7578C38.112 23.9401 37.8646 24.0312 37.6562 24.0312C37.526 24.0312 37.3958 24.0833 37.2656 24.1875C37.1615 24.2917 37.0833 24.4089 37.0312 24.5391C36.9531 24.6693 36.849 24.7604 36.7188 24.8125C36.6146 24.8646 36.4974 24.9167 36.3672 24.9688C36.263 24.9948 36.1589 25.0469 36.0547 25.125C35.9505 25.2031 35.8594 25.3333 35.7812 25.5156C35.651 25.8802 35.4427 26.2318 35.1562 26.5703C34.8958 26.9089 34.6094 27.1823 34.2969 27.3906C34.0885 27.5208 33.8151 27.6641 33.4766 27.8203C33.1641 27.9766 32.9427 28.1458 32.8125 28.3281C32.6823 28.5365 32.6302 28.7969 32.6562 29.1094C32.6823 29.4219 32.6172 29.7214 32.4609 30.0078C32.3568 30.2161 32.1875 30.4375 31.9531 30.6719C31.8229 30.8021 31.7448 30.9323 31.7188 31.0625C31.7188 31.1667 31.7188 31.2839 31.7188 31.4141C31.7188 31.5443 31.7057 31.6745 31.6797 31.8047C31.6797 31.9349 31.6146 32.0651 31.4844 32.1953C31.3542 32.3516 31.3542 32.5078 31.4844 32.6641C31.6406 32.8203 31.7578 32.9896 31.8359 33.1719C31.9141 33.4323 31.9271 33.7188 31.875 34.0312C31.849 34.1615 31.888 34.3177 31.9922 34.5C32.0964 34.6823 32.2266 34.8516 32.3828 35.0078C32.5651 35.1641 32.7474 35.2943 32.9297 35.3984C33.112 35.5026 33.2812 35.5286 33.4375 35.4766C33.5677 35.4245 33.6719 35.4505 33.75 35.5547C33.8542 35.6589 33.9323 35.75 33.9844 35.8281C34.1406 36.1146 34.3359 36.2578 34.5703 36.2578C34.8307 36.2318 35.1042 36.1797 35.3906 36.1016C35.651 36.0495 35.9115 36.1016 36.1719 36.2578C36.4323 36.388 36.7057 36.4531 36.9922 36.4531C37.0964 36.4531 37.2005 36.4531 37.3047 36.4531C37.4089 36.4271 37.513 36.4141 37.6172 36.4141C37.7734 36.4141 37.8906 36.401 37.9688 36.375C38.2552 36.375 38.4896 36.3099 38.6719 36.1797C38.8802 36.0495 39.0625 35.8932 39.2188 35.7109C39.3229 35.6068 39.4401 35.5547 39.5703 35.5547C39.7266 35.5286 39.8698 35.5156 40 35.5156C40.1562 35.5156 40.2995 35.5156 40.4297 35.5156C40.5859 35.4896 40.7161 35.4115 40.8203 35.2812C40.9245 35.151 41.0286 35.0859 41.1328 35.0859C41.263 35.0859 41.3932 35.112 41.5234 35.1641C41.6797 35.2161 41.8229 35.2161 41.9531 35.1641C42.0833 35.0859 42.2005 35.0078 42.3047 34.9297C42.4089 34.8516 42.526 34.7865 42.6562 34.7344C42.7865 34.6562 42.9297 34.6302 43.0859 34.6562C43.4245 34.7083 43.6849 34.5911 43.8672 34.3047C44.0234 34.0703 44.2448 33.9531 44.5312 33.9531C44.8177 33.9271 45.0781 33.8229 45.3125 33.6406C45.5208 33.4844 45.7031 33.3021 45.8594 33.0938C45.9635 32.9635 46.0938 32.8854 46.25 32.8594C46.4062 32.8333 46.5625 32.8464 46.7188 32.8984C46.849 32.9245 47.0052 32.9375 47.1875 32.9375C47.3698 32.9115 47.513 32.8464 47.6172 32.7422C47.8255 32.5599 48.0078 32.3776 48.1641 32.1953C48.3464 31.987 48.5807 31.8307 48.8672 31.7266C49.1536 31.5964 49.388 31.4922 49.5703 31.4141C49.7526 31.3359 49.9479 31.1536 50.1562 30.8672C50.3125 30.6068 50.5599 30.5286 50.8984 30.6328C51.0286 30.6849 51.1458 30.6849 51.25 30.6328C51.3802 30.5547 51.4844 30.4766 51.5625 30.3984C51.6667 30.3203 51.7708 30.2422 51.875 30.1641C51.9792 30.0599 52.0964 29.9948 52.2266 29.9688C52.6432 29.8646 52.9427 29.6172 53.125 29.2266C53.4635 29.2005 53.7109 29.1354 53.8672 29.0312C54.0234 28.901 54.2057 28.8359 54.4141 28.8359C54.4922 28.8359 54.6094 28.7969 54.7656 28.7188C54.9219 28.6406 55.0781 28.5495 55.2344 28.4453C55.3906 28.3411 55.5339 28.25 55.6641 28.1719C55.8203 28.0677 55.9245 28.0156 55.9766 28.0156C56.1068 27.9896 56.224 27.9766 56.3281 27.9766C56.4583 27.9766 56.5885 27.9505 56.7188 27.8984C56.849 27.8464 56.9531 27.8724 57.0312 27.9766C57.1094 28.0807 57.1745 28.1849 57.2266 28.2891ZM86.9531 28.2891C86.9792 28.3672 86.9401 28.4844 86.8359 28.6406C86.7578 28.7969 86.6406 28.9531 86.4844 29.1094C86.3542 29.2656 86.224 29.4089 86.0938 29.5391C85.9635 29.6693 85.8594 29.7474 85.7812 29.7734C85.651 29.8255 85.5339 29.9036 85.4297 30.0078C85.3255 30.0859 85.2474 30.1901 85.1953 30.3203C84.9089 31.1536 84.3229 31.6745 83.4375 31.8828C83.2812 31.9089 83.1641 31.974 83.0859 32.0781C83.0078 32.1823 82.9297 32.2995 82.8516 32.4297C82.7734 32.5599 82.6953 32.6901 82.6172 32.8203C82.5391 32.9245 82.4349 33.0156 82.3047 33.0938C81.9401 33.276 81.5234 33.3802 81.0547 33.4062C80.612 33.4062 80.2344 33.5495 79.9219 33.8359C79.6875 34.0443 79.5052 34.3047 79.375 34.6172C79.2708 34.9036 79.0885 35.125 78.8281 35.2812C78.5677 35.4375 78.2812 35.4896 77.9688 35.4375C77.6562 35.3854 77.3698 35.4505 77.1094 35.6328C77.0052 35.6849 76.901 35.776 76.7969 35.9062C76.6927 36.0365 76.6146 36.1667 76.5625 36.2969C76.4844 36.401 76.3672 36.4922 76.2109 36.5703C76.0807 36.6224 75.9505 36.6484 75.8203 36.6484C75.5078 36.6224 75.2083 36.6745 74.9219 36.8047C74.6354 36.9349 74.349 37.026 74.0625 37.0781L73.5547 37.1562L73.5156 37.2344C73.099 37.3125 72.6953 37.4297 72.3047 37.5859C71.9401 37.7422 71.5625 37.8594 71.1719 37.9375C70.8333 37.9896 70.5078 38.0417 70.1953 38.0938C69.8828 38.1458 69.5443 38.224 69.1797 38.3281C68.8932 38.4062 68.6068 38.5365 68.3203 38.7188C68.0339 38.901 67.7344 39.0052 67.4219 39.0312C67.1354 39.0573 66.8359 39.0443 66.5234 38.9922C66.237 38.9401 65.9505 38.862 65.6641 38.7578C65.5339 38.7057 65.4036 38.7057 65.2734 38.7578C65.1432 38.8099 65.013 38.862 64.8828 38.9141C64.7526 38.9922 64.6094 39.0573 64.4531 39.1094C64.3229 39.1615 64.1797 39.1615 64.0234 39.1094C63.7891 39.0312 63.5286 38.9271 63.2422 38.7969C63.112 38.7448 62.9688 38.6927 62.8125 38.6406C62.6562 38.5885 62.513 38.5625 62.3828 38.5625C62.2786 38.5625 62.1094 38.5234 61.875 38.4453C61.6667 38.3672 61.4453 38.263 61.2109 38.1328C60.9766 38.0286 60.7552 37.9115 60.5469 37.7812C60.3646 37.651 60.2474 37.5339 60.1953 37.4297C60.0391 37.1953 59.8568 37 59.6484 36.8438C59.4661 36.6615 59.3099 36.4271 59.1797 36.1406C59.1536 36.0885 59.1016 36.0104 59.0234 35.9062C58.9193 35.8021 58.8411 35.75 58.7891 35.75C58.737 35.75 58.6979 35.6979 58.6719 35.5938C58.6458 35.4896 58.6198 35.3724 58.5938 35.2422C58.5677 35.0859 58.5547 34.9557 58.5547 34.8516C58.5286 34.7214 58.5156 34.6562 58.5156 34.6562C58.4635 34.4479 58.4245 34.2266 58.3984 33.9922C58.3464 33.7318 58.3203 33.4974 58.3203 33.2891C58.3203 32.9766 58.3203 32.7161 58.3203 32.5078C58.3203 32.2995 58.2422 32.0651 58.0859 31.8047C58.0078 31.7005 57.9948 31.5833 58.0469 31.4531C58.099 31.3229 58.1641 31.2057 58.2422 31.1016C58.3724 30.9714 58.4635 30.8411 58.5156 30.7109C58.5417 30.5807 58.5677 30.4505 58.5938 30.3203C58.5938 30.1901 58.6068 30.0729 58.6328 29.9688C58.6589 29.8385 58.75 29.7214 58.9062 29.6172C59.0365 29.513 59.1276 29.3828 59.1797 29.2266C59.2318 29.0443 59.2448 28.888 59.2188 28.7578C59.2188 28.4714 59.362 28.25 59.6484 28.0938C59.9349 27.9115 60.1562 27.7161 60.3125 27.5078C60.4688 27.2995 60.5859 27.0521 60.6641 26.7656C60.7682 26.4792 60.8724 26.2057 60.9766 25.9453C61.0547 25.763 61.1979 25.6068 61.4062 25.4766C61.6406 25.3203 61.875 25.1771 62.1094 25.0469C62.3438 24.8906 62.5651 24.7083 62.7734 24.5C62.9818 24.2917 63.125 24.0182 63.2031 23.6797C63.2292 23.6276 63.2161 23.5495 63.1641 23.4453C63.112 23.3151 63.0469 23.224 62.9688 23.1719C62.8906 23.1198 62.7995 23.0677 62.6953 23.0156C62.5911 22.9375 62.5 22.8854 62.4219 22.8594C62.1875 22.7292 62.0052 22.5599 61.875 22.3516C61.7708 22.1172 61.6146 21.9219 61.4062 21.7656C61.1979 21.6094 60.9635 21.4792 60.7031 21.375C60.4427 21.2708 60.2865 21.0755 60.2344 20.7891C60.1823 20.6068 60.1042 20.4115 60 20.2031C59.8958 19.9688 59.8438 19.7865 59.8438 19.6562C59.8438 19.4479 59.8307 19.2656 59.8047 19.1094C59.7786 18.9271 59.7656 18.7448 59.7656 18.5625C59.7135 18.224 59.7526 17.9115 59.8828 17.625C60.013 17.3385 60.013 17.013 59.8828 16.6484C59.9609 16.2578 60.0521 15.776 60.1562 15.2031C60.2865 14.6302 60.4557 14.1745 60.6641 13.8359C60.7161 13.7318 60.7943 13.6146 60.8984 13.4844C61.0286 13.3542 61.1458 13.263 61.25 13.2109C61.5104 13.0547 61.7057 12.8333 61.8359 12.5469C61.9661 12.3125 62.1354 12.1172 62.3438 11.9609C62.5521 11.8307 62.7214 11.6094 62.8516 11.2969C63.0078 10.9583 63.112 10.6719 63.1641 10.4375C63.2422 10.125 63.4245 9.91667 63.7109 9.8125C63.8672 9.76042 63.9714 9.66927 64.0234 9.53906C64.1016 9.40885 64.1667 9.29167 64.2188 9.1875C64.2708 9.05729 64.3229 8.9401 64.375 8.83594C64.4271 8.73177 64.4922 8.66667 64.5703 8.64062C64.7266 8.58854 64.7917 8.51042 64.7656 8.40625C64.8698 8.32812 65.026 8.28906 65.2344 8.28906C65.3385 8.28906 65.5208 8.22396 65.7812 8.09375C66.0417 7.9375 66.237 7.82031 66.3672 7.74219L66.6797 7.50781C66.9141 7.32552 67.0833 7.10417 67.1875 6.84375C67.2917 6.58333 67.474 6.375 67.7344 6.21875C67.9948 6.0625 68.2422 5.91927 68.4766 5.78906C68.7109 5.63281 68.9323 5.46354 69.1406 5.28125C69.2708 5.17708 69.401 5.08594 69.5312 5.00781C69.6615 4.92969 69.7917 4.85156 69.9219 4.77344C70.3125 4.51302 70.7161 4.33073 71.1328 4.22656C71.5495 4.09635 71.9792 3.96615 72.4219 3.83594C72.6042 3.78385 72.7604 3.6276 72.8906 3.36719C73.0469 3.10677 73.3073 2.95052 73.6719 2.89844C73.8021 2.8724 73.9193 2.85938 74.0234 2.85938C74.1276 2.85938 74.2448 2.85938 74.375 2.85938C74.4792 2.85938 74.5703 2.82031 74.6484 2.74219C74.7266 2.63802 74.7786 2.53385 74.8047 2.42969C74.8568 2.29948 74.8958 2.18229 74.9219 2.07812C74.974 1.94792 75.026 1.86979 75.0781 1.84375C75.1042 1.81771 75.1172 1.80469 75.1172 1.80469C75.1432 1.80469 75.1693 1.79167 75.1953 1.76562C75.5859 1.6875 75.8984 1.63542 76.1328 1.60938C76.3932 1.55729 76.7057 1.40104 77.0703 1.14062C77.3307 0.984375 77.5911 0.932292 77.8516 0.984375C78.112 1.03646 78.3724 0.932292 78.6328 0.671875C78.8672 0.4375 79.1016 0.359375 79.3359 0.4375C79.5443 0.489583 79.8828 0.476562 80.3516 0.398438C80.8203 0.320312 81.1719 0.255208 81.4062 0.203125C81.6146 0.255208 81.8099 0.28125 81.9922 0.28125C82.2005 0.28125 82.4089 0.320312 82.6172 0.398438C83.0599 0.580729 83.4375 0.684896 83.75 0.710938C83.8802 0.736979 84.0104 0.75 84.1406 0.75C84.2969 0.75 84.4401 0.763021 84.5703 0.789062C84.7266 0.919271 84.8438 1.01042 84.9219 1.0625C85.026 1.08854 85.1042 1.1276 85.1562 1.17969C85.2344 1.23177 85.2995 1.29688 85.3516 1.375C85.4297 1.45312 85.5208 1.58333 85.625 1.76562C85.651 1.81771 85.7031 1.89583 85.7812 2C85.8854 2.07812 85.9896 2.16927 86.0938 2.27344C86.1979 2.35156 86.276 2.42969 86.3281 2.50781C86.3802 2.58594 86.3672 2.625 86.2891 2.625C86.237 2.65104 86.2109 2.74219 86.2109 2.89844C86.237 3.02865 86.263 3.1849 86.2891 3.36719C86.3151 3.52344 86.3411 3.67969 86.3672 3.83594C86.4193 3.96615 86.4453 4.05729 86.4453 4.10938C86.4714 4.23958 86.4583 4.39583 86.4062 4.57812C86.3802 4.76042 86.3411 4.90365 86.2891 5.00781C86.1328 5.32031 86.0417 5.64583 86.0156 5.98438C86.0156 6.32292 85.9505 6.66146 85.8203 7C85.7682 7.18229 85.6641 7.36458 85.5078 7.54688C85.3776 7.72917 85.2734 7.91146 85.1953 8.09375C85.0651 8.30208 84.974 8.52344 84.9219 8.75781C84.8958 8.99219 84.8438 9.22656 84.7656 9.46094C84.7396 9.53906 84.7396 9.64323 84.7656 9.77344C84.7917 9.8776 84.7786 9.92969 84.7266 9.92969C84.6484 9.98177 84.5703 10.0208 84.4922 10.0469C84.4401 10.0469 84.388 10.0729 84.3359 10.125C84.2839 10.1771 84.2708 10.3724 84.2969 10.7109C84.3229 11.0234 84.3099 11.2708 84.2578 11.4531C84.1797 11.6354 84.0755 11.8047 83.9453 11.9609C83.8151 12.1172 83.6849 12.2734 83.5547 12.4297C83.4505 12.5859 83.3594 12.7552 83.2812 12.9375C83.2292 13.1198 83.2422 13.3151 83.3203 13.5234C83.3464 13.6276 83.3203 13.7188 83.2422 13.7969C83.1641 13.875 83.0599 13.9401 82.9297 13.9922C82.7995 14.0443 82.6693 14.0964 82.5391 14.1484C82.4089 14.1745 82.3047 14.2005 82.2266 14.2266C82.1224 14.2786 81.9922 14.3698 81.8359 14.5C81.7057 14.6302 81.5625 14.7865 81.4062 14.9688C81.276 15.125 81.1458 15.2812 81.0156 15.4375C80.8854 15.5938 80.7812 15.7109 80.7031 15.7891C80.5469 15.9974 80.3255 16.1276 80.0391 16.1797C79.7786 16.2318 79.5443 16.3359 79.3359 16.4922C79.1276 16.6484 78.8932 16.7526 78.6328 16.8047C78.5026 16.8307 78.3594 16.8177 78.2031 16.7656C78.0729 16.7135 77.9427 16.6484 77.8125 16.5703C77.6042 16.4141 77.4479 16.2448 77.3438 16.0625C77.2656 15.9583 77.2135 15.8021 77.1875 15.5938C77.1875 15.3854 77.2005 15.1641 77.2266 14.9297C77.2786 14.6953 77.3177 14.474 77.3438 14.2656C77.3958 14.0573 77.4479 13.888 77.5 13.7578C77.5521 13.5495 77.5781 13.276 77.5781 12.9375C77.5781 12.599 77.5781 12.3255 77.5781 12.1172C77.5781 11.987 77.6172 11.8698 77.6953 11.7656C77.7734 11.6615 77.8646 11.5573 77.9688 11.4531C78.0729 11.3229 78.1771 11.1927 78.2812 11.0625C78.3854 10.9323 78.4505 10.763 78.4766 10.5547C78.5026 10.4245 78.5807 10.3203 78.7109 10.2422C78.8411 10.1641 78.9714 10.112 79.1016 10.0859C79.2578 10.0599 79.4141 10.0339 79.5703 10.0078C79.7266 9.95573 79.8698 9.86458 80 9.73438C80.2083 9.52604 80.3385 9.29167 80.3906 9.03125C80.4427 8.74479 80.5859 8.4974 80.8203 8.28906C81.0286 8.08073 81.263 7.95052 81.5234 7.89844C81.8099 7.82031 82.0573 7.67708 82.2656 7.46875C82.5521 7.18229 82.8255 6.89583 83.0859 6.60938C83.3464 6.29688 83.4635 5.91927 83.4375 5.47656C83.4375 5.34635 83.4375 5.21615 83.4375 5.08594C83.4375 4.95573 83.4635 4.82552 83.5156 4.69531C83.5156 4.66927 83.5417 4.59115 83.5938 4.46094C83.6458 4.33073 83.6849 4.20052 83.7109 4.07031C83.763 3.91406 83.776 3.78385 83.75 3.67969C83.75 3.57552 83.7109 3.52344 83.6328 3.52344C83.4245 3.3151 83.1771 3.17188 82.8906 3.09375C82.6302 2.98958 82.4349 2.84635 82.3047 2.66406C82.2526 2.58594 82.1615 2.52083 82.0312 2.46875C81.8229 2.57292 81.7057 2.6901 81.6797 2.82031C81.6797 2.92448 81.6146 3.04167 81.4844 3.17188C81.3542 3.30208 81.2109 3.34115 81.0547 3.28906C80.9245 3.23698 80.6901 3.26302 80.3516 3.36719C80.0391 3.47135 79.7786 3.54948 79.5703 3.60156C79.362 3.65365 79.1797 3.67969 79.0234 3.67969C78.8672 3.65365 78.6979 3.64062 78.5156 3.64062C78.3594 3.61458 78.1901 3.61458 78.0078 3.64062C77.8255 3.66667 77.6302 3.75781 77.4219 3.91406C77.2396 4.07031 77.0703 4.23958 76.9141 4.42188C76.7578 4.63021 76.5625 4.79948 76.3281 4.92969C76.0938 5.03385 75.8854 5.17708 75.7031 5.35938C75.599 5.46354 75.4818 5.52865 75.3516 5.55469C75.2214 5.55469 75.0911 5.55469 74.9609 5.55469C74.8307 5.52865 74.6875 5.52865 74.5312 5.55469C74.401 5.55469 74.2839 5.61979 74.1797 5.75C74.1016 5.82812 73.9714 5.93229 73.7891 6.0625C73.6068 6.19271 73.4115 6.32292 73.2031 6.45312C72.9948 6.55729 72.7865 6.67448 72.5781 6.80469C72.3698 6.90885 72.2135 6.97396 72.1094 7C71.8229 7.10417 71.5885 7.27344 71.4062 7.50781C71.224 7.74219 71.0547 7.88542 70.8984 7.9375C70.7422 7.98958 70.638 8.04167 70.5859 8.09375C70.5078 8.14583 70.3255 8.1849 70.0391 8.21094C69.7526 8.21094 69.5052 8.28906 69.2969 8.44531C69.2188 8.4974 69.1406 8.58854 69.0625 8.71875C68.9844 8.84896 68.9193 8.95312 68.8672 9.03125C68.6589 9.52604 68.3594 9.98177 67.9688 10.3984C67.6042 10.7891 67.1615 11.0625 66.6406 11.2188C66.4323 11.2708 66.263 11.375 66.1328 11.5312C66.0286 11.6615 65.9375 11.8307 65.8594 12.0391C65.7812 12.2214 65.7031 12.4167 65.625 12.625C65.5469 12.8073 65.4427 12.9766 65.3125 13.1328L64.7656 13.6797C64.5573 13.888 64.401 14.0964 64.2969 14.3047C64.2188 14.513 64.1146 14.7474 63.9844 15.0078C63.8542 15.2682 63.7109 15.5026 63.5547 15.7109C63.4245 15.9193 63.2682 16.1406 63.0859 16.375C62.9818 16.4792 62.8906 16.5964 62.8125 16.7266C62.7604 16.8568 62.7083 16.987 62.6562 17.1172C62.6042 17.2474 62.5781 17.3776 62.5781 17.5078C62.6042 17.638 62.6172 17.7812 62.6172 17.9375C62.6172 18.5885 62.6823 19.1224 62.8125 19.5391C62.9427 19.9557 63.3854 20.2292 64.1406 20.3594C64.4271 20.4115 64.6745 20.5417 64.8828 20.75C65.1172 20.9583 65.3906 21.0625 65.7031 21.0625C65.9896 21.0625 66.263 21.1276 66.5234 21.2578C66.6276 21.2839 66.7578 21.2839 66.9141 21.2578C67.0703 21.2057 67.1875 21.1276 67.2656 21.0234C67.4479 20.8411 67.6432 20.6849 67.8516 20.5547C68.0599 20.4245 68.2682 20.2812 68.4766 20.125C68.6589 19.9948 68.8932 19.9427 69.1797 19.9688C69.4661 19.9948 69.7396 19.9167 70 19.7344C70.2083 19.5781 70.4167 19.526 70.625 19.5781C70.9896 19.5781 71.3411 19.526 71.6797 19.4219C72.0443 19.3177 72.3438 19.2786 72.5781 19.3047C72.8125 19.3568 72.9557 19.474 73.0078 19.6562C73.0859 19.8125 73.125 19.9948 73.125 20.2031C73.125 20.4115 73.0859 20.6328 73.0078 20.8672C72.9557 21.0755 72.9036 21.2578 72.8516 21.4141C72.8255 21.4661 72.8385 21.5052 72.8906 21.5312C72.9688 21.5573 73.0339 21.5703 73.0859 21.5703C73.112 21.5703 73.138 21.5833 73.1641 21.6094C73.2161 21.6354 73.2161 21.6615 73.1641 21.6875C73.1641 21.7396 73.151 21.7786 73.125 21.8047C73.099 21.8047 73.0729 21.8307 73.0469 21.8828C72.8385 22.1432 72.6693 22.3255 72.5391 22.4297C72.4089 22.5339 72.2786 22.625 72.1484 22.7031C72.0182 22.7552 71.875 22.8073 71.7188 22.8594C71.5885 22.9115 71.4193 23.0156 71.2109 23.1719C71.0807 23.25 70.9505 23.3281 70.8203 23.4062C70.7161 23.4583 70.599 23.5104 70.4688 23.5625C70.3125 23.6146 70.1562 23.6276 70 23.6016C69.8698 23.5495 69.7266 23.4974 69.5703 23.4453C69.4141 23.3932 69.2578 23.3542 69.1016 23.3281C68.9714 23.276 68.8411 23.276 68.7109 23.3281C68.6328 23.3542 68.5286 23.4193 68.3984 23.5234C68.2682 23.6276 68.1771 23.7057 68.125 23.7578C67.8385 23.9401 67.5911 24.0312 67.3828 24.0312C67.2526 24.0312 67.1224 24.0833 66.9922 24.1875C66.888 24.2917 66.8099 24.4089 66.7578 24.5391C66.6797 24.6693 66.5755 24.7604 66.4453 24.8125C66.3411 24.8646 66.224 24.9167 66.0938 24.9688C65.9896 24.9948 65.8854 25.0469 65.7812 25.125C65.6771 25.2031 65.5859 25.3333 65.5078 25.5156C65.3776 25.8802 65.1693 26.2318 64.8828 26.5703C64.6224 26.9089 64.3359 27.1823 64.0234 27.3906C63.8151 27.5208 63.5417 27.6641 63.2031 27.8203C62.8906 27.9766 62.6693 28.1458 62.5391 28.3281C62.4089 28.5365 62.3568 28.7969 62.3828 29.1094C62.4089 29.4219 62.3438 29.7214 62.1875 30.0078C62.0833 30.2161 61.9141 30.4375 61.6797 30.6719C61.5495 30.8021 61.4714 30.9323 61.4453 31.0625C61.4453 31.1667 61.4453 31.2839 61.4453 31.4141C61.4453 31.5443 61.4323 31.6745 61.4062 31.8047C61.4062 31.9349 61.3411 32.0651 61.2109 32.1953C61.0807 32.3516 61.0807 32.5078 61.2109 32.6641C61.3672 32.8203 61.4844 32.9896 61.5625 33.1719C61.6406 33.4323 61.6536 33.7188 61.6016 34.0312C61.5755 34.1615 61.6146 34.3177 61.7188 34.5C61.8229 34.6823 61.9531 34.8516 62.1094 35.0078C62.2917 35.1641 62.474 35.2943 62.6562 35.3984C62.8385 35.5026 63.0078 35.5286 63.1641 35.4766C63.2943 35.4245 63.3984 35.4505 63.4766 35.5547C63.5807 35.6589 63.6589 35.75 63.7109 35.8281C63.8672 36.1146 64.0625 36.2578 64.2969 36.2578C64.5573 36.2318 64.8307 36.1797 65.1172 36.1016C65.3776 36.0495 65.638 36.1016 65.8984 36.2578C66.1589 36.388 66.4323 36.4531 66.7188 36.4531C66.8229 36.4531 66.9271 36.4531 67.0312 36.4531C67.1354 36.4271 67.2396 36.4141 67.3438 36.4141C67.5 36.4141 67.6172 36.401 67.6953 36.375C67.9818 36.375 68.2161 36.3099 68.3984 36.1797C68.6068 36.0495 68.7891 35.8932 68.9453 35.7109C69.0495 35.6068 69.1667 35.5547 69.2969 35.5547C69.4531 35.5286 69.5964 35.5156 69.7266 35.5156C69.8828 35.5156 70.026 35.5156 70.1562 35.5156C70.3125 35.4896 70.4427 35.4115 70.5469 35.2812C70.651 35.151 70.7552 35.0859 70.8594 35.0859C70.9896 35.0859 71.1198 35.112 71.25 35.1641C71.4062 35.2161 71.5495 35.2161 71.6797 35.1641C71.8099 35.0859 71.9271 35.0078 72.0312 34.9297C72.1354 34.8516 72.2526 34.7865 72.3828 34.7344C72.513 34.6562 72.6562 34.6302 72.8125 34.6562C73.151 34.7083 73.4115 34.5911 73.5938 34.3047C73.75 34.0703 73.9714 33.9531 74.2578 33.9531C74.5443 33.9271 74.8047 33.8229 75.0391 33.6406C75.2474 33.4844 75.4297 33.3021 75.5859 33.0938C75.6901 32.9635 75.8203 32.8854 75.9766 32.8594C76.1328 32.8333 76.2891 32.8464 76.4453 32.8984C76.5755 32.9245 76.7318 32.9375 76.9141 32.9375C77.0964 32.9115 77.2396 32.8464 77.3438 32.7422C77.5521 32.5599 77.7344 32.3776 77.8906 32.1953C78.0729 31.987 78.3073 31.8307 78.5938 31.7266C78.8802 31.5964 79.1146 31.4922 79.2969 31.4141C79.4792 31.3359 79.6745 31.1536 79.8828 30.8672C80.0391 30.6068 80.2865 30.5286 80.625 30.6328C80.7552 30.6849 80.8724 30.6849 80.9766 30.6328C81.1068 30.5547 81.2109 30.4766 81.2891 30.3984C81.3932 30.3203 81.4974 30.2422 81.6016 30.1641C81.7057 30.0599 81.8229 29.9948 81.9531 29.9688C82.3698 29.8646 82.6693 29.6172 82.8516 29.2266C83.1901 29.2005 83.4375 29.1354 83.5938 29.0312C83.75 28.901 83.9323 28.8359 84.1406 28.8359C84.2188 28.8359 84.3359 28.7969 84.4922 28.7188C84.6484 28.6406 84.8047 28.5495 84.9609 28.4453C85.1172 28.3411 85.2604 28.25 85.3906 28.1719C85.5469 28.0677 85.651 28.0156 85.7031 28.0156C85.8333 27.9896 85.9505 27.9766 86.0547 27.9766C86.1849 27.9766 86.3151 27.9505 86.4453 27.8984C86.5755 27.8464 86.6797 27.8724 86.7578 27.9766C86.8359 28.0807 86.901 28.1849 86.9531 28.2891ZM105.547 23.25C105.573 23.5885 105.534 23.9141 105.43 24.2266C105.352 24.5391 105.286 24.8516 105.234 25.1641C105.182 25.4505 105.169 25.763 105.195 26.1016C105.221 26.4141 105.208 26.7135 105.156 27C105.078 27.3646 105.013 27.7552 104.961 28.1719C104.935 28.5625 104.896 28.9401 104.844 29.3047C104.792 29.5911 104.818 29.8906 104.922 30.2031C105.052 30.5156 105.091 30.8151 105.039 31.1016C104.987 31.4141 104.948 31.7266 104.922 32.0391C104.896 32.3255 104.857 32.625 104.805 32.9375C104.779 33.0677 104.701 33.2109 104.57 33.3672C104.466 33.4974 104.349 33.5885 104.219 33.6406C104.167 33.901 104.076 34.1354 103.945 34.3438C103.841 34.5521 103.763 34.7865 103.711 35.0469C103.659 35.2552 103.607 35.4635 103.555 35.6719C103.529 35.8542 103.49 36.0495 103.438 36.2578C103.62 36.3359 103.711 36.4401 103.711 36.5703C103.737 36.6745 103.75 36.8047 103.75 36.9609C103.672 37.0911 103.607 37.2604 103.555 37.4688C103.503 37.6771 103.451 37.8724 103.398 38.0547C103.346 38.2109 103.268 38.3672 103.164 38.5234C103.086 38.7057 103.021 38.888 102.969 39.0703C102.891 39.4349 102.773 39.7604 102.617 40.0469C102.461 40.3594 102.331 40.6849 102.227 41.0234C102.122 41.388 102.044 41.7396 101.992 42.0781C101.966 42.4167 101.888 42.7552 101.758 43.0938C101.68 43.3021 101.589 43.5104 101.484 43.7188C101.38 43.9531 101.276 44.1745 101.172 44.3828L101.094 44.5391L101.211 44.6562V45.125H101.406C101.172 45.4375 100.99 45.724 100.859 45.9844C100.729 46.2708 100.612 46.5443 100.508 46.8047C100.404 47.0651 100.273 47.3255 100.117 47.5859C99.9609 47.8724 99.7266 48.1719 99.4141 48.4844C99.4661 48.5885 99.4271 48.7578 99.2969 48.9922C99.1927 49.2266 99.0625 49.4609 98.9062 49.6953C98.75 49.9557 98.5807 50.1901 98.3984 50.3984C98.2422 50.6068 98.125 50.75 98.0469 50.8281C97.9427 50.9583 97.8646 51.1016 97.8125 51.2578C97.7604 51.4141 97.7083 51.5573 97.6562 51.6875C97.5 52.026 97.3307 52.3385 97.1484 52.625C96.9661 52.9375 96.7839 53.276 96.6016 53.6406C96.4714 53.849 96.3542 54.0443 96.25 54.2266C96.1458 54.4349 96.0286 54.6432 95.8984 54.8516C95.6641 55.1641 95.3776 55.4115 95.0391 55.5938C94.7005 55.8021 94.388 56.0625 94.1016 56.375C93.8411 56.6615 93.6198 56.974 93.4375 57.3125C93.2812 57.6771 93.0599 58.0026 92.7734 58.2891C92.487 58.5755 92.1875 58.8229 91.875 59.0312C91.5625 59.2396 91.25 59.474 90.9375 59.7344C90.7292 59.9167 90.4297 60.1901 90.0391 60.5547C89.6484 60.9453 89.3229 61.2057 89.0625 61.3359C89.0365 61.3359 89.0104 61.3359 88.9844 61.3359C88.9844 61.362 88.9714 61.375 88.9453 61.375C88.3203 61.5833 87.7734 61.7786 87.3047 61.9609C86.8359 62.1432 86.263 62.2344 85.5859 62.2344H85.0781C84.6615 62.2604 84.2839 62.3125 83.9453 62.3906C83.5807 62.4688 83.2031 62.3776 82.8125 62.1172H82.7734L82.7344 62.0781C82.474 61.8177 82.2135 61.5703 81.9531 61.3359C81.6927 61.1016 81.4583 60.8151 81.25 60.4766C81.1198 60.2682 81.0417 60.0339 81.0156 59.7734C80.9896 59.5391 80.9635 59.2917 80.9375 59.0312C80.9115 58.5885 80.8464 58.1589 80.7422 57.7422C80.638 57.3516 80.5599 56.9349 80.5078 56.4922C80.4818 56.362 80.4688 56.2318 80.4688 56.1016C80.4427 55.9714 80.4036 55.8411 80.3516 55.7109C80.2995 55.5026 80.2604 55.2943 80.2344 55.0859C80.1823 54.8776 80.1562 54.6432 80.1562 54.3828C80.2083 54.2526 80.2604 54.1484 80.3125 54.0703C80.3385 53.9922 80.4167 53.9141 80.5469 53.8359C80.625 53.6016 80.6641 53.3151 80.6641 52.9766C80.6641 52.638 80.6771 52.3385 80.7031 52.0781C80.7292 51.7135 80.8464 51.3359 81.0547 50.9453C81.263 50.5547 81.4193 50.1771 81.5234 49.8125C81.5755 49.526 81.6016 49.2396 81.6016 48.9531C81.6016 48.6927 81.6276 48.4193 81.6797 48.1328C81.7578 47.612 81.901 47.2083 82.1094 46.9219C82.3177 46.6354 82.5651 46.2969 82.8516 45.9062C82.9036 45.8542 82.9427 45.8151 82.9688 45.7891C82.9688 45.763 82.9948 45.724 83.0469 45.6719C82.9948 45.5417 83.0339 45.3594 83.1641 45.125C83.3464 44.9688 83.5156 44.7604 83.6719 44.5C83.8281 44.2656 83.9714 44.0443 84.1016 43.8359L84.7266 42.9375C84.987 42.5729 85.2604 42.2344 85.5469 41.9219C85.8073 41.6354 86.0417 41.3099 86.25 40.9453C86.3021 40.8932 86.3281 40.8542 86.3281 40.8281C86.3281 40.8281 86.3542 40.8021 86.4062 40.75C86.6927 40.4896 86.9141 40.2031 87.0703 39.8906C87.2266 39.5781 87.4479 39.3047 87.7344 39.0703C88.0208 38.862 88.3073 38.6667 88.5938 38.4844C88.8802 38.3021 89.1667 38.1068 89.4531 37.8984C89.7396 37.6901 90.013 37.4557 90.2734 37.1953C90.5339 36.9609 90.8073 36.7396 91.0938 36.5312C91.4062 36.3229 91.7188 36.1406 92.0312 35.9844C92.3698 35.8281 92.6823 35.6589 92.9688 35.4766C93.2812 35.3203 93.5807 35.151 93.8672 34.9688C94.1536 34.7865 94.4401 34.6042 94.7266 34.4219C95.0391 34.2656 95.3646 34.1224 95.7031 33.9922C96.0677 33.862 96.3932 33.7318 96.6797 33.6016C97.0703 33.3932 97.4479 33.1589 97.8125 32.8984C98.2031 32.638 98.6068 32.4297 99.0234 32.2734L99.3359 32.5469C99.3359 32.5469 99.401 32.5469 99.5312 32.5469C99.6875 32.5469 99.8438 32.5339 100 32.5078C100.182 32.4818 100.352 32.4688 100.508 32.4688C100.69 32.4688 100.807 32.4688 100.859 32.4688C101.146 32.2865 101.458 32.2214 101.797 32.2734C101.797 31.987 101.797 31.7135 101.797 31.4531C101.797 31.1667 101.81 30.8802 101.836 30.5938C101.836 30.5677 101.836 30.5547 101.836 30.5547C101.862 30.5547 101.875 30.5417 101.875 30.5156C101.901 30.4635 101.914 30.3203 101.914 30.0859C101.914 29.8516 101.914 29.6823 101.914 29.5781C101.94 29.1354 101.979 28.7318 102.031 28.3672C102.083 27.9766 102.135 27.5599 102.188 27.1172C102.214 26.987 102.24 26.8568 102.266 26.7266C102.292 26.5964 102.305 26.4661 102.305 26.3359C102.331 25.9974 102.409 25.6849 102.539 25.3984C102.695 25.112 102.799 24.7995 102.852 24.4609C102.695 24.2005 102.604 23.888 102.578 23.5234C102.552 23.1589 102.526 22.8073 102.5 22.4688C102.5 22.1302 102.474 21.8307 102.422 21.5703C102.37 21.2839 102.266 21.0755 102.109 20.9453C101.875 20.9193 101.562 20.9583 101.172 21.0625C100.807 21.1406 100.521 21.2448 100.312 21.375C100.182 21.4531 100.013 21.6094 99.8047 21.8438C99.6224 22.0781 99.4661 22.2604 99.3359 22.3906C99.2839 22.4427 99.2057 22.5469 99.1016 22.7031C99.0234 22.8594 98.9583 22.9505 98.9062 22.9766C98.6198 23.1589 98.3073 23.3411 97.9688 23.5234C97.6562 23.7057 97.3828 23.9141 97.1484 24.1484C96.888 24.4349 96.6536 24.7214 96.4453 25.0078C96.263 25.2682 96.0417 25.5286 95.7812 25.7891C95.5469 26.0495 95.2995 26.3099 95.0391 26.5703C94.7786 26.8047 94.5182 27.0391 94.2578 27.2734C93.9974 27.5339 93.7109 27.7552 93.3984 27.9375C93.0859 28.1198 92.7865 28.3151 92.5 28.5234C92.0833 28.8359 91.6406 29.1354 91.1719 29.4219C90.7031 29.6823 90.2474 29.9427 89.8047 30.2031C89.7266 30.0469 89.6875 29.8776 89.6875 29.6953C89.4792 29.6953 89.2839 29.6562 89.1016 29.5781C88.9193 29.474 88.737 29.3958 88.5547 29.3438C88.6589 29.1354 88.763 28.9531 88.8672 28.7969C88.9453 28.6406 89.0234 28.4974 89.1016 28.3672C89.2057 28.237 89.3099 28.1068 89.4141 27.9766C89.5182 27.8464 89.6615 27.6901 89.8438 27.5078C89.9219 27.4297 90.013 27.3385 90.1172 27.2344C90.2474 27.1302 90.3385 27.026 90.3906 26.9219C90.5469 26.6615 90.625 26.362 90.625 26.0234C90.651 25.6589 90.8073 25.2943 91.0938 24.9297C91.3021 24.6953 91.5234 24.4479 91.7578 24.1875C91.9922 23.901 92.1875 23.6406 92.3438 23.4062C92.5 23.1719 92.6432 22.9505 92.7734 22.7422C92.9297 22.5339 93.112 22.3255 93.3203 22.1172L93.7891 21.5312C93.9974 21.2188 94.1667 20.8802 94.2969 20.5156C94.4531 20.125 94.6484 19.7604 94.8828 19.4219C95.0391 19.1875 95.2344 18.901 95.4688 18.5625C95.7031 18.224 95.8594 17.9115 95.9375 17.625C96.0156 17.3646 96.1198 17.1432 96.25 16.9609C96.3802 16.7526 96.5234 16.5443 96.6797 16.3359C96.7318 16.2839 96.7839 16.2188 96.8359 16.1406C96.888 16.0365 96.9401 15.9583 96.9922 15.9062C97.0703 15.75 97.1094 15.4896 97.1094 15.125C97.1354 14.7344 97.1745 14.4089 97.2266 14.1484C97.4349 13.888 97.6042 13.6406 97.7344 13.4062C97.8646 13.1719 97.9688 12.8854 98.0469 12.5469C98.125 12.2604 98.2422 11.8958 98.3984 11.4531C98.5547 11.0104 98.75 10.6849 98.9844 10.4766C99.2708 9.40885 99.6745 8.44531 100.195 7.58594C100.299 7.42969 100.391 7.23438 100.469 7C100.547 6.73958 100.612 6.58333 100.664 6.53125C100.664 6.42708 100.69 6.27083 100.742 6.0625C100.82 5.85417 100.898 5.64583 100.977 5.4375C101.055 5.20312 101.133 4.99479 101.211 4.8125C101.289 4.60417 101.354 4.44792 101.406 4.34375C101.406 4.1875 101.393 4.08333 101.367 4.03125C100.69 4.39583 100.143 4.7474 99.7266 5.08594C99.3099 5.39844 98.9193 5.91927 98.5547 6.64844C98.2682 6.85677 97.9167 7.07812 97.5 7.3125C97.0833 7.52083 96.7708 7.74219 96.5625 7.97656C96.3281 8.21094 96.1458 8.52344 96.0156 8.91406C95.9115 9.30469 95.7552 9.65625 95.5469 9.96875C95.3385 10.2812 95.0651 10.5547 94.7266 10.7891C94.4141 10.9974 94.1536 11.2708 93.9453 11.6094C93.763 11.8958 93.5938 12.1823 93.4375 12.4688C93.3073 12.7552 93.1641 13.0417 93.0078 13.3281C92.8776 13.6146 92.7995 13.9271 92.7734 14.2656C92.7734 14.5781 92.7083 14.8906 92.5781 15.2031C92.5 15.4115 92.3828 15.5938 92.2266 15.75C92.0964 15.8802 91.9661 16.0365 91.8359 16.2188C91.7578 16.2969 91.6667 16.388 91.5625 16.4922C91.4844 16.5703 91.4193 16.6745 91.3672 16.8047C91.263 17.0911 91.1458 17.4167 91.0156 17.7812C90.9115 18.1458 90.8333 18.4714 90.7812 18.7578C90.4948 18.9661 90.2604 19.1354 90.0781 19.2656C89.8958 19.3698 89.6094 19.3828 89.2188 19.3047C89.1927 19.3047 89.1536 19.3047 89.1016 19.3047C89.0755 19.2786 89.0495 19.2656 89.0234 19.2656L87.9297 19.3438L88.3984 18.2891C88.5286 17.9766 88.6328 17.651 88.7109 17.3125C88.763 16.974 88.8542 16.6484 88.9844 16.3359C89.1146 15.9714 89.2969 15.6458 89.5312 15.3594C89.7656 15.0729 89.9479 14.7604 90.0781 14.4219C90.2083 14.0833 90.2995 13.7448 90.3516 13.4062C90.4036 13.0417 90.5208 12.6901 90.7031 12.3516C90.8854 12.0391 91.0547 11.7135 91.2109 11.375C91.3932 11.0104 91.5885 10.6719 91.7969 10.3594C92.0052 9.99479 92.2656 9.72135 92.5781 9.53906C92.8906 9.33073 93.1771 9.08333 93.4375 8.79688C93.5156 8.69271 93.5807 8.58854 93.6328 8.48438C93.7109 8.35417 93.776 8.22396 93.8281 8.09375C93.9062 7.9375 94.0365 7.71615 94.2188 7.42969C94.401 7.14323 94.5964 6.86979 94.8047 6.60938C95.0391 6.32292 95.2604 6.0625 95.4688 5.82812C95.6771 5.59375 95.8594 5.4375 96.0156 5.35938H95.9766C96.263 5.09896 96.5495 4.86458 96.8359 4.65625C97.1224 4.44792 97.3958 4.21354 97.6562 3.95312C97.9427 3.69271 98.1901 3.40625 98.3984 3.09375C98.6068 2.78125 98.8672 2.50781 99.1797 2.27344C99.4922 2.0651 99.8177 1.88281 100.156 1.72656C100.521 1.54427 100.872 1.34896 101.211 1.14062C101.237 1.14062 101.25 1.14062 101.25 1.14062C101.276 1.11458 101.302 1.10156 101.328 1.10156C101.771 0.971354 102.122 0.932292 102.383 0.984375C102.669 1.03646 102.904 1.16667 103.086 1.375C103.268 1.55729 103.398 1.80469 103.477 2.11719C103.581 2.42969 103.672 2.75521 103.75 3.09375C103.828 3.45833 103.88 3.77083 103.906 4.03125C103.958 4.29167 103.971 4.53906 103.945 4.77344C103.945 5.00781 103.893 5.25521 103.789 5.51562C103.711 5.75 103.568 6.02344 103.359 6.33594C103.281 6.4401 103.19 6.57031 103.086 6.72656C103.008 6.88281 102.943 7.01302 102.891 7.11719C102.812 7.48177 102.773 7.83333 102.773 8.17188C102.799 8.48438 102.747 8.8099 102.617 9.14844C102.539 9.33073 102.435 9.51302 102.305 9.69531C102.174 9.8776 102.031 10.0469 101.875 10.2031C101.745 10.3594 101.628 10.5026 101.523 10.6328C101.419 10.737 101.354 10.8281 101.328 10.9062C101.276 10.9583 101.237 11.0625 101.211 11.2188C101.211 11.349 101.198 11.4922 101.172 11.6484C101.172 11.8047 101.159 11.9479 101.133 12.0781C101.133 12.2083 101.12 12.3125 101.094 12.3906L101.172 12.625C101.12 12.8854 101.055 13.0807 100.977 13.2109C100.898 13.3151 100.807 13.4714 100.703 13.6797C100.599 13.9141 100.495 14.1484 100.391 14.3828C100.286 14.5911 100.169 14.8125 100.039 15.0469C99.987 15.151 99.9219 15.2422 99.8438 15.3203C99.7656 15.3984 99.7005 15.4896 99.6484 15.5938C99.4661 15.9323 99.3359 16.2969 99.2578 16.6875C99.1797 17.0521 99.0365 17.4036 98.8281 17.7422C98.6458 18.0547 98.4896 18.3672 98.3594 18.6797C98.2292 18.9661 98.099 19.2786 97.9688 19.6172C97.7083 20.2682 97.3828 20.8672 96.9922 21.4141C96.8359 21.6224 96.7318 21.7917 96.6797 21.9219C96.7839 21.7917 96.9141 21.6875 97.0703 21.6094C97.2266 21.5312 97.3698 21.4401 97.5 21.3359C97.8125 21.0495 98.0729 20.75 98.2812 20.4375C98.5156 20.125 98.8021 19.8516 99.1406 19.6172C99.5052 19.3307 99.8568 19.0573 100.195 18.7969C100.56 18.5104 100.924 18.237 101.289 17.9766C101.706 18.0286 102.096 18.1068 102.461 18.2109C102.826 18.3151 103.216 18.3932 103.633 18.4453C104.232 19.0182 104.688 19.7604 105 20.6719C105.312 21.5833 105.495 22.4427 105.547 23.25ZM100.781 35.1641C100.677 35.2161 100.521 35.2812 100.312 35.3594C100.104 35.4115 99.8828 35.4766 99.6484 35.5547C99.4401 35.6328 99.2448 35.7109 99.0625 35.7891C98.8802 35.8411 98.75 35.9062 98.6719 35.9844L98.7109 35.9453C98.3464 36.1276 97.9688 36.2057 97.5781 36.1797C97.2135 36.1276 96.888 36.1927 96.6016 36.375C96.2891 36.5312 96.0026 36.7396 95.7422 37C95.4818 37.2865 95.2083 37.5339 94.9219 37.7422C94.6094 37.9505 94.2839 38.1068 93.9453 38.2109C93.6328 38.3411 93.3203 38.5104 93.0078 38.7188C92.4349 39.1094 91.849 39.487 91.25 39.8516C90.6771 40.2422 90.1172 40.6589 89.5703 41.1016C89.3359 41.3099 89.1406 41.5573 88.9844 41.8438C88.8542 42.1562 88.6849 42.4297 88.4766 42.6641C88.0339 43.1589 87.5911 43.6276 87.1484 44.0703C86.7057 44.5391 86.3151 45.0729 85.9766 45.6719C85.8203 45.9583 85.7292 46.2708 85.7031 46.6094C85.6771 46.9479 85.599 47.2604 85.4688 47.5469C85.3385 47.8594 85.1302 48.1589 84.8438 48.4453C84.5312 48.7318 84.3359 48.9792 84.2578 49.1875C84.2057 49.3698 84.1797 49.5781 84.1797 49.8125C84.1536 50.0469 84.1276 50.2552 84.1016 50.4375C84.0755 50.5417 84.0495 50.6458 84.0234 50.75C83.9974 50.8542 83.9714 50.9583 83.9453 51.0625C83.9453 51.1406 83.9193 51.2578 83.8672 51.4141C83.7891 51.5964 83.724 51.7786 83.6719 51.9609C83.6198 52.1432 83.5677 52.2995 83.5156 52.4297C83.4635 52.5859 83.4375 52.6771 83.4375 52.7031C83.4635 52.8594 83.4896 53.0417 83.5156 53.25C83.5156 53.4844 83.5286 53.7188 83.5547 53.9531C83.5547 54.1875 83.5547 54.4089 83.5547 54.6172C83.5547 54.8516 83.5417 55.0339 83.5156 55.1641C83.4896 55.2943 83.4635 55.4245 83.4375 55.5547C83.4115 55.7109 83.3854 55.8542 83.3594 55.9844C83.3073 56.2188 83.3333 56.5703 83.4375 57.0391C83.5417 57.5078 83.6328 57.8594 83.7109 58.0938C83.8672 58.5104 84.1667 58.849 84.6094 59.1094V59.1484H84.6484C84.8047 59.2786 84.987 59.3568 85.1953 59.3828C85.3776 59.4089 85.5599 59.4219 85.7422 59.4219C85.9505 59.4219 86.1849 59.4219 86.4453 59.4219C86.7057 59.4479 86.9141 59.3958 87.0703 59.2656C87.3568 59.0833 87.6432 58.875 87.9297 58.6406C88.1901 58.4062 88.4505 58.1849 88.7109 57.9766C88.9974 57.7422 89.2839 57.5339 89.5703 57.3516C89.8828 57.1953 90.1693 57.013 90.4297 56.8047C90.5599 56.7005 90.651 56.5833 90.7031 56.4531C90.7812 56.3229 90.8594 56.1797 90.9375 56.0234C91.1458 55.6849 91.3672 55.3854 91.6016 55.125C91.8359 54.8646 92.0573 54.5651 92.2656 54.2266C92.3438 54.0964 92.4219 53.9531 92.5 53.7969C92.6042 53.6667 92.7083 53.5365 92.8125 53.4062C93.0208 53.1198 93.2812 52.8724 93.5938 52.6641C93.9062 52.4557 94.1667 52.2083 94.375 51.9219C94.5573 51.6615 94.6875 51.349 94.7656 50.9844C94.8698 50.6198 95.013 50.2943 95.1953 50.0078C95.3776 49.6953 95.5599 49.3958 95.7422 49.1094C95.9245 48.8229 96.0938 48.5365 96.25 48.25C96.4323 47.9115 96.6536 47.612 96.9141 47.3516C97.1745 47.1172 97.3828 46.8568 97.5391 46.5703C97.5651 46.4922 97.6172 46.3359 97.6953 46.1016C97.7995 45.8932 97.9036 45.6719 98.0078 45.4375C98.112 45.2031 98.2031 44.9818 98.2812 44.7734C98.3594 44.5651 98.3984 44.4219 98.3984 44.3438C98.3984 44.0573 98.4115 43.7708 98.4375 43.4844C98.4635 43.1979 98.5286 42.9115 98.6328 42.625C98.8151 42.0781 99.0104 41.5312 99.2188 40.9844C99.4271 40.4635 99.6354 39.9167 99.8438 39.3438C99.6875 39.2135 99.6094 39.0182 99.6094 38.7578L99.6484 38.6797V38.5625C100.117 37.8333 100.482 37.0911 100.742 36.3359C100.794 36.2057 100.794 36.0234 100.742 35.7891C100.716 35.5286 100.729 35.3203 100.781 35.1641ZM133.477 21.6484C133.268 22.1693 133.034 22.599 132.773 22.9375C132.539 23.276 132.266 23.6146 131.953 23.9531C131.641 24.2656 131.289 24.6302 130.898 25.0469C130.508 25.4375 130.078 25.9583 129.609 26.6094L129.531 26.6484C129.297 27.1172 128.997 27.5729 128.633 28.0156C128.372 28.3542 128.216 28.6016 128.164 28.7578C128.112 28.888 128.06 29.0182 128.008 29.1484C127.982 29.2526 127.904 29.3698 127.773 29.5C127.669 29.6302 127.422 29.8385 127.031 30.125C126.823 30.3073 126.615 30.4896 126.406 30.6719C126.198 30.8542 126.003 31.0625 125.82 31.2969C125.82 31.375 125.807 31.4922 125.781 31.6484C125.755 31.8047 125.716 31.987 125.664 32.1953C125.638 32.3776 125.599 32.5599 125.547 32.7422C125.495 32.9245 125.456 33.0677 125.43 33.1719C125.299 33.6667 125.182 34.1745 125.078 34.6953C125 35.2161 124.987 35.737 125.039 36.2578C125.065 36.3099 125.091 36.4271 125.117 36.6094C125.143 36.7656 125.169 36.8698 125.195 36.9219L125.156 37C124.714 37.9115 124.362 38.875 124.102 39.8906C123.867 40.9323 123.75 41.974 123.75 43.0156H123.711C123.451 43.6146 123.216 44.2656 123.008 44.9688C122.826 45.6719 122.734 46.362 122.734 47.0391C122.656 47.1172 122.578 47.1953 122.5 47.2734C122.448 47.3516 122.357 47.4297 122.227 47.5078C122.122 47.5859 122.005 47.6901 121.875 47.8203C121.745 47.9505 121.745 48.1068 121.875 48.2891C122.005 48.6016 122.109 48.888 122.188 49.1484C121.901 49.2526 121.719 49.3828 121.641 49.5391C121.589 49.6953 121.562 49.8516 121.562 50.0078C121.562 50.1901 121.549 50.3594 121.523 50.5156C121.497 50.6979 121.406 50.8542 121.25 50.9844V51.0625C121.25 51.4792 121.172 51.8177 121.016 52.0781C120.885 52.3646 120.729 52.612 120.547 52.8203C120.365 53.0547 120.195 53.2891 120.039 53.5234C119.909 53.7578 119.844 54.0573 119.844 54.4219V54.5781L119.883 54.6562L119.844 54.7344C119.349 55.6979 118.711 56.6094 117.93 57.4688C117.591 57.8333 117.214 58.276 116.797 58.7969C116.406 59.3177 116.185 59.8385 116.133 60.3594C116.107 60.3594 116.081 60.3464 116.055 60.3203C116.029 60.3203 115.99 60.3203 115.938 60.3203C115.651 60.3203 115.365 60.4245 115.078 60.6328C114.792 60.8672 114.492 61.0885 114.18 61.2969C113.867 61.5312 113.529 61.7005 113.164 61.8047C112.826 61.9089 112.461 61.8438 112.07 61.6094L112.031 61.5703L111.953 61.6094C111.562 61.8177 111.159 61.9089 110.742 61.8828C110.326 61.8568 109.922 61.7656 109.531 61.6094C109.115 61.4531 108.724 61.2448 108.359 60.9844C107.995 60.724 107.656 60.4635 107.344 60.2031C106.875 59.8125 106.523 59.3177 106.289 58.7188C106.055 58.1458 105.911 57.5599 105.859 56.9609C105.807 56.7526 105.794 56.5312 105.82 56.2969C105.846 56.0885 105.846 55.8802 105.82 55.6719L105.43 55.5547L105.664 55.0859H105.625C105.599 55.0859 105.573 55.0729 105.547 55.0469C105.26 54.8125 105.13 54.5391 105.156 54.2266C105.182 53.9141 105.26 53.6016 105.391 53.2891C105.521 52.9766 105.638 52.6641 105.742 52.3516C105.846 52.0391 105.82 51.7526 105.664 51.4922C105.716 51.4401 105.742 51.401 105.742 51.375C106.003 51.0104 106.224 50.6328 106.406 50.2422C106.589 49.8516 106.771 49.4609 106.953 49.0703C107.031 48.9141 107.148 48.6927 107.305 48.4062C107.435 48.1198 107.591 47.8203 107.773 47.5078C107.93 47.1953 108.086 46.9089 108.242 46.6484C108.398 46.388 108.529 46.2057 108.633 46.1016C108.763 45.9714 108.854 45.8281 108.906 45.6719C108.932 45.5156 108.971 45.3594 109.023 45.2031C109.102 44.8385 109.219 44.5 109.375 44.1875C109.505 43.901 109.779 43.7318 110.195 43.6797H110.273L110.312 43.6016C110.885 42.7422 111.523 41.8958 112.227 41.0625C112.956 40.2292 113.737 39.513 114.57 38.9141H114.609V38.875C114.766 38.5365 114.987 38.1849 115.273 37.8203C115.586 37.4557 115.898 37.1042 116.211 36.7656C116.523 36.401 116.81 36.0755 117.07 35.7891C117.331 35.5026 117.5 35.2552 117.578 35.0469C117.76 35.099 117.917 35.0339 118.047 34.8516C118.177 34.6432 118.307 34.4219 118.438 34.1875C118.594 33.9531 118.763 33.7448 118.945 33.5625C119.128 33.3802 119.375 33.3021 119.688 33.3281C120 32.7031 120.326 32.2083 120.664 31.8438C121.003 31.4792 121.432 31.1016 121.953 30.7109C122.005 30.6589 122.031 30.6328 122.031 30.6328C122.083 30.3464 122.188 30.125 122.344 29.9688C122.5 29.8125 122.643 29.6823 122.773 29.5781C122.93 29.4479 123.034 29.3047 123.086 29.1484C123.138 28.9922 123.086 28.7578 122.93 28.4453C123.216 27.9245 123.164 27.3906 122.773 26.8438C122.409 27.1823 122.07 27.5339 121.758 27.8984C121.445 28.263 120.99 28.4453 120.391 28.4453C120.208 28.5755 120.065 28.7057 119.961 28.8359C119.883 28.9661 119.792 29.0833 119.688 29.1875C119.583 29.2917 119.453 29.3828 119.297 29.4609C119.141 29.513 118.906 29.5391 118.594 29.5391V29.2266L118.438 29.1484C118.255 29.2526 118.008 29.4089 117.695 29.6172C117.018 30.0078 116.393 30.3464 115.82 30.6328C115.247 30.8932 114.544 31.0234 113.711 31.0234C113.711 30.6068 113.49 30.3594 113.047 30.2812C112.995 30.4635 112.943 30.6198 112.891 30.75C112.839 30.8542 112.747 30.9714 112.617 31.1016C112.279 30.7891 111.979 30.4635 111.719 30.125C111.458 29.7604 111.211 29.3698 110.977 28.9531C110.924 28.875 110.833 28.7318 110.703 28.5234C110.599 28.3151 110.469 28.1068 110.312 27.8984C110.182 27.6901 110.052 27.5078 109.922 27.3516C109.792 27.1693 109.674 27.0651 109.57 27.0391C109.57 26.3099 109.57 25.6328 109.57 25.0078C109.57 24.3828 109.596 23.7708 109.648 23.1719C109.674 22.5469 109.74 21.9349 109.844 21.3359C109.922 20.7109 110.065 20.0339 110.273 19.3047C110.299 19.2786 110.286 19.2266 110.234 19.1484C110.208 18.9922 110.208 18.7969 110.234 18.5625C110.286 18.3281 110.339 18.0938 110.391 17.8594C110.469 17.599 110.56 17.3646 110.664 17.1562C110.768 16.9219 110.859 16.7266 110.938 16.5703C111.016 15.9714 111.094 15.3594 111.172 14.7344C111.25 14.1094 111.302 13.4974 111.328 12.8984C111.432 12.9245 111.523 12.9635 111.602 13.0156C111.706 13.0417 111.797 13.0807 111.875 13.1328C112.083 12.1432 112.344 11.1797 112.656 10.2422C112.969 9.30469 113.32 8.38021 113.711 7.46875C113.919 6.97396 114.141 6.47917 114.375 5.98438C114.609 5.46354 114.792 4.94271 114.922 4.42188V4.38281C115 4.27865 115.143 4.17448 115.352 4.07031C115.586 3.96615 115.768 3.9401 115.898 3.99219C116.055 4.04427 116.185 4.14844 116.289 4.30469C116.393 4.4349 116.471 4.59115 116.523 4.77344C116.602 4.92969 116.667 5.08594 116.719 5.24219C116.797 5.39844 116.901 5.5026 117.031 5.55469L117.461 5.71094C117.409 5.76302 117.344 5.80208 117.266 5.82812C117.188 5.85417 117.122 5.89323 117.07 5.94531C116.732 6.20573 116.523 6.60938 116.445 7.15625C116.367 7.67708 116.328 8.14583 116.328 8.5625L116.289 8.60156C116.107 9.35677 115.872 10.0599 115.586 10.7109C115.299 11.3359 115.026 11.9609 114.766 12.5859C114.505 13.2109 114.284 13.862 114.102 14.5391C113.919 15.1901 113.854 15.9323 113.906 16.7656C113.932 17.1042 113.906 17.4297 113.828 17.7422C113.75 18.0547 113.659 18.3802 113.555 18.7188C113.451 19.0312 113.346 19.3568 113.242 19.6953C113.164 20.0078 113.125 20.3333 113.125 20.6719C113.047 20.9062 112.956 21.0755 112.852 21.1797C112.747 21.2839 112.721 21.5573 112.773 22C112.826 22.2604 112.865 22.5729 112.891 22.9375C112.943 23.276 112.878 23.5625 112.695 23.7969V23.8359H112.656C112.5 24.4349 112.448 25.0729 112.5 25.75C112.552 26.4271 112.799 27 113.242 27.4688C113.503 27.7552 113.724 27.8854 113.906 27.8594C114.089 27.8073 114.284 27.7161 114.492 27.5859C114.701 27.4297 114.922 27.2865 115.156 27.1562C115.417 27 115.729 26.9479 116.094 27H116.172L116.211 26.9609C116.576 26.6745 116.927 26.4792 117.266 26.375C117.63 26.2448 117.969 26.1146 118.281 25.9844C118.62 25.8542 118.932 25.6849 119.219 25.4766C119.531 25.2422 119.805 24.8906 120.039 24.4219C120.352 24.5781 120.599 24.6172 120.781 24.5391C120.99 24.4609 121.172 24.3438 121.328 24.1875C121.484 24.0312 121.654 23.875 121.836 23.7188C122.044 23.5625 122.305 23.4844 122.617 23.4844C122.591 23.25 122.682 22.8333 122.891 22.2344C123.125 21.6094 123.385 20.9453 123.672 20.2422C123.958 19.5391 124.245 18.862 124.531 18.2109C124.818 17.5599 125.013 17.0651 125.117 16.7266L125.234 16.6875C125.573 16.6094 125.729 16.401 125.703 16.0625L125.508 15.2812C125.482 15.125 125.482 15.0078 125.508 14.9297C125.534 14.8516 125.586 14.7474 125.664 14.6172C125.82 14.2526 125.938 13.849 126.016 13.4062C126.094 12.9635 126.172 12.5599 126.25 12.1953C126.328 11.7005 126.419 11.2057 126.523 10.7109C126.654 10.2161 126.823 9.7474 127.031 9.30469L127.109 9.14844L126.758 8.99219C127.148 8.60156 127.422 8.22396 127.578 7.85938C127.734 7.49479 127.839 7.13021 127.891 6.76562C127.969 6.40104 128.034 6.03646 128.086 5.67188C128.164 5.30729 128.32 4.94271 128.555 4.57812C128.633 4.47396 128.672 4.39583 128.672 4.34375L128.828 4.42188C128.906 4.10938 129.01 3.875 129.141 3.71875C129.297 3.53646 129.466 3.39323 129.648 3.28906C129.831 3.15885 130.013 3.05469 130.195 2.97656C130.404 2.8724 130.599 2.71615 130.781 2.50781C130.99 2.5599 131.185 2.58594 131.367 2.58594C131.576 2.58594 131.771 2.61198 131.953 2.66406C132.031 2.82031 132.07 2.98958 132.07 3.17188C132.07 3.35417 132.057 3.54948 132.031 3.75781C132.031 3.9401 132.031 4.1224 132.031 4.30469C132.057 4.46094 132.109 4.59115 132.188 4.69531C132.292 4.7474 132.357 4.78646 132.383 4.8125C132.148 5.04688 131.966 5.4375 131.836 5.98438C131.706 6.53125 131.615 6.97396 131.562 7.3125C131.51 7.625 131.458 7.9375 131.406 8.25C131.38 8.5625 131.315 8.86198 131.211 9.14844C131.159 9.27865 131.094 9.38281 131.016 9.46094C130.964 9.53906 130.924 9.64323 130.898 9.77344C130.612 10.6849 130.339 11.6224 130.078 12.5859C129.818 13.5495 129.362 14.4089 128.711 15.1641V15.2031C128.424 15.8021 128.151 16.388 127.891 16.9609C127.63 17.5339 127.565 18.1589 127.695 18.8359C127.721 18.9141 127.734 18.9922 127.734 19.0703C127.76 19.1224 127.773 19.1875 127.773 19.2656L127.461 19.3047V19.3828L127.383 19.5391V19.6172L127.344 19.6953C127.526 19.8255 127.604 19.9688 127.578 20.125C127.552 20.2552 127.487 20.3854 127.383 20.5156C127.305 20.6458 127.214 20.776 127.109 20.9062C127.005 21.0365 126.953 21.1536 126.953 21.2578V21.3359L126.992 21.375C126.966 21.7396 126.927 22.1432 126.875 22.5859C126.823 23.0026 126.732 23.3932 126.602 23.7578L126.562 23.7969C126.667 24.0312 126.719 24.2526 126.719 24.4609C126.719 24.6693 126.693 24.8776 126.641 25.0859C126.615 25.2682 126.576 25.4635 126.523 25.6719C126.497 25.8802 126.484 26.1016 126.484 26.3359L126.953 26.1016C126.953 25.7109 127.07 25.4245 127.305 25.2422C127.565 25.0599 127.852 24.9167 128.164 24.8125C128.503 24.6823 128.815 24.5651 129.102 24.4609C129.414 24.3307 129.622 24.1615 129.727 23.9531H129.766C129.844 23.7969 129.909 23.6406 129.961 23.4844C130.039 23.3021 130.117 23.1458 130.195 23.0156C130.404 23.0156 130.638 22.9245 130.898 22.7422C131.159 22.5339 131.419 22.2995 131.68 22.0391C131.94 21.7526 132.188 21.4661 132.422 21.1797C132.656 20.8932 132.865 20.6589 133.047 20.4766L133.086 20.4375C133.268 20.4115 133.398 20.4375 133.477 20.5156C133.555 20.5938 133.594 20.6979 133.594 20.8281C133.62 20.9583 133.62 21.1016 133.594 21.2578C133.568 21.388 133.542 21.5052 133.516 21.6094L133.477 21.6484ZM121.445 35.125C121.081 35.4896 120.768 35.8411 120.508 36.1797C120.247 36.4922 119.974 36.7917 119.688 37.0781C119.401 37.3906 119.089 37.6901 118.75 37.9766C118.411 38.263 117.995 38.5234 117.5 38.7578L117.422 38.7969C117.422 39.0573 117.37 39.2396 117.266 39.3438C117.161 39.474 117.044 39.5911 116.914 39.6953C116.784 39.7995 116.667 39.9036 116.562 40.0078C116.458 40.112 116.406 40.2682 116.406 40.4766C116.354 40.5286 116.302 40.6068 116.25 40.7109C116.198 40.8151 116.133 40.9062 116.055 40.9844C115.977 41.0625 115.885 41.1146 115.781 41.1406C115.703 41.1927 115.612 41.1927 115.508 41.1406C115.299 41.349 115.065 41.6224 114.805 41.9609C114.544 42.3255 114.31 42.638 114.102 42.8984C113.503 43.5755 112.904 44.2656 112.305 44.9688C111.706 45.6979 111.185 46.4661 110.742 47.2734L110.469 47.1953C110.339 47.3255 110.247 47.4297 110.195 47.5078C110.143 47.5859 110 47.6771 109.766 47.7812H109.688L108.359 51.375L108.398 51.4531C108.424 51.7396 108.398 51.987 108.32 52.1953C108.242 52.4297 108.164 52.651 108.086 52.8594C108.008 53.0938 107.969 53.3281 107.969 53.5625C107.943 53.7969 108.008 54.0703 108.164 54.3828L108.125 54.4609C107.995 54.7474 107.917 55.0208 107.891 55.2812C107.865 55.5417 107.878 55.763 107.93 55.9453C107.956 56.1536 107.995 56.3229 108.047 56.4531C108.073 56.6094 108.086 56.7005 108.086 56.7266C108.19 56.7526 108.32 56.8177 108.477 56.9219C108.451 57.0781 108.385 57.2214 108.281 57.3516C108.281 57.638 108.359 57.8464 108.516 57.9766C108.672 58.1328 108.854 58.25 109.062 58.3281C109.271 58.4323 109.479 58.5104 109.688 58.5625C109.896 58.6406 110.039 58.7318 110.117 58.8359L110.156 58.7969C110.625 58.6927 111.107 58.6276 111.602 58.6016C112.122 58.6016 112.565 58.4193 112.93 58.0547H112.969V58.0156C113.099 57.5729 113.281 57.2995 113.516 57.1953C113.776 57.0911 114.062 56.9479 114.375 56.7656C114.349 56.5573 114.44 56.3229 114.648 56.0625C114.883 55.8021 115.065 55.6068 115.195 55.4766C115.404 55.2943 115.56 55.151 115.664 55.0469C115.768 54.9427 115.859 54.7474 115.938 54.4609L115.977 54.3828L116.016 54.3438C116.25 54.1094 116.419 53.862 116.523 53.6016C116.628 53.3411 116.706 53.0417 116.758 52.7031C116.836 52.3385 116.914 52.0391 116.992 51.8047C117.096 51.5703 117.318 51.3099 117.656 51.0234C117.708 50.9714 117.734 50.9453 117.734 50.9453C118.099 49.9818 118.477 49.0182 118.867 48.0547C119.284 47.0911 119.583 46.1146 119.766 45.125C119.818 44.9948 119.844 44.8646 119.844 44.7344C119.87 44.6302 119.909 44.513 119.961 44.3828C120.013 44.2526 120.065 44.1224 120.117 43.9922C120.169 43.862 120.182 43.7318 120.156 43.6016C120.156 43.4974 120.091 43.4062 119.961 43.3281C119.961 43.1458 120.026 42.8984 120.156 42.5859C120.286 42.2734 120.417 41.9349 120.547 41.5703C120.703 41.2057 120.833 40.8281 120.938 40.4375C121.042 40.0729 121.068 39.7344 121.016 39.4219C121.016 39.3698 121.003 39.2786 120.977 39.1484C120.977 39.0443 120.951 38.9792 120.898 38.9531L120.938 38.875C121.094 38.5365 121.198 38.1719 121.25 37.7812C121.302 37.4167 121.328 37.0521 121.328 36.6875C121.328 36.401 121.341 36.1406 121.367 35.9062C121.393 35.6458 121.419 35.3854 121.445 35.125Z" fill="white"/>
</svg>
