<svg width="164" height="43" viewBox="0 0 164 43" fill="none" xmlns="http://www.w3.org/2000/svg">
<path d="M37.75 7.5L17.375 35.0625L27.0625 36.0625L33.125 22.5L34.1875 42.1875L0.625 39.875L21.8125 13.3125L9 13.75L4.6875 27.8125L0.875 8.4375L37.75 7.5ZM81.25 20.5C81.25 23.7083 80.6042 26.5833 79.3125 29.125C78.0625 31.625 76.375 33.75 74.25 35.5C72.1667 37.25 69.7292 38.5833 66.9375 39.5C64.1875 40.4167 61.3125 40.875 58.3125 40.875C55.3125 40.875 52.4792 40.3958 49.8125 39.4375C47.1875 38.4792 44.875 37.125 42.875 35.375C40.9167 33.625 39.3542 31.5 38.1875 29C37.0208 26.5 36.4375 23.6875 36.4375 20.5625C36.4375 17.1042 37.0417 14.125 38.25 11.625C39.5 9.08333 41.1667 7 43.25 5.375C45.375 3.75 47.8542 2.54167 50.6875 1.75C53.5208 0.958333 56.5417 0.5625 59.75 0.5625C62.6667 0.5625 65.4375 1.04167 68.0625 2C70.6875 2.91667 72.9583 4.22917 74.875 5.9375C76.8333 7.64583 78.375 9.75 79.5 12.25C80.6667 14.7083 81.25 17.4583 81.25 20.5ZM70.375 20.4375C70.375 18.8958 70.1458 17.3125 69.6875 15.6875C69.2708 14.0625 68.625 12.6042 67.75 11.3125C66.875 9.97917 65.7708 8.89583 64.4375 8.0625C63.1042 7.22917 61.5417 6.8125 59.75 6.8125C57.875 6.8125 56.1667 7.16667 54.625 7.875C53.0833 8.58333 51.75 9.5625 50.625 10.8125C49.5 12.0208 48.625 13.4375 48 15.0625C47.4167 16.6875 47.125 18.3958 47.125 20.1875C47.125 21.8542 47.3333 23.5625 47.75 25.3125C48.1667 27.0208 48.8125 28.5833 49.6875 30C50.5625 31.375 51.6875 32.5 53.0625 33.375C54.4375 34.25 56.1042 34.6875 58.0625 34.6875C60.2292 34.6875 62.0833 34.3125 63.625 33.5625C65.2083 32.8125 66.5 31.7917 67.5 30.5C68.5 29.2083 69.2292 27.7083 69.6875 26C70.1458 24.25 70.375 22.3958 70.375 20.4375ZM122.625 10.5C122.625 12.2083 122.104 13.625 121.062 14.75C120.021 15.8333 118.625 16.375 116.875 16.375C115.583 16.375 114.583 16.1458 113.875 15.6875C113.167 15.1875 112.562 14.6458 112.062 14.0625C111.604 13.4375 111.125 12.8958 110.625 12.4375C110.167 11.9375 109.5 11.6875 108.625 11.6875C107.083 11.6875 105.854 12.1875 104.938 13.1875C104.021 14.1458 103.333 15.2917 102.875 16.625C102.833 16.7083 102.792 17.1042 102.75 17.8125C102.75 18.5208 102.729 19.4167 102.688 20.5C102.646 21.5833 102.604 22.7708 102.562 24.0625C102.521 25.3542 102.479 26.5833 102.438 27.75C102.396 28.9167 102.354 29.9583 102.312 30.875C102.271 31.75 102.25 32.3333 102.25 32.625L117.438 38.125L81.3125 41.8125C83.4792 40.4375 85.6458 39.0833 87.8125 37.75C89.9792 36.375 92.1458 35.0208 94.3125 33.6875L92 11.875L78.0625 8.125L103.25 2.625L103.125 8.375C104.875 7.16667 106.667 6.14583 108.5 5.3125C110.375 4.4375 112.438 4 114.688 4C115.438 4 116.208 4.08333 117 4.25C117.792 4.41667 118.542 4.66667 119.25 5C119.958 5.33333 120.583 5.79167 121.125 6.375C121.667 6.91667 122.062 7.58333 122.312 8.375C122.521 9.125 122.625 9.83333 122.625 10.5ZM163.938 25.875C163.938 28.75 163.208 31.1875 161.75 33.1875C160.333 35.1458 158.5 36.75 156.25 38C154.042 39.2083 151.625 40.1042 149 40.6875C146.375 41.2292 143.875 41.5 141.5 41.5C139.167 41.5 136.729 41.2083 134.188 40.625C131.688 40.0417 129.375 39.125 127.25 37.875C125.167 36.625 123.438 35.0208 122.062 33.0625C120.729 31.0625 120.062 28.6667 120.062 25.875C120.062 22.8333 120.792 20.3125 122.25 18.3125C123.708 16.3125 125.542 14.7292 127.75 13.5625C130 12.3958 132.458 11.5833 135.125 11.125C137.833 10.6667 140.438 10.4375 142.938 10.4375C145.229 10.4375 147.604 10.7292 150.062 11.3125C152.562 11.8958 154.833 12.8125 156.875 14.0625C158.958 15.2708 160.646 16.8542 161.938 18.8125C163.271 20.7708 163.938 23.125 163.938 25.875ZM153.625 25.75C153.625 24.25 153.333 22.875 152.75 21.625C152.208 20.375 151.438 19.2917 150.438 18.375C149.479 17.4583 148.354 16.75 147.062 16.25C145.771 15.75 144.396 15.5 142.938 15.5C141.438 15.5 139.938 15.7292 138.438 16.1875C136.938 16.6042 135.583 17.2292 134.375 18.0625C133.167 18.8958 132.188 19.9583 131.438 21.25C130.688 22.5 130.312 23.9375 130.312 25.5625C130.312 27.1875 130.562 28.6667 131.062 30C131.604 31.3333 132.354 32.4792 133.312 33.4375C134.312 34.3958 135.479 35.1458 136.812 35.6875C138.146 36.1875 139.625 36.4375 141.25 36.4375C143 36.4375 144.625 36.25 146.125 35.875C147.625 35.4583 148.938 34.8125 150.062 33.9375C151.188 33.0625 152.062 31.9583 152.688 30.625C153.312 29.25 153.625 27.625 153.625 25.75Z" fill="#146321"/>
</svg>
