<svg width="74" height="36" viewBox="0 0 74 36" fill="none" xmlns="http://www.w3.org/2000/svg">
<path d="M0.625 35V28.75L8.49609 6.95312H1.38672V0.625H15.7422V6.64062L7.73438 28.6719H15.4102V35H0.625ZM26.1328 35.3125C23.3854 35.3125 21.2826 34.4857 19.8242 32.832C18.3789 31.1654 17.6562 28.763 17.6562 25.625V9.29688C17.6562 6.35417 18.3724 4.12109 19.8047 2.59766C21.25 1.07422 23.3594 0.3125 26.1328 0.3125C28.9062 0.3125 31.0091 1.07422 32.4414 2.59766C33.8867 4.12109 34.6094 6.35417 34.6094 9.29688V25.625C34.6094 28.763 33.8802 31.1654 32.4219 32.832C30.9766 34.4857 28.8802 35.3125 26.1328 35.3125ZM26.1914 28.9844C27.2331 28.9844 27.7539 27.9753 27.7539 25.957V9.17969C27.7539 7.48698 27.2461 6.64062 26.2305 6.64062C25.0846 6.64062 24.5117 7.50651 24.5117 9.23828V25.9961C24.5117 27.0638 24.6419 27.832 24.9023 28.3008C25.1628 28.7565 25.5924 28.9844 26.1914 28.9844ZM37.3828 35V0.625H47.9297C49.6875 0.625 51.0156 1.02865 51.9141 1.83594C52.8125 2.63021 53.4115 3.75 53.7109 5.19531C54.0234 6.6276 54.1797 8.3138 54.1797 10.2539C54.1797 12.1289 53.9388 13.6263 53.457 14.7461C52.9883 15.8659 52.0964 16.6406 50.7812 17.0703C51.862 17.2917 52.6172 17.832 53.0469 18.6914C53.4896 19.5378 53.7109 20.638 53.7109 21.9922V35H46.9336V21.543C46.9336 20.5404 46.7253 19.9219 46.3086 19.6875C45.9049 19.4401 45.2474 19.3164 44.3359 19.3164V35H37.3828ZM44.375 13.3594H46.0352C46.9857 13.3594 47.4609 12.3242 47.4609 10.2539C47.4609 8.91276 47.3568 8.03385 47.1484 7.61719C46.9401 7.20052 46.5495 6.99219 45.9766 6.99219H44.375V13.3594ZM64.6484 35.3125C61.901 35.3125 59.7982 34.4857 58.3398 32.832C56.8945 31.1654 56.1719 28.763 56.1719 25.625V9.29688C56.1719 6.35417 56.888 4.12109 58.3203 2.59766C59.7656 1.07422 61.875 0.3125 64.6484 0.3125C67.4219 0.3125 69.5247 1.07422 70.957 2.59766C72.4023 4.12109 73.125 6.35417 73.125 9.29688V25.625C73.125 28.763 72.3958 31.1654 70.9375 32.832C69.4922 34.4857 67.3958 35.3125 64.6484 35.3125ZM64.707 28.9844C65.7487 28.9844 66.2695 27.9753 66.2695 25.957V9.17969C66.2695 7.48698 65.7617 6.64062 64.7461 6.64062C63.6003 6.64062 63.0273 7.50651 63.0273 9.23828V25.9961C63.0273 27.0638 63.1576 27.832 63.418 28.3008C63.6784 28.7565 64.1081 28.9844 64.707 28.9844Z" fill="white"/>
</svg>
